<svg xmlns="http://www.w3.org/2000/svg" style="display: none;"><symbol id="coding" viewBox="0 0 511.997 511.997"><title>coding</title><g> <g> <path d="M506.76,242.828l-118.4-125.44c-7.277-7.718-19.424-8.07-27.142-0.787c-7.706,7.277-8.064,19.43-0.781,27.142 l105.965,112.256L360.437,368.268c-7.283,7.712-6.925,19.859,0.781,27.142c3.712,3.501,8.454,5.235,13.178,5.235 c5.101,0,10.195-2.022,13.965-6.01l118.4-125.446C513.742,261.785,513.742,250.226,506.76,242.828z"/> </g> </g><g> <g> <path d="M151.566,368.262L45.608,255.999l105.958-112.262c7.277-7.712,6.925-19.866-0.787-27.142 c-7.706-7.277-19.866-6.925-27.142,0.787l-118.4,125.44c-6.982,7.398-6.982,18.963,0,26.362L123.643,394.63 c3.776,4,8.864,6.016,13.965,6.016c4.723,0,9.466-1.741,13.171-5.242C158.498,388.127,158.843,375.974,151.566,368.262z"/> </g> </g><g> <g> <path d="M287.061,52.697c-10.477-1.587-20.282,5.606-21.882,16.083l-56.32,368.64c-1.6,10.483,5.6,20.282,16.083,21.882 c0.986,0.147,1.958,0.218,2.925,0.218c9.325,0,17.504-6.803,18.957-16.301l56.32-368.64 C304.744,64.095,297.544,54.297,287.061,52.697z"/> </g> </g></symbol><symbol id="computer" viewBox="0 0 512 512"><title>computer</title><path id="XMLID_710_" d="M240.93,364.99c-2.63,0-5.21,1.069-7.07,2.93c-1.859,1.86-2.93,4.43-2.93,7.07 c0,2.63,1.07,5.21,2.93,7.069c1.86,1.86,4.44,2.931,7.07,2.931s5.21-1.07,7.07-2.931c1.859-1.87,2.93-4.439,2.93-7.069 c0-2.641-1.07-5.21-2.93-7.07C246.14,366.06,243.56,364.99,240.93,364.99z"/><path id="XMLID_734_" d="M431.77,335.12c-2.64,0-5.22,1.069-7.08,2.93c-1.859,1.86-2.92,4.43-2.92,7.07 c0,2.63,1.061,5.21,2.92,7.069c1.86,1.86,4.44,2.931,7.08,2.931c2.63,0,5.2-1.07,7.07-2.931c1.86-1.87,2.93-4.439,2.93-7.069 s-1.069-5.21-2.93-7.07C436.97,336.189,434.399,335.12,431.77,335.12z"/><path id="XMLID_735_" d="M135.939,287c-2.63,0-5.21,1.069-7.069,2.93c-1.86,1.86-2.931,4.44-2.931,7.07s1.07,5.21,2.931,7.069 c1.859,1.86,4.439,2.931,7.069,2.931s5.21-1.07,7.07-2.931c1.86-1.859,2.93-4.439,2.93-7.069s-1.069-5.21-2.93-7.07 S138.569,287,135.939,287z"/><path id="XMLID_744_" d="M511.999,108.537c0-5.523-4.478-10-10-10H486.6c-2.103-7.023-4.907-13.797-8.385-20.255l10.886-10.887 c3.905-3.905,3.905-10.237,0-14.142l-30.354-30.353c-3.906-3.905-10.236-3.905-14.143,0l-10.886,10.886 c-6.459-3.478-13.231-6.282-20.255-8.386L413.463,10c0-5.522-4.478-10-10-10l-42.927,0c-5.522,0-10,4.477-10,10v15.437 c-7.009,2.108-13.768,4.914-20.212,8.391l-10.929-10.929c-3.906-3.905-10.236-3.905-14.143,0l-30.354,30.354 c-2.38,2.381-3.301,5.662-2.78,8.746H40.033C17.959,62,0,79.959,0,102.034v275.933C0,400.041,17.959,418,40.033,418h158.895v34 h-23.964c-19.87,0-36.036,16.166-36.036,36.036V502c0,5.522,4.478,10,10,10h184c5.522,0,10-4.478,10-10v-13.964 c0-19.87-16.165-36.036-36.035-36.036h-23.965v-34h158.804c22.075,0,40.034-17.959,40.034-40.033V214.081l7.335-7.335 c1.875-1.875,2.929-4.419,2.929-7.071c0-2.652-1.054-5.196-2.929-7.071l-10.929-10.928c3.478-6.445,6.283-13.203,8.392-20.212 l15.437,0c2.652,0,5.196-1.054,7.071-2.929s2.929-4.419,2.929-7.071L511.999,108.537z M322.928,488.036V492h-164v-3.964 c0-8.843,7.193-16.036,16.036-16.036h131.929C315.734,472,322.928,479.193,322.928,488.036z M262.928,452h-44v-34h44V452z M461.766,377.967c0,11.046-8.987,20.033-20.034,20.033H40.033C28.987,398,20,389.013,20,377.967v-22.85h371.771 c5.522,0,10-4.478,10-10s-4.478-10-10-10H20V307h76.333c5.522,0,10-4.478,10-10s-4.478-10-10-10H20V102.034 C20,90.987,28.987,82,40.033,82h243.976c-2.609,5.327-4.781,10.849-6.485,16.537l-15.523,0c-2.652,0-5.196,1.054-7.071,2.929 S252,105.885,252,108.537l0.001,42.926c0,5.523,4.478,10,10,10h15.56c2.1,6.979,4.892,13.71,8.349,20.131l-11.01,11.011 c-3.905,3.905-3.905,10.237,0,14.142l30.354,30.353c3.906,3.905,10.236,3.905,14.143,0l11.01-11.01 c6.421,3.458,13.153,6.25,20.131,8.349L350.537,250c0,5.522,4.478,10,10,10l42.927-0.001c5.522,0,10-4.477,10-10v-15.524 c6.993-2.094,13.739-4.884,20.174-8.342l10.967,10.967c1.876,1.875,4.419,2.929,7.071,2.929s5.195-1.054,7.071-2.929l3.019-3.019 V377.967z M492,141.463h-13.157c-4.689,0-8.749,3.259-9.764,7.838c-2.253,10.173-6.244,19.789-11.864,28.578 c-2.532,3.949-1.98,9.144,1.348,12.472l9.325,9.325l-16.212,16.211l-9.353-9.353c-3.045-3.043-7.696-3.799-11.547-1.874 c-0.31,0.154-0.61,0.325-0.901,0.51c-8.788,5.599-18.397,9.571-28.561,11.809c-4.585,1.009-7.851,5.071-7.851,9.766L393.463,240 l-22.927,0v-13.281c0-4.69-3.259-8.75-7.838-9.764c-10.148-2.247-19.744-6.227-28.52-11.828c-1.606-1.026-3.474-1.571-5.38-1.571 c-2.652,0-5.198,1.055-7.074,2.93l-9.4,9.401l-16.211-16.212l9.4-9.4c3.328-3.328,3.88-8.522,1.349-12.471 c-5.596-8.771-9.571-18.36-11.817-28.503c-1.014-4.579-5.074-7.838-9.764-7.838l-13.281,0l0.001-22.926h13.253 c4.694,0,8.757-3.266,9.767-7.851c2.234-10.153,6.202-19.753,11.794-28.538c2.53-3.948,1.979-9.143-1.349-12.47l-9.354-9.354 l16.212-16.211l9.324,9.324c3.429,3.428,8.729,3.845,12.613,1.258c8.75-5.572,18.316-9.533,28.437-11.773 c4.578-1.014,7.838-5.074,7.838-9.763L370.537,20l22.927,0v13.13c0,4.694,3.266,8.757,7.851,9.766 c10.191,2.244,19.824,6.231,28.629,11.852c0.294,0.188,0.598,0.359,0.909,0.515c3.847,1.924,8.503,1.17,11.547-1.874l9.276-9.277 l16.211,16.212l-9.276,9.276c-0.466,0.466-0.884,0.976-1.249,1.524c-2.207,3.31-2.239,7.61-0.098,10.949 c5.615,8.801,9.599,18.427,11.839,28.611c1.009,4.585,5.071,7.851,9.767,7.851l13.131,0V141.463z"/><path id="XMLID_999_" d="M382,68c-34.187,0-62,27.813-62,62s27.813,62,62,62s62-27.813,62-62S416.187,68,382,68z M382,172 c-23.159,0-42-18.841-42-42s18.841-42,42-42s42,18.841,42,42S405.159,172,382,172z"/><path id="XMLID_1012_" d="M163.67,187.22c-2.641,0-5.21,1.07-7.07,2.93c-1.87,1.86-2.93,4.44-2.93,7.08 c0,2.63,1.06,5.21,2.93,7.07c1.86,1.86,4.43,2.92,7.07,2.92c2.63,0,5.21-1.06,7.07-2.92c1.859-1.86,2.93-4.44,2.93-7.07 c0-2.64-1.07-5.22-2.93-7.08C168.88,188.29,166.3,187.22,163.67,187.22z"/><path id="XMLID_1094_" d="M241.719,179.822c0.687-2.562,0.327-5.291-0.999-7.588l-16.885-29.244 c-2.761-4.782-8.877-6.422-13.66-3.66l-9.618,5.553c-3.159-2.234-6.501-4.167-10.006-5.786V128c0-5.523-4.478-10-10-10h-33.769 c-5.522,0-10,4.477-10,10v11.097c-3.505,1.62-6.847,3.552-10.006,5.786l-9.618-5.553c-2.297-1.326-5.027-1.684-7.588-0.999 c-2.563,0.687-4.746,2.362-6.072,4.659l-16.884,29.244c-2.762,4.783-1.123,10.898,3.66,13.66l9.622,5.556 c-0.172,1.918-0.259,3.847-0.259,5.774s0.087,3.856,0.259,5.774l-9.622,5.556c-4.783,2.761-6.422,8.877-3.66,13.66l16.884,29.244 c1.326,2.297,3.51,3.973,6.072,4.659c2.561,0.686,5.291,0.328,7.588-0.999l9.618-5.553c3.159,2.234,6.501,4.167,10.006,5.786 v11.097c0,5.522,4.478,10,10,10h33.769c5.522,0,10-4.478,10-10v-11.097c3.505-1.62,6.847-3.552,10.006-5.786l9.618,5.553 c4.784,2.761,10.898,1.123,13.66-3.66l16.885-29.244c1.326-2.297,1.686-5.026,0.999-7.588c-0.687-2.562-2.362-4.746-4.659-6.072 L227.437,203c0.173-1.919,0.26-3.848,0.26-5.774s-0.087-3.855-0.26-5.775l9.623-5.556 C239.356,184.568,241.032,182.384,241.719,179.822z M206.773,188.213c0.612,2.95,0.923,5.982,0.923,9.012 s-0.311,6.062-0.923,9.012c-0.877,4.225,1.055,8.536,4.791,10.693l6.835,3.946l-6.885,11.924l-6.846-3.952 c-3.739-2.159-8.445-1.674-11.666,1.207c-4.56,4.078-9.8,7.108-15.575,9.006c-4.104,1.349-6.877,5.18-6.877,9.5v7.89h-13.769 v-7.89c0-4.32-2.773-8.151-6.877-9.5c-5.775-1.898-11.016-4.929-15.575-9.006c-3.22-2.881-7.925-3.367-11.666-1.207l-6.846,3.952 l-6.884-11.924l6.834-3.946c3.736-2.157,5.668-6.468,4.791-10.693c-0.611-2.947-0.922-5.979-0.922-9.012s0.311-6.064,0.922-9.012 c0.877-4.225-1.054-8.535-4.791-10.693l-6.834-3.946l6.884-11.923l6.846,3.952c3.739,2.16,8.445,1.674,11.666-1.207 c4.56-4.078,9.8-7.108,15.575-9.006c4.104-1.349,6.877-5.18,6.877-9.5V138h13.769v7.89c0,4.32,2.773,8.151,6.877,9.5 c5.775,1.898,11.016,4.929,15.575,9.006c3.219,2.879,7.924,3.366,11.666,1.207l6.846-3.953l6.885,11.924l-6.835,3.946 C207.828,179.678,205.896,183.989,206.773,188.213z"/></symbol><symbol id="cms" viewBox="0 -44 512 512"><title>cms</title><path d="m502 202.988281h-33.011719v-29.660156c0-5.523437-4.476562-10-10-10h-22.746093c-4.097657-14.90625-10.023438-29.195313-17.6875-42.65625l16.097656-16.097656c1.875-1.875 2.929687-4.421875 2.929687-7.070313 0-2.652344-1.054687-5.195312-2.929687-7.074218l-56.09375-56.09375c-3.902344-3.902344-10.234375-3.902344-14.140625 0l-16.101563 16.101562c-13.460937-7.667969-27.753906-13.59375-42.652344-17.691406v-22.746094c0-5.523438-4.476562-10-10-10h-79.328124c-5.523438 0-10 4.476562-10 10v22.746094c-14.902344 4.097656-29.195313 10.023437-42.65625 17.691406l-16.097657-16.101562c-3.90625-3.902344-10.238281-3.902344-14.144531 0l-56.09375 56.09375c-1.875 1.875-2.929688 4.417968-2.929688 7.070312s1.054688 5.195312 2.929688 7.070312l16.101562 16.101563c-7.671874 13.46875-13.597656 27.761719-17.691406 42.652344h-22.742187c-5.523438 0-10 4.480469-10 10v29.664062h-33.011719c-5.523438 0-10 4.480469-10 10 0 5.523438 4.476562 10 10 10h206c5.523438 0 10-4.476562 10-10 0-5.519531-4.476562-10-10-10h-43.121094c4.960938-41.472656 40.332032-73.738281 83.121094-73.738281s78.160156 32.265625 83.121094 73.738281h-43.121094c-5.523438 0-10 4.480469-10 10 0 5.523438 4.476562 10 10 10h206c5.523438 0 10-4.476562 10-10 0-5.519531-4.476562-10-10-10zm-246-93.738281c-53.828125 0-98.210938 41.214844-103.257812 93.738281h-89.730469v-19.660156h20.535156c4.664063 0 8.707031-3.222656 9.75-7.769531 4.144531-18.109375 11.28125-35.3125 21.203125-51.132813 2.476562-3.949219 1.898438-9.089843-1.398438-12.386719l-14.542968-14.539062 41.953125-41.949219 14.539062 14.539063c3.300781 3.296875 8.4375 3.875 12.386719 1.398437 15.804688-9.917969 33.007812-17.050781 51.132812-21.207031 4.542969-1.039062 7.765626-5.082031 7.765626-9.746094v-20.535156h59.328124v20.535156c0 4.664063 3.222657 8.707032 7.765626 9.75 18.121093 4.152344 35.328124 11.289063 51.136718 21.203125 3.949219 2.480469 9.085938 1.898438 12.382813-1.398437l14.539062-14.539063 41.953125 41.953125-14.539062 14.535156c-3.296875 3.300782-3.878906 8.4375-1.398438 12.386719 9.914063 15.804688 17.046875 33.007813 21.203125 51.136719 1.039063 4.542969 5.082031 7.765625 9.746094 7.765625h20.539063v19.664063h-89.734376c-5.046874-52.527344-49.429687-93.742188-103.257812-93.742188zm0 0"/><path d="m100.691406 279.871094h21.09375c11.835938 0 21.460938 9.628906 21.460938 21.464844 0 5.519531 4.480468 10 10 10 5.523437 0 10-4.480469 10-10 0-22.863282-18.597656-41.464844-41.460938-41.464844h-21.09375c-22.863281 0-41.464844 18.601562-41.464844 41.464844v76.511718c0 22.863282 18.601563 41.464844 41.464844 41.464844h21.09375c22.863282 0 41.460938-18.601562 41.460938-41.464844 0-5.519531-4.476563-10-10-10-5.519532 0-10 4.480469-10 10 0 11.835938-9.625 21.464844-21.460938 21.464844h-21.09375c-11.835937 0-21.464844-9.628906-21.464844-21.464844v-76.511718c0-11.835938 9.628907-21.464844 21.464844-21.464844zm0 0"/><path d="m324.886719 261.875c-4.398438-1.148438-9.023438.8125-11.246094 4.78125l-52.039063 92.761719-52.039062-92.761719c-2.226562-3.96875-6.851562-5.933594-11.25-4.78125-4.402344 1.148438-7.472656 5.125-7.472656 9.675781v136.082031c0 5.523438 4.476562 10 10 10 5.523437 0 10-4.476562 10-10v-97.820312l42.039062 74.9375c1.769532 3.152344 5.101563 5.105469 8.71875 5.105469 3.617188 0 6.953125-1.953125 8.722656-5.105469l42.039063-74.9375v97.820312c0 5.523438 4.476563 10 10 10s10-4.476562 10-10v-136.082031c0-4.550781-3.070313-8.527343-7.472656-9.675781zm0 0"/><path d="m405.710938 329.59375c-14.921876 0-27.0625-12.140625-27.0625-27.066406 0-14.921875 12.140624-27.0625 27.0625-27.0625 8.726562 0 16.964843 4.246094 22.046874 11.359375 3.207032 4.496093 9.453126 5.535156 13.945313 2.328125 4.496094-3.210938 5.539063-9.453125 2.328125-13.949219-8.824219-12.359375-23.148438-19.738281-38.320312-19.738281-25.949219 0-47.0625 21.113281-47.0625 47.0625 0 25.953125 21.113281 47.066406 47.0625 47.066406 14.921874 0 27.0625 12.136719 27.0625 27.058594 0 14.925781-12.140626 27.066406-27.0625 27.066406-10.09375 0-19.28125-5.558594-23.980469-14.5-2.566407-4.890625-8.613281-6.769531-13.5-4.203125-4.890625 2.570313-6.773438 8.613281-4.203125 13.503906 8.164062 15.542969 24.136718 25.199219 41.683594 25.199219 25.949218 0 47.0625-21.113281 47.0625-47.066406 0-25.949219-21.113282-47.058594-47.0625-47.058594zm0 0"/><path d="m266 212.988281c0-5.503906-4.492188-10-10-10s-10 4.496094-10 10c0 5.507813 4.492188 10 10 10s10-4.492187 10-10zm0 0"/></symbol><symbol id="tools-and-utensils" viewBox="0 0 512 512"><title>tools-and-utensils</title><path d="M463.663,20.23H48.337C21.683,20.23,0,41.914,0,68.567v275.764c0,26.659,21.683,48.348,48.336,48.348h136.992 c-1.233,26.663-6.004,52.508-14.226,77.07h-33.468c-6.08,0-11.011,4.93-11.011,11.011c0,6.081,4.931,11.011,11.011,11.011 h236.731c6.08,0,11.011-4.93,11.011-11.011c0-6.081-4.931-11.011-11.011-11.011h-33.468 c-8.222-24.564-12.993-50.409-14.226-77.07h136.991c26.654,0,48.337-21.689,48.337-48.348V68.567 C512,41.914,490.317,20.23,463.663,20.23z M22.021,68.567c0-14.51,11.806-26.316,26.315-26.316h415.326 c14.511,0,26.316,11.805,26.316,26.316V320.03H22.021V68.567z M194.243,469.75c7.593-24.703,11.997-50.527,13.14-77.07h97.234 c1.144,26.54,5.548,52.364,13.14,77.07H194.243z M489.98,344.332h-0.001c0,14.517-11.806,26.327-26.316,26.327H48.337 c-14.51,0-26.315-11.81-26.315-26.327v-2.279H489.98V344.332z"/><path d="M402.818,275.99H165.734c-6.08,0-11.011,4.93-11.011,11.011c0,6.081,4.931,11.011,11.011,11.011h237.085 c6.08,0,11.011-4.93,11.011-11.011C413.829,280.919,408.899,275.99,402.818,275.99z"/><path d="M110.955,275.99h-1.773c-6.08,0-11.011,4.93-11.011,11.011c0,6.081,4.931,11.011,11.011,11.011h1.772 c6.08,0,11.011-4.93,11.011-11.011C121.965,280.919,117.036,275.99,110.955,275.99z"/><path d="M320.966,111.318l64.908,55.493l-64.908,55.493c-4.622,3.952-5.165,10.902-1.214,15.524 c2.178,2.547,5.265,3.856,8.374,3.856c2.531,0,5.075-0.869,7.149-2.641l74.698-63.862c2.448-2.092,3.856-5.15,3.856-8.369 s-1.407-6.277-3.855-8.369L335.275,94.58c-4.62-3.952-11.572-3.408-15.524,1.215 C315.799,100.416,316.342,107.366,320.966,111.318z"/><path d="M102.028,175.181l74.697,63.862c2.074,1.774,4.618,2.641,7.149,2.641c3.107,0,6.197-1.308,8.374-3.856 c3.952-4.622,3.409-11.572-1.214-15.524l-64.907-55.493l64.907-55.493c4.622-3.952,5.165-10.902,1.214-15.524 c-3.951-4.622-10.902-5.166-15.524-1.215l-74.697,63.862c-2.448,2.092-3.856,5.15-3.856,8.369S99.58,173.089,102.028,175.181z"/><path d="M224.514,263.536c1.132,0.369,2.281,0.544,3.411,0.544c4.639,0,8.954-2.955,10.468-7.605l56.155-172.509 c1.883-5.782-1.279-11.996-7.061-13.878c-5.784-1.883-11.996,1.279-13.878,7.062L217.454,249.66 C215.57,255.44,218.732,261.654,224.514,263.536z"/></symbol><symbol id="browser" viewBox="0 0 512 512"><title>browser</title><g> <g> <path d="M468.32,53.08H43.68C19.595,53.08,0,72.675,0,96.76V415.24c0,24.085,19.595,43.68,43.68,43.68H468.32 c24.085,0,43.68-19.595,43.68-43.68V96.76C512,72.675,492.405,53.08,468.32,53.08z M495.413,415.24 c0,14.939-12.154,27.093-27.093,27.093H43.68c-14.939,0-27.093-12.154-27.093-27.093V140.441h478.825V415.24z M495.413,123.853 H16.587V96.76c0-14.939,12.154-27.093,27.093-27.093H468.32c14.939,0,27.093,12.154,27.093,27.093V123.853z"/> </g> </g><g> <g> <path d="M61.374,88.467h-8.847c-4.58,0-8.294,3.713-8.294,8.294c0,4.58,3.713,8.294,8.294,8.294h8.847 c4.58,0,8.294-3.713,8.294-8.294C69.667,92.18,65.954,88.467,61.374,88.467z"/> </g> </g><g> <g> <path d="M96.76,88.467h-8.847c-4.58,0-8.294,3.713-8.294,8.294c0,4.58,3.713,8.294,8.294,8.294h8.847 c4.58,0,8.294-3.713,8.294-8.294C105.054,92.18,101.341,88.467,96.76,88.467z"/> </g> </g><g> <g> <path d="M132.147,88.467H123.3c-4.58,0-8.294,3.713-8.294,8.294c0,4.58,3.713,8.294,8.294,8.294h8.847 c4.58,0,8.294-3.713,8.294-8.294C140.441,92.18,136.727,88.467,132.147,88.467z"/> </g> </g><g> <g> <path d="M134.321,291.387l57.148-65.312c3.016-3.448,2.666-8.687-0.781-11.704c-3.447-3.016-8.686-2.667-11.703,0.781 l-61.927,70.773c-2.736,3.127-2.736,7.796,0,10.923l61.927,70.773c1.64,1.873,3.937,2.832,6.245,2.832 c1.939,0,3.885-0.676,5.458-2.051c3.447-3.017,3.796-8.256,0.781-11.703L134.321,291.387z"/> </g> </g><g> <g> <path d="M394.942,285.923l-61.927-70.771c-3.017-3.447-8.256-3.796-11.703-0.781c-3.447,3.017-3.796,8.256-0.781,11.703 l57.148,65.312l-57.148,65.312c-3.017,3.448-2.667,8.686,0.781,11.703c1.574,1.377,3.52,2.051,5.458,2.051 c2.308,0,4.606-0.959,6.245-2.832l61.927-70.773C397.678,293.719,397.678,289.05,394.942,285.923z"/> </g> </g><g> <g> <path d="M294.606,204.123c-4.224-1.777-9.086,0.205-10.863,4.424L212.97,376.634c-1.777,4.222,0.203,9.084,4.424,10.863 c1.052,0.442,2.142,0.652,3.215,0.652c3.237,0,6.312-1.908,7.648-5.077l70.773-168.086 C300.808,210.764,298.827,205.9,294.606,204.123z"/> </g> </g></symbol><symbol id="framework" viewBox="0 0 64 64"><title>framework</title><path d="m35 8c0-1.654-1.346-3-3-3s-3 1.346-3 3 1.346 3 3 3 3-1.346 3-3zm-4 0c0-.552.449-1 1-1s1 .448 1 1-.449 1-1 1-1-.448-1-1z"/><path d="m6.5 41.4c-1.433.828-1.925 2.666-1.099 4.099.555.961 1.565 1.499 2.604 1.499.508 0 1.023-.129 1.495-.4 1.432-.828 1.924-2.666 1.098-4.099-.828-1.432-2.667-1.925-4.098-1.099zm2 3.465c-.479.277-1.091.111-1.366-.366-.276-.478-.111-1.091.366-1.366.477-.276 1.09-.11 1.365.366.276.478.111 1.091-.365 1.366z"/><path d="m57.5 41.4c-1.432-.825-3.271-.332-4.098 1.099-.827 1.433-.334 3.271 1.098 4.099h.001c.471.271.986.4 1.494.4 1.038 0 2.049-.538 2.604-1.499.827-1.433.334-3.27-1.099-4.099zm-.633 3.099c-.275.478-.889.643-1.365.366-.478-.275-.642-.889-.366-1.366.275-.478.888-.644 1.365-.366.477.275.642.888.366 1.366z"/><path d="m59.501 37.937c-1.619-.935-3.504-1.186-5.312-.699-1.617.433-2.992 1.41-3.935 2.771l-7.254-3.628v-8.763l11.082-5.542c.664.848 1.565 1.469 2.624 1.753.431.116.868.173 1.302.173.866 0 1.721-.228 2.492-.672 1.157-.668 1.984-1.746 2.33-3.036s.168-2.638-.5-3.794-1.746-1.983-3.036-2.329c-1.289-.349-2.637-.168-3.794.499-1.157.668-1.984 1.746-2.33 3.036-.231.861-.208 1.743.018 2.581l-10.188 5.095v-6.382h-10v-4.08c3.387-.488 6-3.401 6-6.92 0-3.859-3.14-7-7-7s-7 3.141-7 7c0 3.519 2.613 6.432 6 6.92v4.08h-10v6.381l-10.188-5.094c.226-.838.249-1.72.018-2.581-.346-1.29-1.173-2.368-2.33-3.036-1.157-.667-2.505-.848-3.794-.499-1.29.346-2.368 1.173-3.036 2.329s-.846 2.504-.5 3.794 1.173 2.368 2.33 3.036c.771.444 1.625.672 2.492.672.435 0 .872-.057 1.302-.173 1.059-.284 1.96-.905 2.623-1.753l11.083 5.541v8.763l-7.255 3.627c-.942-1.361-2.318-2.338-3.935-2.771-1.806-.485-3.692-.236-5.312.699-3.342 1.931-4.492 6.22-2.563 9.563 1.295 2.243 3.652 3.499 6.074 3.499 1.187 0 2.389-.302 3.488-.937 2.923-1.688 4.169-5.181 3.145-8.266l6.358-3.177v6.383h10v8.101c-2.279.465-4 2.484-4 4.899 0 2.757 2.243 5 5 5s5-2.243 5-5c0-2.414-1.721-4.434-4-4.899v-8.101h10v-6.383l6.356 3.178c-1.024 3.086.222 6.578 3.145 8.266 1.1.635 2.302.937 3.488.937 2.421 0 4.779-1.256 6.074-3.499 1.93-3.343.78-7.632-2.562-9.562zm-4.399-19.713c.208-.773.704-1.421 1.398-1.821.471-.272.986-.401 1.495-.401 1.038 0 2.048.538 2.603 1.499.4.694.507 1.502.3 2.276-.208.773-.704 1.421-1.398 1.821-1.432.828-3.271.335-4.098-1.098-.401-.694-.507-1.502-.3-2.276zm-28.102-10.224c0-2.757 2.243-5 5-5s5 2.243 5 5-2.243 5-5 5-5-2.243-5-5zm-18.402 12.5c-.827 1.433-2.666 1.926-4.098 1.098-.694-.4-1.19-1.048-1.398-1.821-.207-.774-.101-1.582.3-2.276.555-.961 1.565-1.499 2.603-1.499.509 0 1.024.129 1.495.401.694.4 1.19 1.048 1.398 1.821.207.774.101 1.582-.3 2.276zm1.901 27.829c-2.389 1.378-5.452.558-6.83-1.83s-.557-5.451 1.83-6.83c.771-.445 1.625-.673 2.492-.673.435 0 .872.058 1.302.173 1.29.346 2.368 1.173 3.036 2.33 1.379 2.388.557 5.451-1.83 6.83zm24.501 9.671c0 1.654-1.346 3-3 3s-3-1.346-3-3 1.346-3 3-3 3 1.346 3 3zm6-15h-18v-22h18zm19.331 3.499c-1.377 2.389-4.443 3.209-6.83 1.83s-3.208-4.442-1.83-6.83c.668-1.157 1.746-1.984 3.036-2.33 1.289-.345 2.637-.169 3.794.5 2.387 1.379 3.208 4.442 1.83 6.83z"/><path d="m39 31h-6v2h-4v2h-4v6h14zm-12 6h2v2h-2zm4 2v-4h2v4zm6 0h-2v-6h2z"/><path d="m25 23h2v2h-2z"/><path d="m29 23h10v2h-10z"/><path d="m25 27h14v2h-14z"/></symbol><symbol id="online-shop" viewBox="0 0 512 512"><title>online-shop</title><path d="M32,106a2,2,0,0,1,2-2H64V88H34a18.021,18.021,0,0,0-18,18v78H32Z"/><rect x="232" y="360" width="48" height="16"/><rect x="400" y="152" width="16" height="32"/><path d="M457.807,271.8c.01-.062.021-.123.031-.186l6.056-38.364a8,8,0,0,0-4.645-8.554l-71.9-32.06a8,8,0,0,0-6.516,0l-71.9,32.06a8,8,0,0,0-4.645,8.552l5.993,38.051c.01.062.021.125.031.186A130.957,130.957,0,0,0,361.971,353.6l17.44,12.845a8,8,0,0,0,9.448.03l16.617-12.08A130.909,130.909,0,0,0,457.807,271.8Zm-73.62,78.293-12.728-9.374a115.01,115.01,0,0,1-45.388-72l-5.024-31.9L384.091,208.7l63.042,28.111-5.085,32.213a114.97,114.97,0,0,1-45.981,72.429Z"/><path d="M418.343,242.343,376,284.687l-18.343-18.344-11.314,11.314,24,24a8,8,0,0,0,11.314,0l48-48Z"/><path d="M384,176V160a8,8,0,0,0-8-8H248a8,8,0,0,0-8,8V264a8,8,0,0,0,8,8h40V256H256V168H368v8Z"/><path d="M108,136h8a27.917,27.917,0,0,0,20-8.423A27.917,27.917,0,0,0,156,136h8a27.917,27.917,0,0,0,20-8.423A27.917,27.917,0,0,0,204,136h8a27.917,27.917,0,0,0,20-8.423A27.917,27.917,0,0,0,252,136h8a27.917,27.917,0,0,0,20-8.423A27.917,27.917,0,0,0,300,136h8a27.917,27.917,0,0,0,20-8.423A27.917,27.917,0,0,0,348,136h8a27.917,27.917,0,0,0,20-8.423A27.917,27.917,0,0,0,396,136h8a28.032,28.032,0,0,0,28-28V63.985c0-.124,0-.247-.01-.371l0-.061c0-.037,0-.074-.007-.112a7.952,7.952,0,0,0-1.3-3.84l-.019-.029-.059-.088-.048-.069-.042-.06-.1-.135L430.4,59.2l-.1-.126-.016-.019-.039-.05-32-40A8,8,0,0,0,392,16H120a8,8,0,0,0-6.247,3l-32,40-.039.05-.016.019-.1.126-.017.023-.1.135-.042.06-.048.069-.059.088-.019.029a7.952,7.952,0,0,0-1.3,3.84c0,.038,0,.075-.007.112l0,.061c-.007.124-.01.247-.01.371V108A28.032,28.032,0,0,0,108,136Zm8-16h-8a12.013,12.013,0,0,1-12-12V72h32v36A12.013,12.013,0,0,1,116,120Zm48,0h-8a12.013,12.013,0,0,1-12-12V72h32v36A12.013,12.013,0,0,1,164,120Zm48,0h-8a12.013,12.013,0,0,1-12-12V72h32v36A12.013,12.013,0,0,1,212,120Zm48,0h-8a12.013,12.013,0,0,1-12-12V72h32v36A12.013,12.013,0,0,1,260,120Zm48,0h-8a12.013,12.013,0,0,1-12-12V72h32v36A12.013,12.013,0,0,1,308,120Zm48,0h-8a12.013,12.013,0,0,1-12-12V72h32v36A12.013,12.013,0,0,1,356,120Zm60-12a12.013,12.013,0,0,1-12,12h-8a12.013,12.013,0,0,1-12-12V72h32ZM388.155,32l19.2,24H104.645l19.2-24Z"/><path d="M34,392a2,2,0,0,1-2-2V344H320V328H88V312H304V296H224V160a8,8,0,0,0-8-8H136a8,8,0,0,0-8,8V296H112V152H96V296H80a8,8,0,0,0-8,8v24H32V200H16V390a18.021,18.021,0,0,0,18,18H200v11.17a31.957,31.957,0,0,1-21.88,30.357l-6.974,2.325A27.966,27.966,0,0,0,152,478.415V488a8,8,0,0,0,8,8H352a8,8,0,0,0,8-8v-9.585a27.966,27.966,0,0,0-19.146-26.563l-6.973-2.325A31.957,31.957,0,0,1,312,419.17V408h64V392ZM144,168h64V296H144ZM328.821,464.707l6.973,2.324A11.985,11.985,0,0,1,344,478.415V480H168v-1.585a11.986,11.986,0,0,1,8.205-11.384l6.975-2.324A47.939,47.939,0,0,0,216,419.17V408h80v11.17A47.938,47.938,0,0,0,328.821,464.707Z"/><path d="M478,88H448v16h30a2,2,0,0,1,2,2V328H448v16h32v46a2,2,0,0,1-2,2H392v16h86a18.021,18.021,0,0,0,18-18V106A18.021,18.021,0,0,0,478,88Z"/></symbol><symbol id="coding-1" viewBox="0 0 512 512"><title>coding-1</title><path d="m311.565 254.29h48.724c4.142 0 7.5-3.357 7.5-7.5 0-4.142-3.358-7.5-7.5-7.5h-48.724c-4.142 0-7.5 3.358-7.5 7.5 0 4.143 3.358 7.5 7.5 7.5zm30.649-57.481c.847.308 1.712.454 2.564.454 3.063 0 5.94-1.892 7.048-4.936l30.398-83.517c1.417-3.893-.59-8.196-4.482-9.613-3.895-1.414-8.197.59-9.613 4.482l-30.398 83.517c-1.416 3.892.59 8.196 4.483 9.613zm-254.657 36.014 51.032 29.464c3.968 2.292 8.396 3.473 12.845 3.57.195.015.39.03.589.03s.394-.015.589-.03c4.447-.097 8.877-1.279 12.844-3.57l51.031-29.463c3.982-2.297 6.359-6.414 6.359-11.012v-70.122-.001c0-.001 0-.002 0-.003 0-.301-.023-.595-.057-.887-.288-4.231-2.58-7.972-6.299-10.12l-51.033-29.464c-8.285-4.783-18.579-4.783-26.865 0l-51.035 29.465c-3.719 2.147-6.011 5.888-6.299 10.12-.035.291-.057.586-.057.887v.003.001 70.123c-.001 4.596 2.376 8.712 6.356 11.009zm120.288-12.33-48.322 27.898v-53.714c2.049-.593 4.045-1.422 5.933-2.512l42.39-24.473v52.801zm-61.756-96.287c3.66-2.111 8.206-2.111 11.866 0l47.605 27.484-47.605 27.484c-3.659 2.113-8.206 2.113-11.865 0l-47.606-27.484zm-49.889 43.486 42.389 24.473c1.889 1.091 3.884 1.92 5.934 2.513v53.714l-48.323-27.899zm215.365 64.126h22.354c4.142 0 7.5-3.357 7.5-7.5s-3.358-7.5-7.5-7.5h-22.354c-4.142 0-7.5 3.357-7.5 7.5s3.358 7.5 7.5 7.5zm20.797 29.944h-20.797c-4.142 0-7.5 3.357-7.5 7.5s3.358 7.5 7.5 7.5h20.797c4.142 0 7.5-3.357 7.5-7.5s-3.358-7.5-7.5-7.5zm112.86-234.552h-10.723c-4.142 0-7.5 3.357-7.5 7.5s3.358 7.5 7.5 7.5h10.723c28.55 0 51.778 23.228 51.778 51.777v202.033h-25.544v-194.557c0-18.587-15.122-33.709-33.709-33.709h-363.494c-18.587 0-33.709 15.122-33.709 33.709v194.557h-25.544v-202.033c0-28.55 23.228-51.777 51.778-51.777h332.378c4.142 0 7.5-3.357 7.5-7.5s-3.358-7.5-7.5-7.5h-332.378c-36.822 0-66.778 29.956-66.778 66.777v226.12c0 32.467 23.172 60.123 55.099 65.759.441.078.879.115 1.313.115 3.57 0 6.735-2.56 7.377-6.197.72-4.079-2.003-7.97-6.082-8.69-24.746-4.367-42.707-25.811-42.707-50.987v-9.088h33.025c.007 0 .013.001.019.001.007 0 .013-.001.019-.001h415.872c.007 0 .013.001.019.001.007 0 .013-.001.019-.001h33.027v9.088c0 28.55-23.228 51.777-51.778 51.777h-353.606c-4.142 0-7.5 3.357-7.5 7.5s3.358 7.5 7.5 7.5h89.71l-4.001 43.438h-3.264c-14.125 0-26.777 9.464-30.767 23.016l-1.733 5.889c-1.792 6.086-.639 12.489 3.161 17.569s9.618 7.993 15.962 7.993h190.631c6.344 0 12.163-2.914 15.962-7.994 3.8-5.079 4.952-11.483 3.16-17.567l-1.733-5.891c-3.989-13.551-16.64-23.015-30.766-23.015h-3.264l-4.001-43.438h114.548c36.821 0 66.778-29.956 66.778-66.777v-226.12c.001-36.821-29.956-66.777-66.777-66.777zm-196.722 268.81h-192.956v-194.557c0-10.316 8.393-18.709 18.709-18.709h174.247zm207.956 0h-192.956v-213.266h174.247c10.316 0 18.709 8.393 18.709 18.709zm-260.067 90.865h119.222l4.001 43.438h-127.224zm141.55 58.438c7.519 0 14.253 5.038 16.376 12.25l1.733 5.891c.607 2.061-.229 3.608-.782 4.348-.94 1.258-2.381 1.979-3.951 1.979h-190.63c-2.15 0-3.398-1.239-3.951-1.979-.553-.738-1.389-2.286-.782-4.349l1.733-5.889c2.124-7.213 8.858-12.251 16.377-12.251zm-67.551-103.87c0-7.947-6.442-14.388-14.388-14.388s-14.388 6.442-14.388 14.388 6.442 14.388 14.388 14.388 14.388-6.442 14.388-14.388zm123.736-225.815c-2.929-2.928-7.678-2.928-10.606 0-2.929 2.93-2.929 7.678 0 10.607l21.758 21.758-21.758 21.758c-2.929 2.93-2.929 7.678 0 10.607 1.464 1.464 3.384 2.196 5.303 2.196s3.839-.732 5.303-2.196l27.061-27.062c2.929-2.93 2.929-7.678 0-10.607zm14.266 123.652h-25.937c-4.142 0-7.5 3.358-7.5 7.5 0 4.143 3.358 7.5 7.5 7.5h25.937c4.142 0 7.5-3.357 7.5-7.5 0-4.142-3.358-7.5-7.5-7.5zm-77.255-56.726c1.919 0 3.839-.732 5.303-2.196 2.929-2.93 2.929-7.678 0-10.607l-21.758-21.758 21.758-21.758c2.929-2.93 2.929-7.678 0-10.607-2.929-2.928-7.678-2.928-10.606 0l-27.062 27.062c-2.929 2.93-2.929 7.678 0 10.607l27.062 27.062c1.464 1.463 3.383 2.195 5.303 2.195zm68.729 79.198h-45.338c-4.142 0-7.5 3.357-7.5 7.5s3.358 7.5 7.5 7.5h45.338c4.142 0 7.5-3.357 7.5-7.5s-3.358-7.5-7.5-7.5zm-8.663-37.444c0-4.143-3.358-7.5-7.5-7.5h-27.618c-4.142 0-7.5 3.357-7.5 7.5s3.358 7.5 7.5 7.5h27.618c4.142 0 7.5-3.357 7.5-7.5z"/></symbol><symbol id="cloud" viewBox="0 0 480.119 480.119"><title>cloud</title><g> <g> <path d="M423.239,120.119c-5.838-0.005-11.642,0.888-17.208,2.648c0.528-4.195,0.795-8.42,0.8-12.648 C405.792,48.272,354.813-1.023,292.965,0.016c-45.131,0.758-85.397,28.534-102.134,70.455 C158.463,50.4,115.953,60.37,95.883,92.738c-6.534,10.537-10.106,22.641-10.34,35.037c-8.714-5.031-18.602-7.673-28.664-7.656 c-30.928,0-56,25.072-56,56c0,30.928,25.072,56,56,56c4.418,0,8-3.582,8-8s-3.582-8-8-8 c-22.089-0.359-39.704-18.556-39.345-40.645c0.359-22.089,18.556-39.704,40.645-39.345c13.446,0.219,25.882,7.179,33.1,18.525 c2.42,3.697,7.378,4.732,11.075,2.313c3.195-2.091,4.467-6.148,3.037-9.689c-2.519-6.076-3.834-12.583-3.872-19.16 c0.321-28.992,24.048-52.253,53.04-52c12.918,0.051,25.38,4.78,35.08,13.312c3.33,2.904,8.384,2.558,11.287-0.772 c0.787-0.902,1.361-1.97,1.681-3.124c14.638-50.936,67.796-80.361,118.731-65.723c40.442,11.622,68.595,48.236,69.437,90.307 c-0.034,8.386-1.205,16.729-3.48,24.8c-1.183,4.257,1.308,8.667,5.565,9.85c2.303,0.64,4.772,0.217,6.731-1.154 c6.92-4.88,15.181-7.498,23.648-7.496c22.091,0,40,17.909,40,40s-17.909,40-40,40c-4.418,0-8,3.582-8,8s3.582,8,8,8 c30.928,0,56-25.072,56-56C479.239,145.191,454.167,120.119,423.239,120.119z"/> </g> </g><g> <g> <path d="M376.039,304.119h-272c-13.255,0-24,10.745-24,24v32c0,13.255,10.745,24,24,24h272c13.255,0,24-10.745,24-24v-32 C400.039,314.864,389.294,304.119,376.039,304.119z M384.039,360.119c0,4.418-3.582,8-8,8h-272c-4.418,0-8-3.582-8-8v-32 c0-4.418,3.582-8,8-8h272c4.418,0,8,3.582,8,8V360.119z"/> </g> </g><g> <g> <path d="M353.847,328.615c-8.525,0.053-15.408,6.978-15.408,15.503c0.04,8.584,7.016,15.517,15.6,15.504 c8.563-0.053,15.461-7.037,15.408-15.6C369.394,335.46,362.41,328.562,353.847,328.615z M354.039,344.623 c-0.24,0-0.4-0.264-0.4-0.504l0.4-0.496V344.623z"/> </g> </g><g> <g> <path d="M270.439,336.119h-152c-4.418,0-8,3.582-8,8s3.582,8,8,8h152c4.418,0,8-3.582,8-8S274.858,336.119,270.439,336.119z"/> </g> </g><g> <g> <path d="M319.839,336.119h-21.28c-4.418,0-8,3.582-8,8s3.582,8,8,8h21.28c4.418,0,8-3.582,8-8S324.258,336.119,319.839,336.119z"/> </g> </g><g> <g> <path d="M376.039,400.119h-272c-13.255,0-24,10.745-24,24v32c0,13.255,10.745,24,24,24h272c13.255,0,24-10.745,24-24v-32 C400.039,410.864,389.294,400.119,376.039,400.119z M384.039,456.119c0,4.418-3.582,8-8,8h-272c-4.418,0-8-3.582-8-8v-32 c0-4.418,3.582-8,8-8h272c4.418,0,8,3.582,8,8V456.119z"/> </g> </g><g> <g> <path d="M353.847,424.615c-8.525,0.053-15.408,6.978-15.408,15.503c0.04,8.584,7.016,15.517,15.6,15.504 c8.563-0.053,15.461-7.037,15.408-15.6C369.394,431.46,362.41,424.562,353.847,424.615z M354.039,440.623 c-0.24,0-0.4-0.264-0.4-0.504l0.4-0.496V440.623z"/> </g> </g><g> <g> <path d="M270.439,432.119h-152c-4.418,0-8,3.582-8,8s3.582,8,8,8h152c4.418,0,8-3.582,8-8S274.858,432.119,270.439,432.119z"/> </g> </g><g> <g> <path d="M319.839,432.119h-21.28c-4.418,0-8,3.582-8,8s3.582,8,8,8h21.28c4.418,0,8-3.582,8-8S324.258,432.119,319.839,432.119z"/> </g> </g><g> <g> <path d="M376.039,208.119h-272c-13.255,0-24,10.745-24,24v32c0,13.255,10.745,24,24,24h272c13.255,0,24-10.745,24-24v-32 C400.039,218.864,389.294,208.119,376.039,208.119z M384.039,264.119c0,4.418-3.582,8-8,8h-272c-4.418,0-8-3.582-8-8v-32 c0-4.418,3.582-8,8-8h272c4.418,0,8,3.582,8,8V264.119z"/> </g> </g><g> <g> <path d="M366.935,245.935c-1.542-8.499-9.681-14.139-18.18-12.597c-4.027,0.73-7.607,3.01-9.972,6.349 c-2.375,3.352-3.303,7.517-2.576,11.56c1.346,7.447,7.825,12.865,15.392,12.872c0.874-0.001,1.746-0.073,2.608-0.216 c4.108-0.678,7.769-2.986,10.152-6.4C366.742,254.151,367.671,249.98,366.935,245.935z M351.191,248.751l0.36-0.632l0.04,1 C351.231,249.119,351.207,248.919,351.191,248.751z"/> </g> </g><g> <g> <path d="M268.839,240.119h-152c-4.418,0-8,3.582-8,8s3.582,8,8,8h152c4.418,0,8-3.582,8-8S273.258,240.119,268.839,240.119z"/> </g> </g><g> <g> <path d="M314.727,240.119h-21.28c-4.418,0-8,3.582-8,8s3.582,8,8,8h21.28c4.418,0,8-3.582,8-8S319.146,240.119,314.727,240.119z"/> </g> </g><g> <g> <path d="M205.695,130.463l-24-24c-3.124-3.123-8.188-3.123-11.312,0l-24,24c-3.069,3.178-2.981,8.243,0.197,11.312 c3.1,2.994,8.015,2.994,11.115,0l10.344-10.344v52.688c0,4.418,3.582,8,8,8s8-3.582,8-8v-52.688l10.344,10.344 c3.178,3.069,8.243,2.981,11.312-0.197C208.689,138.478,208.689,133.563,205.695,130.463z"/> </g> </g><g> <g> <path d="M333.499,154.463c-3.1-2.994-8.015-2.994-11.116,0l-10.344,10.344v-52.688c0-4.418-3.582-8-8-8s-8,3.582-8,8v52.688 l-10.344-10.344c-3.178-3.07-8.242-2.982-11.312,0.196c-2.994,3.1-2.994,8.015,0,11.116l24,24c3.124,3.123,8.188,3.123,11.312,0 l24-24C336.765,162.597,336.677,157.532,333.499,154.463z"/> </g> </g></symbol><symbol id="respect" viewBox="0 0 512 512"><title>respect</title><g> <g> <path d="M467.76,88.1c-1.87-1.87-4.44-2.931-7.071-2.931c-2.64,0-5.21,1.061-7.081,2.931c-1.859,1.859-2.92,4.43-2.92,7.07 c0,2.63,1.061,5.211,2.92,7.071c1.87,1.86,4.44,2.93,7.081,2.93c2.63,0,5.201-1.069,7.071-2.93c1.86-1.86,2.92-4.44,2.92-7.071 C470.68,92.53,469.62,89.959,467.76,88.1z"/> </g> </g><g> <g> <path d="M238.071,323.626c-1.869-1.87-4.44-2.931-7.071-2.931c-2.64,0-5.211,1.061-7.081,2.931c-1.859,1.859-2.92,4.43-2.92,7.07 c0,2.63,1.061,5.21,2.92,7.071c1.87,1.86,4.44,2.93,7.081,2.93c2.63,0,5.201-1.069,7.071-2.93c1.86-1.86,2.92-4.44,2.92-7.071 C240.992,328.056,239.932,325.485,238.071,323.626z"/> </g> </g><g> <g> <path d="M491.983,121.313c-2.73-4.802-8.838-6.48-13.637-3.75c-4.801,2.73-6.48,8.836-3.749,13.637 c29.706,52.238,20.738,118.438-21.81,160.985l-7.583,7.583c-1.832-4.807-4.67-9.316-8.537-13.182L333.911,183.831 c6.72-3.306,12.929-7.717,18.38-13.168l19.708-19.709c3.905-3.905,3.905-10.238,0-14.143c-3.906-3.905-10.237-3.905-14.144,0 l-19.708,19.709c-9.259,9.258-21.568,14.357-34.661,14.357h-39.397c-2.652,0-5.195,1.054-7.072,2.929l-30.16,30.16 c-8.956,8.957-23.529,8.957-32.485,0c-8.957-8.956-8.957-23.529,0-32.485l68.856-68.855C305.307,60.546,371,51.292,422.975,80.122 c4.83,2.677,10.918,0.936,13.597-3.895c2.679-4.83,0.935-10.918-3.895-13.597c-28.668-15.899-62.444-22.262-95.112-17.911 c-30.572,4.071-58.555,16.872-81.493,37.184C227.893,56.922,192.02,43.261,154.04,43.261c-41.146,0-79.828,16.023-108.923,45.117 S0,156.157,0,197.302c0,41.146,16.023,79.828,45.117,108.923l3.769,3.769c0.656,0.655,1.384,1.191,2.153,1.626 c0.669,8.652,4.294,17.116,10.897,23.718c7.349,7.348,16.997,11.02,26.648,11.02c0.501,0,1.003-0.016,1.504-0.036 c-0.02,0.506-0.037,1.012-0.037,1.521c0,10.066,3.92,19.53,11.038,26.648c7.349,7.348,16.997,11.021,26.648,11.02 c0.501,0,1.003-0.016,1.504-0.036c-0.02,0.506-0.037,1.012-0.037,1.521c0,10.066,3.92,19.53,11.039,26.648 c7.348,7.347,16.998,11.02,26.648,11.02c0.507,0,1.014-0.016,1.521-0.036c-0.406,10.151,3.251,20.437,10.984,28.171 c7.119,7.118,16.583,11.038,26.648,11.038c10.067,0,19.531-3.92,26.648-11.038l13.977-13.978l18.879,18.877 c7.118,7.119,16.582,11.039,26.648,11.039c10.066,0,19.53-3.92,26.648-11.038c7.826-7.826,11.482-18.267,10.972-28.537 c0.628,0.031,1.258,0.049,1.887,0.049c9.651,0,19.303-3.673,26.65-11.021c7.729-7.729,11.386-18.007,10.984-28.153 c0.506,0.02,1.012,0.037,1.521,0.037c10.066,0,19.53-3.92,26.648-11.038c7.729-7.729,11.386-18.007,10.984-28.153 c0.506,0.02,1.012,0.037,1.521,0.037c10.066,0,19.53-3.92,26.648-11.038c3.615-3.615,6.337-7.791,8.173-12.248 c0.973-0.474,1.888-1.105,2.697-1.913l19.394-19.394C515.824,257.436,526.126,181.354,491.983,121.313z M88.585,326.374 c-4.724,0-9.165-1.839-12.506-5.18c-3.34-3.34-5.18-7.781-5.18-12.505c0-4.723,1.839-9.165,5.18-12.505l17.234-17.234 c3.34-3.341,7.782-5.18,12.506-5.18c4.723,0,9.165,1.839,12.505,5.18c6.896,6.896,6.896,18.115,0,25.01l-17.234,17.235 C97.75,324.534,93.31,326.374,88.585,326.374z M115.235,360.349c-3.341-3.34-5.18-7.782-5.18-12.505 c0-4.724,1.839-9.165,5.18-12.505l17.235-17.235c0,0,0,0,0-0.001c3.34-3.34,7.781-5.18,12.505-5.18 c4.723,0,9.165,1.839,12.505,5.18c6.896,6.896,6.896,18.115,0,25.01l-17.234,17.235 C133.349,367.243,122.127,367.243,115.235,360.349z M154.388,399.502c-3.341-3.34-5.18-7.782-5.18-12.505 c0-4.724,1.839-9.165,5.18-12.505l17.235-17.235c0,0,0,0,0-0.001c3.34-3.34,7.781-5.18,12.505-5.18 c4.724,0,9.165,1.839,12.505,5.18c6.896,6.897,6.896,18.116,0,25.011l-17.235,17.235 C172.503,406.398,161.284,406.398,154.388,399.502z M235.787,421.422l-17.235,17.236c-3.34,3.34-7.781,5.18-12.505,5.18 c-4.723,0-9.165-1.839-12.505-5.18c-6.896-6.897-6.896-18.116,0-25.011l17.235-17.235c0,0,0,0,0-0.001 c3.34-3.34,7.781-5.18,12.505-5.18c4.723,0,9.165,1.839,12.505,5.18c3.341,3.34,5.18,7.782,5.18,12.505 C240.968,413.642,239.128,418.082,235.787,421.422z M422.523,325.739c-3.34,3.341-7.782,5.18-12.505,5.18 c-4.724,0-9.165-1.839-12.505-5.18l-41.627-41.627c-0.002-0.002-0.003-0.003-0.005-0.005l-39.15-39.15 c-3.906-3.905-10.237-3.905-14.144,0c-3.905,3.905-3.905,10.238,0,14.143l80.782,80.78c6.896,6.897,6.896,18.116,0,25.011 c-3.34,3.341-7.782,5.18-12.505,5.18c-4.724,0-9.165-1.839-12.505-5.18l-80.782-80.781c-3.906-3.904-10.237-3.904-14.144,0 c-3.905,3.905-3.905,10.238,0,14.144l39.146,39.145c0.003,0.003,0.006,0.007,0.009,0.01l41.628,41.626 c6.896,6.897,6.896,18.117,0.001,25.012c-6.897,6.896-18.118,6.896-25.011,0l-41.628-41.628c-0.77-0.769-1.635-1.381-2.556-1.847 l-11.873-11.873c-3.906-3.904-10.237-3.904-14.144,0c-3.905,3.905-3.905,10.238,0,14.144l55.702,55.7 c6.896,6.897,6.896,18.116,0,25.011c-3.34,3.341-7.782,5.18-12.505,5.18c-4.724,0-9.165-1.839-12.505-5.18l-21.196-21.195 c1.615-4.237,2.469-8.774,2.469-13.444c0-10.066-3.92-19.53-11.038-26.648c-7.119-7.118-16.583-11.038-26.648-11.038 c-0.509,0-1.015,0.017-1.521,0.037c0.401-10.146-3.255-20.424-10.984-28.153c-7.119-7.118-16.583-11.038-26.648-11.038 c-0.509,0-1.015,0.017-1.521,0.037c0.402-10.146-3.255-20.424-10.984-28.153c-7.119-7.118-16.583-11.038-26.648-11.038 c-0.509,0-1.015,0.017-1.521,0.037c0.402-10.146-3.255-20.424-10.984-28.153c-14.694-14.694-38.605-14.693-53.299,0 l-17.234,17.234c-2.174,2.174-4.017,4.553-5.549,7.071c-23.491-24.951-36.385-57.388-36.385-91.81 c0-35.803,13.942-69.464,39.26-94.78c25.316-25.316,58.978-39.259,94.78-39.259c32.536,0,63.302,11.516,87.644,32.618 l-61.457,61.457c-8.116,8.117-12.586,18.908-12.586,30.386c0,11.479,4.47,22.27,12.586,30.387 c8.378,8.377,19.383,12.566,30.387,12.566s22.009-4.188,30.387-12.566l27.232-27.232h35.253c2.911,0,5.79-0.199,8.634-0.552 l110.403,110.401C429.418,307.625,429.418,318.845,422.523,325.739z"/> </g> </g></symbol><symbol id="data" viewBox="0 0 479.998 479.998"><title>data</title><g> <g> <path d="M364,0H44C21.92,0.026,4.026,17.92,4,40v256c-0.002,18.245,12.342,34.178,30.008,38.736l4-15.488 C27.405,316.514,19.996,306.95,20,296V40c0-13.255,10.745-24,24-24h320c13.255,0,24,10.745,24,24v8h16v-8 C403.974,17.92,386.08,0.026,364,0z"/> </g> </g><g> <g> <rect x="36" y="32" width="16" height="16"/> </g> </g><g> <g> <rect x="68" y="32" width="16" height="16"/> </g> </g><g> <g> <rect x="100" y="32" width="16" height="16"/> </g> </g><g> <g> <path d="M473.656,442.344l-75.88-75.88c3.986-7.115,7.174-14.649,9.504-22.464H420v-16h-9.28 c3.013-19.365,0.69-39.185-6.72-57.328V192h-16v50.944c-4.751-6.069-10.112-11.634-16-16.608V160h-16v55.152 c-5.121-2.968-10.472-5.523-16-7.64V128h-16v74.656c-5.272-1.138-10.619-1.889-16-2.248V144h-16v56.408 c-5.381,0.359-10.728,1.11-16,2.248V176h-16v31.512c-5.528,2.117-10.878,4.672-16,7.64V168h-16v58.336 c-5.888,4.974-11.249,10.539-16,16.608V184h-16v86.672c-7.41,18.143-9.733,37.963-6.72,57.328H84v16h108.72 c17.546,59.182,79.746,92.934,138.927,75.388c11.662-3.458,22.682-8.796,32.625-15.804l74.072,74.072 c3.124,3.123,8.188,3.123,11.312,0l24-24C476.779,450.532,476.779,445.468,473.656,442.344z M300,408 c-52.996-0.057-95.943-43.004-96-96c0-53.019,42.981-96,96-96s96,42.981,96,96S353.019,408,300,408z M444,460.688l-67.296-67.296 c4.36-4.12,8.386-8.579,12.04-13.336L456.688,448L444,460.688z"/> </g> </g><g> <g> <path d="M300,232c-44.183,0-80,35.817-80,80c0,44.183,35.817,80,80,80c44.183,0,80-35.817,80-80 C379.952,267.837,344.163,232.048,300,232z M300,376c-22.836-0.029-43.926-12.224-55.344-32h110.688 C343.926,363.776,322.836,375.971,300,376z M238.104,328c-6.437-24.36,2.158-50.22,21.896-65.88V312h16v-59.288 c5.13-2.076,10.509-3.474,16-4.16V312h16v-63.448c5.491,0.686,10.87,2.084,16,4.16V312h16v-49.88 c19.738,15.66,28.333,41.52,21.896,65.88H238.104z"/> </g> </g><g> <g> <path d="M412,64H92c-22.08,0.026-39.974,17.92-40,40v256c0.026,22.08,17.92,39.974,40,40h104v-16H92c-13.255,0-24-10.745-24-24 V104c0-13.255,10.745-24,24-24h320c13.255,0,24,10.745,24,24v256c-0.001,5.845-2.134,11.488-6,15.872l12,10.584 c6.448-7.304,10.004-16.713,10-26.456V104C451.974,81.92,434.08,64.026,412,64z"/> </g> </g><g> <g> <rect x="84" y="96" width="16" height="16"/> </g> </g><g> <g> <rect x="116" y="96" width="16" height="16"/> </g> </g><g> <g> <rect x="148" y="96" width="16" height="16"/> </g> </g><g> <g> <rect x="100" y="264" width="16" height="48"/> </g> </g><g> <g> <rect x="132" y="216" width="16" height="96"/> </g> </g><g> <g> <rect x="164" y="240" width="16" height="72"/> </g> </g></symbol><symbol id="concept" viewBox="0 0 480 480"><title>concept</title><path d="m16 408v-328h400v56h16v-112c0-13.253906-10.746094-24-24-24h-384c-13.253906 0-24 10.746094-24 24v384c0 13.253906 10.746094 24 24 24h200v-16h-200c-4.417969 0-8-3.582031-8-8zm8-392h384c4.417969 0 8 3.582031 8 8v40h-400v-40c0-4.417969 3.582031-8 8-8zm0 0"/><path d="m48 32h16v16h-16zm0 0"/><path d="m80 32h16v16h-16zm0 0"/><path d="m112 32h16v16h-16zm0 0"/><path d="m48 112h16v16h-16zm0 0"/><path d="m80 112h16v16h-16zm0 0"/><path d="m112 112h16v16h-16zm0 0"/><path d="m144 112h16v16h-16zm0 0"/><path d="m176 32h176v16h-176zm0 0"/><path d="m304 112h16v32h-16zm0 0"/><path d="m402.511719 178.171875 22.628906-22.625 11.3125 11.3125-22.628906 22.628906zm0 0"/><path d="m448 272h32v16h-32zm0 0"/><path d="m402.511719 381.820312 11.3125-11.3125 22.628906 22.625-11.3125 11.3125zm0 0"/><path d="m187.550781 393.132812 22.628907-22.628906 11.3125 11.316406-22.625 22.625zm0 0"/><path d="m144 272h32v16h-32zm0 0"/><path d="m187.550781 166.859375 11.316407-11.3125 22.625 22.625-11.3125 11.316406zm0 0"/><path d="m432 280c-.003906-56.261719-39.097656-104.96875-94.027344-117.148438-54.929687-12.175781-110.945312 15.445313-134.726562 66.433594-23.78125 50.992188-8.941406 111.65625 35.691406 145.914063-5.117188 5.152343-7.609375 12.351562-6.777344 19.5625.828125 7.214843 4.894532 13.65625 11.046875 17.511719-3.625 6.234374-4.207031 13.78125-1.585937 20.5 2.625 6.71875 8.167968 11.875 15.058594 14.003906 3.292968 19.15625 19.882812 33.171875 39.320312 33.222656h32c19.449219-.054688 36.042969-14.089844 39.320312-33.265625 6.890626-2.125 12.4375-7.28125 15.0625-14s2.042969-14.265625-1.582031-20.503906c6.152344-3.851563 10.21875-10.296875 11.046875-17.507813.832032-7.210937-1.660156-14.410156-6.777344-19.5625 29.703126-22.605468 47.074219-57.835937 46.929688-95.160156zm-64 104c4.417969 0 8 3.582031 8 8s-3.582031 8-8 8h-112c-4.417969 0-8-3.582031-8-8s3.582031-8 8-8zm-40 80h-32c-10.132812-.042969-19.148438-6.445312-22.527344-16h77.054688c-3.378906 9.554688-12.394532 15.957031-22.527344 16zm32-32h-96c-4.417969 0-8-3.582031-8-8s3.582031-8 8-8h96c4.417969 0 8 3.582031 8 8s-3.582031 8-8 8zm7.238281-64h-47.238281v-72h24c13.253906 0 24-10.746094 24-24s-10.746094-24-24-24-24 10.746094-24 24h16c0-4.417969 3.582031-8 8-8s8 3.582031 8 8-3.582031 8-8 8h-64c-4.417969 0-8-3.582031-8-8s3.582031-8 8-8 8 3.582031 8 8h16c0-13.253906-10.746094-24-24-24s-24 10.746094-24 24 10.746094 24 24 24h24v72h-47.199219c-39.289062-24.628906-57.523437-72.292969-44.710937-116.855469s53.582031-75.261719 99.949218-75.261719c46.371094 0 87.136719 30.699219 99.953126 75.261719 12.8125 44.5625-5.425782 92.226563-44.710938 116.855469zm0 0"/><path d="m48 144h112v16h-112zm0 0"/><path d="m48 176h112v16h-112zm0 0"/><path d="m48 208h112v16h-112zm0 0"/></symbol><symbol id="preparing-meeting" viewBox="0 0 72.959 72.959"><title>preparing-meeting</title><path style="fill:#231F20;" d="M6.167,34.774H29v4.333c0,0.552,0.448,1,1,1h12.958c0.552,0,1-0.448,1-1v-4.333h21.875 c0.552,0,1-0.448,1-1V1.482c0-0.552-0.448-1-1-1H6.167c-0.552,0-1,0.448-1,1v32.292C5.167,34.326,5.614,34.774,6.167,34.774z M41.958,38.107H31v-3.333h10.958V38.107z M42.958,32.774H30H7.167V28.94h57.667v3.833H42.958z M64.833,2.482V26.94H7.167V2.482 H64.833z M13.583,15.482c0-4.533,3.675-8.208,8.208-8.208v8.208H30c0,4.533-3.675,8.208-8.208,8.208 C17.258,23.69,13.583,20.015,13.583,15.482z M41.958,23.69v-6.625c0-0.552,0.448-1,1-1s1,0.448,1,1v6.625c0,0.552-0.448,1-1,1 S41.958,24.242,41.958,23.69z M45.083,23.69v-9.125c0-0.552,0.448-1,1-1s1,0.448,1,1v9.125c0,0.552-0.448,1-1,1 S45.083,24.242,45.083,23.69z M48.208,23.69V10.94c0-0.552,0.448-1,1-1s1,0.448,1,1v12.75c0,0.552-0.448,1-1,1 S48.208,24.242,48.208,23.69z M51.333,23.69V10.315c0-0.552,0.448-1,1-1s1,0.448,1,1V23.69c0,0.552-0.448,1-1,1 S51.333,24.242,51.333,23.69z M54.458,23.69v-17c0-0.552,0.448-1,1-1s1,0.448,1,1v17c0,0.552-0.448,1-1,1 S54.458,24.242,54.458,23.69z M72.896,58.655l-6.083-16.374c-0.146-0.392-0.52-0.652-0.938-0.652H7.083 c-0.418,0-0.792,0.26-0.938,0.652L0.063,58.655C0.021,58.766,0,58.884,0,59.003v6.344c0,0.552,0.448,1,1,1h1.439 c-1.003,2.615-1.826,4.723-1.842,4.766c-0.201,0.515,0.053,1.094,0.568,1.295c0.517,0.201,1.095-0.054,1.295-0.568 c0.034-0.088,3.439-8.812,4.898-12.941c1.332-4.265,5.608-5.082,8.216-4.304c0.76,0.227,3.184,1.168,2.469,3.678 c-1.434,4.118-4.137,12.82-4.164,12.907c-0.164,0.527,0.131,1.088,0.659,1.251c0.099,0.031,0.198,0.045,0.297,0.045 c0.426,0,0.821-0.275,0.955-0.704c0.014-0.046,0.78-2.509,1.709-5.426h37.965c0.928,2.912,1.694,5.38,1.708,5.426 c0.133,0.429,0.528,0.704,0.955,0.704c0.098,0,0.198-0.015,0.297-0.045c0.527-0.164,0.822-0.724,0.659-1.251 c-0.027-0.087-2.729-8.789-4.146-12.854c-0.732-2.563,1.691-3.504,2.452-3.731c2.609-0.78,6.884,0.04,8.228,4.339 c1.447,4.093,4.852,12.818,4.886,12.906c0.201,0.514,0.778,0.767,1.295,0.568c0.515-0.201,0.769-0.781,0.568-1.295 c-0.017-0.043-0.841-2.154-1.843-4.766h1.439c0.552,0,1-0.448,1-1v-6.344C72.959,58.884,72.938,58.766,72.896,58.655z M2,64.346 v-4.344h2.832c-0.487,1.324-1.062,2.851-1.63,4.344H2z M16.146,52.679c-1.69-0.506-3.569-0.478-5.298,0.088l1.907-4.691 c0.006-0.012,0.625-1.219,3.703-1.219c2.947,0,4.101,0.329,4.103,0.329c0.037,0.011,0.088,0.023,0.126,0.031 c0.006,0.001,0.588,0.118,0.839,0.569c0.274,0.493,0.083,1.245-0.126,1.789c-0.198,0.516,0.06,1.094,0.575,1.292 c0.515,0.197,1.094-0.06,1.292-0.575c0.179-0.468,0.275-0.903,0.333-1.323c0.946,0.073,1.258,0.279,1.341,0.379 c0.29,0.353,0.038,1.594-0.229,2.908l-0.177,0.885c-0.423,2.179-3.739,2.123-4.996,2.02C18.88,54.036,17.719,53.149,16.146,52.679z M54.821,64.346H18.137c0.493-1.53,0.991-3.056,1.426-4.344h33.832C53.827,61.282,54.327,62.811,54.821,64.346z M56.813,52.679 c-1.569,0.469-2.727,1.351-3.384,2.478c-1.25,0.096-4.584,0.144-5.003-2.016l-0.177-0.886c-0.267-1.313-0.519-2.554-0.229-2.907 c0.082-0.1,0.383-0.291,1.341-0.37c0.058,0.417,0.154,0.849,0.332,1.314c0.198,0.515,0.774,0.772,1.292,0.575 c0.516-0.198,0.773-0.776,0.575-1.292c-0.209-0.544-0.4-1.296-0.126-1.789c0.25-0.449,0.828-0.567,0.827-0.567 c0.041-0.006,0.09-0.018,0.129-0.03c0.011-0.003,1.165-0.332,4.112-0.332c3.079,0,3.697,1.207,3.699,1.21l1.912,4.704 C60.382,52.201,58.503,52.173,56.813,52.679z M64.901,54.322l-2.837-6.976c-0.093-0.254-1.043-2.489-5.564-2.489 c-2.971,0-4.313,0.313-4.635,0.401c-0.327,0.067-1.507,0.382-2.16,1.52c-0.032,0.056-0.044,0.12-0.072,0.177 c-1.571,0.068-2.566,0.399-3.16,1.123c-0.894,1.088-0.596,2.55-0.185,4.574l0.174,0.869c0.564,2.908,3.541,3.693,6.012,3.693 c0.126,0,0.243-0.01,0.366-0.014c-0.013,0.263-0.017,0.528,0.014,0.802H20.11c0.031-0.273,0.031-0.538,0.018-0.801 c0.12,0.004,0.234,0.014,0.357,0.014c2.471,0,5.447-0.785,6.012-3.693l0.174-0.868c0.412-2.024,0.709-3.487-0.185-4.575 c-0.595-0.725-1.563-1.053-3.16-1.123c-0.028-0.058-0.04-0.122-0.072-0.178c-0.653-1.138-1.833-1.453-2.16-1.52 c-0.322-0.089-1.664-0.401-4.635-0.401c-4.521,0-5.471,2.235-5.551,2.457L8.063,54.31c-1.085,0.911-1.967,2.139-2.505,3.693h-3.12 l5.34-14.374H65.18l5.341,14.374h-3.121C66.857,56.455,65.979,55.231,64.901,54.322z M69.755,64.346 c-0.569-1.495-1.145-3.024-1.63-4.344h2.834v4.344H69.755z"/></symbol><symbol id="retouch" viewBox="0 0 512 512"><title>retouch</title><path d="M464,72H48A40.045,40.045,0,0,0,8,112V320a40.045,40.045,0,0,0,40,40H197.754l-12,48H160a8,8,0,0,0-8,8v24a8,8,0,0,0,8,8H352a8,8,0,0,0,8-8V416a8,8,0,0,0-8-8H326.246l-12-48H464a40.045,40.045,0,0,0,40-40V112A40.045,40.045,0,0,0,464,72ZM24,112A24.027,24.027,0,0,1,48,88H464a24.027,24.027,0,0,1,24,24V296H216V248a40.074,40.074,0,0,0-30.009-38.737A54.956,54.956,0,0,0,192,184c0-26.468-17.944-48-40-48s-40,21.532-40,48a54.956,54.956,0,0,0,6.009,25.263A40.074,40.074,0,0,0,88,248v48H24ZM184,264a8,8,0,0,0-8,8v24H128V272a8,8,0,0,0-16,0v24h-8V248a24.028,24.028,0,0,1,24-24h1.922a34.465,34.465,0,0,0,44.156,0H176a24.028,24.028,0,0,1,24,24v48h-8V272A8,8,0,0,0,184,264Zm-17.719-54.3a8.092,8.092,0,0,0-1.021.955,19.12,19.12,0,0,1-26.52,0,8.092,8.092,0,0,0-1.021-.955C131.826,203.864,128,194.517,128,184c0-17.645,10.767-32,24-32s24,14.355,24,32C176,194.517,172.174,203.864,166.281,209.7ZM344,432H168v-8H344Zm-34.246-24H202.246l12-48h83.508ZM488,320a24.028,24.028,0,0,1-24,24H48a24.028,24.028,0,0,1-24-24v-8H488Z"/><path d="M96,320H56a8,8,0,0,0,0,16H96a8,8,0,0,0,0-16Z"/><path d="M128,320h-8a8,8,0,0,0,0,16h8a8,8,0,0,0,0-16Z"/><path d="M392,136H336a8.043,8.043,0,0,0-1.335.12,23.994,23.994,0,0,0-45.33,0A8.043,8.043,0,0,0,288,136H264a8,8,0,0,0,0,16h24a8.043,8.043,0,0,0,1.335-.12,23.994,23.994,0,0,0,45.33,0A8.043,8.043,0,0,0,336,152h56a8,8,0,0,0,0-16Zm-80,16a8,8,0,1,1,8-8A8.009,8.009,0,0,1,312,152Z"/><path d="M392,232H336a8.043,8.043,0,0,0-1.335.12,23.994,23.994,0,0,0-45.33,0A8.043,8.043,0,0,0,288,232H264a8,8,0,0,0,0,16h24a8.043,8.043,0,0,0,1.335-.12,23.994,23.994,0,0,0,45.33,0A8.043,8.043,0,0,0,336,248h56a8,8,0,0,0,0-16Zm-80,16a8,8,0,1,1,8-8A8.009,8.009,0,0,1,312,248Z"/><path d="M392,184H368a8.043,8.043,0,0,0-1.335.12,23.994,23.994,0,0,0-45.33,0A8.043,8.043,0,0,0,320,184H264a8,8,0,0,0,0,16h56a8.043,8.043,0,0,0,1.335-.12,23.994,23.994,0,0,0,45.33,0A8.043,8.043,0,0,0,368,200h24a8,8,0,0,0,0-16Zm-48,16a8,8,0,1,1,8-8A8.009,8.009,0,0,1,344,200Z"/><path d="M240,288H416a8,8,0,0,0,8-8V104a8,8,0,0,0-8-8H240a8,8,0,0,0-8,8V280A8,8,0,0,0,240,288Zm8-176H408V272H248Z"/></symbol><symbol id="approval" viewBox="0 0 512 512"><title>approval</title><path d="m241 296c2.56 0 5.118-.977 7.071-2.929l90-90c3.905-3.905 3.905-10.237 0-14.143-3.906-3.904-10.236-3.904-14.143 0l-82.928 82.929-52.929-52.929c-3.906-3.904-10.236-3.904-14.143 0-3.905 3.905-3.905 10.237 0 14.143l60 60c1.954 1.952 4.512 2.929 7.072 2.929z"/><path d="m156 382c0 5.522 4.478 10 10 10h180c5.522 0 10-4.478 10-10s-4.478-10-10-10h-180c-5.522 0-10 4.478-10 10z"/><path d="m356 442c0-5.522-4.478-10-10-10h-180c-5.522 0-10 4.478-10 10s4.478 10 10 10h180c5.522 0 10-4.478 10-10z"/><circle cx="256" cy="502" r="10"/><path d="m301 512h105c5.522 0 10-4.478 10-10v-402c0-5.522-4.478-10-10-10h-50v-20c0-5.522-4.478-10-10-10h-35.224c.148-1.656.224-3.323.224-5 0-30.327-24.673-55-55-55s-55 24.673-55 55c0 1.677.075 3.344.224 5h-35.224c-5.522 0-10 4.478-10 10v20h-50c-5.522 0-10 4.478-10 10v402c0 5.522 4.478 10 10 10h105c5.522 0 10-4.478 10-10s-4.478-10-10-10h-95v-382h40v20c0 5.522 4.478 10 10 10h180c5.522 0 10-4.478 10-10v-20h40v382h-95c-5.522 0-10 4.478-10 10s4.478 10 10 10zm35-392h-160v-40h37.56c6.88 0 11.734-6.818 9.428-13.335-1.319-3.727-1.988-7.652-1.988-11.665 0-19.299 15.701-35 35-35s35 15.701 35 35c0 4.013-.669 7.938-1.987 11.665-2.294 6.481 2.508 13.335 9.427 13.335h37.56z"/></symbol><symbol id="approval-1" viewBox="0 0 496 496"><title>approval-1</title><path d="m496 184c0-63.472656-49.558594-115.449219-112-119.59375v-64.40625h-384v432h336v24c0 22.054688 17.945312 40 40 40s40-17.945312 40-40v-120h-16v-34.414062c54.703125-11.152344 96-59.632813 96-117.585938zm-16 0c0 57.34375-46.65625 104-104 104s-104-46.65625-104-104 46.65625-104 104-104 104 46.65625 104 104zm-144 152v80h-320v-400h352v48.40625c-62.441406 4.144531-112 56.121094-112 119.59375 0 57.953125 41.296875 106.433594 96 117.585938v34.414062zm64 120c0 13.230469-10.769531 24-24 24s-24-10.769531-24-24v-104h48zm-16-120h-16v-32.40625c2.65625.175781 5.296875.40625 8 .40625s5.34375-.230469 8-.40625zm0 0"/><path d="m288 184c0 48.519531 39.480469 88 88 88s88-39.480469 88-88-39.480469-88-88-88-88 39.480469-88 88zm160 0c0 39.703125-32.304688 72-72 72s-72-32.296875-72-72 32.304688-72 72-72 72 32.296875 72 72zm0 0"/><path d="m384 456c0 4.417969-3.582031 8-8 8s-8-3.582031-8-8 3.582031-8 8-8 8 3.582031 8 8zm0 0"/><path d="m348.441406 201.34375-8.882812 13.3125 31.546875 21.023438 44.054687-88.105469-14.320312-7.148438-35.945313 71.894531zm0 0"/><path d="m143.382812 267.078125-14.765624-6.15625-11.28125 27.078125h-85.335938v112h128v-112h-25.335938zm.617188 36.921875v80h-96v-80h62.671875l-17.457031 41.894531-15.550782-15.550781-11.3125 11.3125 32.449219 32.449219 29.199219-70.105469zm0 0"/><path d="m143.382812 115.078125-14.765624-6.15625-11.28125 27.078125h-85.335938v112h128v-112h-25.335938zm.617188 36.921875v80h-96v-80h62.671875l-17.457031 41.894531-15.550782-15.550781-11.3125 11.3125 32.449219 32.449219 29.199219-70.105469zm0 0"/><path d="m224 64h16v16h-16zm0 0"/><path d="m32 64h176v16h-176zm0 0"/><path d="m176 288h96v16h-96zm0 0"/><path d="m176 320h96v16h-96zm0 0"/><path d="m176 352h96v16h-96zm0 0"/><path d="m176 384h96v16h-96zm0 0"/><path d="m176 136h64v16h-64zm0 0"/><path d="m176 168h64v16h-64zm0 0"/><path d="m176 200h64v16h-64zm0 0"/><path d="m176 232h64v16h-64zm0 0"/><path d="m32 32h208v16h-208zm0 0"/></symbol><symbol id="product" viewBox="-15 0 478 478"><title>product</title><path d="m0 115.820312v267.929688c-.03125 6.988281 2.738281 13.703125 7.695312 18.636719 4.953126 4.933593 11.675782 7.675781 18.667969 7.613281h126.257813l-14.167969 52h-28.800781c-4.417969 0-8 3.582031-8 8s3.582031 8 8 8h228.691406c4.417969 0 8-3.582031 8-8s-3.582031-8-8-8h-28.796875l-14.171875-52h126.261719c6.992187.0625 13.714843-2.679688 18.667969-7.613281 4.957031-4.933594 7.726562-11.648438 7.695312-18.636719v-267.929688c0-14.664062-11.699219-26.820312-26.363281-26.820312h-65.359375c-.351563-1.421875-1.011719-2.75-1.929688-3.890625l-73.902344-82.296875c-1.5-1.730469-3.65625-2.75-5.945312-2.8125h-147.21875c-19.675781 0-35.28125 16.449219-35.28125 36.121094v52.878906h-65.636719c-14.664062 0-26.363281 12.15625-26.363281 26.820312zm292.949219 346.179688h-137.902344l14.171875-52h109.558594zm128.6875-68h-395.273438c-2.75.066406-5.40625-.988281-7.359375-2.921875-1.957031-1.933594-3.039062-4.578125-3.003906-7.328125v-44.75h416v44.75c.035156 2.75-1.046875 5.394531-3.003906 7.328125-1.953125 1.933594-4.609375 2.988281-7.359375 2.921875zm-138.636719-364.707031 42.039062 47.707031h-36.699218c-3.21875 0-5.339844-3.050781-5.339844-6.269531zm149 86.527343v207.179688h-76v-218h65.636719c5.847656.132812 10.484375 4.976562 10.363281 10.820312zm-304.71875-99.820312h139.71875v54.730469c0 12.042969 9.300781 22.269531 21.34375 22.269531h51.097656l.5625.640625v229.359375h-232.003906v-286.878906c0-10.851563 8.429688-20.121094 19.28125-20.121094zm-35.28125 307h-76v-207.179688c-.121094-5.84375 4.515625-10.6875 10.363281-10.820312h65.636719zm0 0"/><path d="m148.339844 246.710938 73.308594 23.675781c.773437.253906 1.582031.382812 2.398437.382812.824219 0 1.644531-.128906 2.429687-.382812l73.191407-23.675781c3.257812-1.085938 5.421875-4.175782 5.332031-7.609376v-100.203124c.085938-3.433594-2.082031-6.523438-5.339844-7.613282l-73.308594-23.671875c-1.578124-.515625-3.277343-.515625-4.855468 0l-73.179688 23.671875c-3.253906 1.09375-5.414062 4.183594-5.316406 7.613282v100.203124c-.085938 3.433594 2.082031 6.523438 5.339844 7.609376zm10.660156-96.824219 56 18.191406v83.386719l-56-18.195313zm72 102.222656v-83.382813l58-18.839843v83.382812zm-7-128.476563 47.34375 15.265626-47.34375 15.273437-47.34375-15.273437zm0 0"/></symbol><symbol id="relationship" viewBox="0 0 512 512"><title>relationship</title><path d="m483.086 96.334c2.417-6.776 3.745-14.065 3.745-21.661 0-35.662-29.003-64.676-64.652-64.676-25.307 0-48.141 14.941-58.63 37.354-5.294-1.246-10.805-1.926-16.476-1.926-5.676 0-11.193.681-16.493 1.929-10.468-22.414-33.293-37.356-58.613-37.356-35.665 0-64.681 29.013-64.681 64.676 0 7.602 1.33 14.898 3.753 21.678-18.471 17.022-28.921 40.63-28.921 65.889v30.986c0 19.351 15.758 35.094 35.127 35.094h29.344v23.409c0 21.2 17.249 38.448 38.451 38.448h124.039c21.202 0 38.451-17.248 38.451-38.448v-23.409h29.374c19.353 0 35.097-15.743 35.097-35.094v-30.987c-.001-25.278-10.448-48.893-28.915-65.906zm-60.907-66.195c24.543 0 44.51 19.978 44.51 44.534 0 24.54-19.967 44.505-44.51 44.505-1.075 0-2.148-.046-3.216-.122.013-.568.043-1.132.043-1.704 0-26.843-14.792-50.282-36.643-62.64 7.454-14.791 22.823-24.573 39.816-24.573zm-75.106 35.428c28.558 0 51.791 23.231 51.791 51.785 0 28.57-23.233 51.815-51.791 51.815-28.574 0-51.82-23.244-51.82-51.815 0-28.554 23.246-51.785 51.82-51.785zm-75.106-35.428c17.003 0 32.367 9.783 39.799 24.575-21.859 12.358-36.655 35.796-36.655 62.638 0 .572.03 1.136.043 1.705-1.06.075-2.123.121-3.187.121-24.559 0-44.539-19.965-44.539-44.505 0-24.556 19.98-44.534 44.539-44.534zm-24.767 175.379c-.041.364-.074.743-.111 1.114-.047.471-.099.94-.139 1.412-.004.046-.009.089-.013.136h-29.694c-8.262 0-14.984-6.708-14.984-14.953v-30.987c0-17.902 6.793-34.742 18.924-47.601 11.855 15.014 30.205 24.68 50.783 24.68 2.162 0 4.324-.11 6.476-.324.354 1.123.736 2.233 1.144 3.332-18.306 16.577-29.713 38.887-32.386 63.191zm180.186 12.732v33.479c0 10.094-8.212 18.307-18.308 18.307h-124.04c-10.096 0-18.308-8.212-18.308-18.307v-33.479-1.634c0-21.172 8.229-41.048 22.885-55.996 13.147 17.412 34.008 28.689 57.458 28.689 23.443 0 44.299-11.28 57.439-28.696 14.649 14.955 22.873 34.833 22.873 56.003v1.634zm64.471-25.024c0 8.245-6.708 14.953-14.955 14.953h-29.728c-2.107-25.333-13.672-48.671-32.641-65.858.408-1.096.788-2.205 1.142-3.326 2.156.214 4.327.325 6.503.325 20.573 0 38.919-9.67 50.768-24.691 12.123 12.852 18.911 29.695 18.911 47.611z"/><path d="m425.852 352.479-95.226 25.791h-40.552c4.943-7.622 7.304-16.632 7.304-25.612 0-22.062-14.089-45.875-36.849-45.875h-151.013c-1.873-19.156-18.679-34.197-39.074-34.197h-31.189c-21.644 0-39.253 16.94-39.253 37.761v153.895c0 20.821 17.609 37.76 39.253 37.76h31.189c20.043 0 36.615-14.53 38.958-33.213l68.219 25.504c13.787 5.836 21.408 6.419 36.642 6.419h1.262c5.562 0 10.071-4.509 10.071-10.071s-4.509-10.071-10.071-10.071h-1.262c-13.911 0-18.574-.482-28.968-4.901-.137-.058-.274-.113-.414-.165l-75.183-28.108v-120.471h150.834c9.562 0 16.706 13.586 16.706 25.734 0 7.056-2.23 13.327-6.279 17.658-4.935 5.278-12.581 7.954-22.726 7.954h-55.929c-5.562 0-10.071 4.509-10.071 10.071s4.509 10.071 10.071 10.071h139.663c.889 0 1.775-.118 2.633-.35l96.521-26.142c24.478-6.634 39.28-.018 43.085 9.485 3.014 7.525-.244 18.538-14.316 26.176l-97.296 52.799c-31.518 17.112-42.175 21.082-54.306 20.217-.237-.017-.476-.025-.715-.025h-1.233c-5.562 0-10.071 4.509-10.071 10.071s4.509 10.071 10.071 10.071h.889c1.369.09 2.718.136 4.061.136 15.973 0 30.911-6.478 60.912-22.766l97.295-52.799c21.271-11.545 30.896-32.668 23.407-51.367-6.6-16.485-28.123-31.988-67.05-21.44zm-336.299 111.763c0 9.715-8.573 17.618-19.111 17.618h-31.189c-10.538 0-19.111-7.904-19.111-17.618v-153.895c0-9.715 8.573-17.619 19.111-17.619h31.189c10.538 0 19.111 7.904 19.111 17.619z"/><path d="m260.93 480.571h-.057c-5.562 0-10.043 4.509-10.043 10.071s4.538 10.071 10.1 10.071 10.071-4.509 10.071-10.071c.001-5.562-4.509-10.071-10.071-10.071z"/></symbol><symbol id="transparency" viewBox="0 0 481 481.7867"><title>transparency</title><path d="m264.046875 165.386719c-48-52.800781-128.800781-56-180.800781-8.800781-2.398438 2.402343-5.597656 4.800781-8 8l-3.199219 5.601562 4 4.800781.800781.796875c47.199219 52 128 55.203125 180 8 2.398438-2.398437 5.597656-4.796875 8-8l4-5.597656zm-110.398437 4.800781c0-8.800781 7.199218-16 16-16 8.796874 0 16 7.199219 16 16s-7.203126 16-16 16c-8.800782 0-16-7.199219-16-16zm5.597656-30.402344c-16.800782 5.601563-25.597656 23.203125-20.800782 40 3.203126 9.601563 10.402344 17.601563 20.800782 20.800782-24.800782-2.398438-48.800782-12.800782-67.199219-30.398438 19.199219-17.601562 42.398437-28 67.199219-30.402344zm20.800781 60.800782c16.800781-5.597657 25.601563-23.199219 20.800781-40-3.199218-9.597657-10.402344-17.597657-20.800781-20.800782 24.800781 2.402344 48.800781 12.800782 67.199219 30.402344-19.199219 17.597656-42.398438 28-67.199219 30.398438zm0 0"/><path d="m169.648438 34.1875c-75.203126 0-136 60.800781-136 136s60.796874 136 136 136c75.199218 0 136-60.800781 136-136s-60.800782-136-136-136zm0 256c-66.402344 0-120-53.601562-120-120 0-66.402344 53.597656-120 120-120 66.398437 0 120 53.597656 120 120 0 66.398438-53.601563 120-120 120zm0 0"/><path d="m441.648438 346.1875v-264c0-22.402344-17.601563-40-40-40h-88v16h88c13.597656 0 24 10.398438 24 24v264zm0 0"/><path d="m41.648438 322.1875v80c0 22.398438 17.597656 40 40 40h280v-16h-280c-13.601563 0-24-10.402344-24-24v-80zm0 0"/><path d="m337.648438 82.1875h72v16h-72zm0 0"/><path d="m353.648438 122.1875h56v16h-56zm0 0"/><path d="m353.648438 162.1875h56v16h-56zm0 0"/><path d="m353.648438 202.1875h56v16h-56zm0 0"/><path d="m353.648438 242.1875h56v16h-56zm0 0"/><path d="m361.648438 282.1875h48v16h-48zm0 0"/><path d="m73.648438 354.1875h216v16h-216zm0 0"/><path d="m73.648438 386.1875h248v16h-248zm0 0"/><path d="m113.648438 234.1875h112v16h-112zm0 0"/><path d="m113.648438 90.1875h112v16h-112zm0 0"/><path d="m388.046875 337.386719c-4.800781-4.800781-10.398437-7.199219-16.800781-7.199219h-5.597656l-57.601563-64.800781c52.800781-76.800781 34.398437-181.601563-42.398437-235.199219-76.800782-53.601562-182.402344-33.601562-235.203126 42.398438-52.796874 76-34.398437 181.601562 42.402344 235.199218 60.800782 42.402344 142.398438 40 200.800782-6.398437l56 63.199219v6.402343c0 6.398438 2.398437 12.796875 7.199218 16.796875l83.199219 83.203125c14.398437 14.398438 36.800781 14.398438 51.199219 0 14.402344-14.402343 14.402344-36.800781 0-51.203125zm-370.398437-167.199219c0-84 68-152 152-152s152 68 152 152-68 152-152 152-152-68-152-152zm268 121.597656c4-4 8.796874-8.796875 12-12.796875l52.796874 59.199219-12.796874 12zm160 174.402344c-5.601563 0-10.402344-2.402344-14.402344-5.601562l-83.199219-83.199219c-1.601563-1.601563-2.398437-3.199219-2.398437-5.601563v-6.398437l19.199218-19.199219h6.398438c2.402344 0 4 .800781 5.601562 2.398438l83.199219 83.199218c8 8 8 20.800782 0 28.800782-4 3.199218-9.601563 5.601562-14.398437 5.601562zm0 0"/></symbol></svg>