<svg width="25" height="25" viewBox="0 0 25 25" fill="none" xmlns="http://www.w3.org/2000/svg">
<path d="M0 21.7765C0 23.5569 1.44326 25 3.22354 25H21.7764C23.5569 25 25 23.5567 25 21.7765V3.22363C25 1.44307 23.5567 0 21.7765 0H3.22363C1.44307 0 0 1.44326 0 3.22354V21.7764V21.7765Z" fill="#563D7C"/>
<path d="M10.367 11.0584V7.51807H13.4833C13.7802 7.51807 14.0663 7.54277 14.3419 7.59229C14.6175 7.6417 14.8613 7.72998 15.0734 7.85723C15.2853 7.98447 15.4549 8.16113 15.5822 8.38721C15.7093 8.61338 15.773 8.90313 15.773 9.25635C15.773 9.89238 15.5822 10.3518 15.2005 10.6344C14.819 10.9171 14.3314 11.0584 13.7377 11.0584H10.367ZM7.03857 4.93164V20.0684H14.3737C15.0522 20.0684 15.7129 19.9836 16.356 19.814C16.999 19.6443 17.5714 19.3829 18.0732 19.0296C18.5748 18.6763 18.9742 18.2204 19.2709 17.6622C19.5678 17.1039 19.7161 16.4432 19.7161 15.68C19.7161 14.733 19.4865 13.9239 19.0272 13.2526C18.5678 12.5813 17.8717 12.1113 16.9389 11.8428C17.6173 11.5178 18.1297 11.1008 18.476 10.592C18.8222 10.0832 18.9953 9.44727 18.9953 8.68398C18.9953 7.97734 18.8787 7.38379 18.6455 6.90322C18.4123 6.42275 18.0837 6.0376 17.6597 5.74785C17.2358 5.45811 16.727 5.24961 16.1333 5.12246C15.5398 4.99521 14.8825 4.93164 14.1617 4.93164H7.03857ZM10.367 17.4819V13.3268H13.9921C14.7129 13.3268 15.2924 13.4928 15.7306 13.825C16.1687 14.1571 16.3878 14.7118 16.3878 15.4892C16.3878 15.885 16.3206 16.21 16.1864 16.4644C16.0521 16.7188 15.8719 16.9202 15.6457 17.0686C15.4197 17.217 15.1581 17.3229 14.8613 17.3866C14.5645 17.4501 14.2536 17.4819 13.9285 17.4819H10.367Z" fill="white"/>
</svg>
