<svg width="26" height="8" viewBox="0 0 26 8" fill="none" xmlns="http://www.w3.org/2000/svg">
<path d="M1.00461 6.21333V3.43105H4.47844V3.26831H1.00461V0.730078H4.69807V0.567383H0.841919V6.37603H4.73059V6.21333H1.00466H1.00461ZM7.86277 2.19443L6.42283 4.08999L5.01536 2.19448H4.80383L6.32517 4.21206L4.65735 6.37598H4.85261L6.42273 4.33398L8.001 6.37598H8.20437L6.52849 4.21196L8.05793 2.19438H7.86272L7.86277 2.19443ZM8.69255 7.80786V5.20459H8.70881C8.80647 5.58423 8.999 5.88931 9.28645 6.11982C9.5739 6.35029 9.93997 6.46558 10.3847 6.46558C10.6721 6.46558 10.9271 6.40728 11.1494 6.29067C11.3718 6.17407 11.5575 6.01543 11.7067 5.81475C11.8558 5.61406 11.9698 5.38086 12.0484 5.11509C12.127 4.84937 12.1664 4.57002 12.1664 4.2772C12.1664 3.9626 12.1257 3.67241 12.0443 3.40669C11.963 3.14092 11.845 2.9104 11.6905 2.71519C11.5359 2.51992 11.3488 2.36802 11.1291 2.25962C10.9094 2.15112 10.6613 2.09687 10.3847 2.09687C10.1732 2.09687 9.97659 2.12808 9.7949 2.19043C9.61321 2.25283 9.45188 2.34092 9.31086 2.45483C9.16902 2.56963 9.04556 2.70542 8.94475 2.85752C8.84172 3.01211 8.76306 3.18159 8.70881 3.36602H8.69255V2.19443H8.52986V7.80786H8.69255ZM10.3847 6.31094C9.87493 6.31094 9.46541 6.13604 9.15627 5.78623C8.84714 5.43643 8.69255 4.93335 8.69255 4.2771C8.69255 4.00591 8.73054 3.74829 8.80647 3.50425C8.8824 3.26021 8.99221 3.04595 9.13591 2.86157C9.27966 2.67715 9.4573 2.53071 9.66877 2.42227C9.8803 2.31377 10.119 2.25952 10.3847 2.25952C10.6559 2.25952 10.8932 2.31377 11.0966 2.42227C11.2999 2.53071 11.4681 2.67852 11.601 2.86563C11.7338 3.05273 11.8342 3.26699 11.902 3.5083C11.9698 3.74966 12.0036 4.00591 12.0036 4.2771C12.0036 4.52119 11.9725 4.76392 11.9101 5.00522C11.8477 5.24658 11.7514 5.46353 11.6213 5.6561C11.4911 5.84858 11.3244 6.00586 11.121 6.12793C10.9176 6.24995 10.6721 6.31094 10.3847 6.31094ZM13.0613 6.37603V4.00864C13.0613 3.78086 13.0938 3.55845 13.1589 3.34155C13.224 3.12461 13.3243 2.9334 13.4599 2.76802C13.5955 2.60259 13.7677 2.47241 13.9765 2.37749C14.1853 2.28257 14.4334 2.24326 14.7209 2.25952V2.09683C14.4714 2.09146 14.2531 2.11851 14.066 2.17817C13.8788 2.23784 13.7175 2.31919 13.5819 2.42227C13.4463 2.52529 13.3379 2.64595 13.2565 2.78428C13.1752 2.92239 13.1149 3.0718 13.0775 3.22764H13.0613V2.19443H12.8986V6.37607H13.0613V6.37603ZM14.9242 4.31777H18.4224C18.4333 4.03032 18.4049 3.75376 18.337 3.48799C18.2693 3.22222 18.1608 2.98628 18.0116 2.78022C17.8625 2.57412 17.6699 2.40869 17.434 2.28394C17.1981 2.15918 16.9174 2.09683 16.592 2.09683C16.3588 2.09683 16.131 2.14565 15.9086 2.24331C15.6863 2.34092 15.491 2.48325 15.3229 2.67036C15.1548 2.85747 15.0192 3.08662 14.9161 3.35786C14.8131 3.629 14.7615 3.93813 14.7615 4.28525C14.7615 4.59438 14.7968 4.8832 14.8673 5.15166C14.9378 5.42012 15.0463 5.65337 15.1927 5.85132C15.3392 6.04927 15.5277 6.20249 15.7581 6.31094C15.9886 6.41943 16.2666 6.47095 16.592 6.46553C17.0693 6.46553 17.4706 6.33125 17.796 6.06284C18.1215 5.79434 18.314 5.41606 18.3737 4.92793H18.211C18.1405 5.38897 17.9601 5.73472 17.6699 5.96519C17.3798 6.1957 17.0151 6.31094 16.5757 6.31094C16.2774 6.31094 16.0252 6.25942 15.8191 6.1564C15.6131 6.05337 15.4449 5.9123 15.3147 5.73335C15.1846 5.55435 15.0883 5.34419 15.026 5.10283C14.9636 4.86152 14.9297 4.5998 14.9242 4.31777ZM18.2597 4.15508H14.9243C14.9405 3.86221 14.9948 3.59917 15.0869 3.36597C15.1792 3.13271 15.2998 2.9334 15.449 2.76802C15.5981 2.60259 15.7717 2.47651 15.9697 2.3897C16.1676 2.30293 16.3805 2.25952 16.6083 2.25952C16.8795 2.25952 17.118 2.30972 17.3242 2.41006C17.5302 2.5104 17.7025 2.64736 17.8408 2.8209C17.9791 2.99443 18.0835 3.19648 18.154 3.42695C18.2245 3.65747 18.2597 3.9002 18.2597 4.15508ZM21.7987 3.43105H21.9614C21.9614 2.9646 21.8258 2.62563 21.5546 2.41411C21.2834 2.20259 20.9146 2.09683 20.4482 2.09683C20.1878 2.09683 19.9682 2.12939 19.7892 2.19448C19.6102 2.25952 19.4638 2.3436 19.3499 2.44663C19.236 2.54966 19.1547 2.66357 19.1058 2.78833C19.057 2.91309 19.0326 3.03242 19.0326 3.14629C19.0326 3.37407 19.0733 3.55576 19.1547 3.69136C19.236 3.82695 19.3635 3.93271 19.537 4.00864C19.6563 4.06284 19.7919 4.11167 19.9438 4.15513C20.0956 4.19849 20.2719 4.24458 20.4726 4.29336C20.6515 4.33682 20.8278 4.38018 21.0014 4.42354C21.1749 4.46694 21.3281 4.52524 21.461 4.59844C21.5939 4.67168 21.7024 4.76523 21.7864 4.87915C21.8705 4.99302 21.9125 5.14219 21.9125 5.32656C21.9125 5.50557 21.8705 5.65742 21.7864 5.78213C21.7031 5.90623 21.5934 6.01042 21.4651 6.08726C21.3349 6.16587 21.1898 6.2228 21.0299 6.25806C20.8698 6.29331 20.7139 6.31094 20.5621 6.31094C20.0685 6.31094 19.6902 6.20112 19.4272 5.98149C19.1641 5.76182 19.0326 5.41606 19.0326 4.94419H18.8699C18.8699 5.47031 19.0123 5.85537 19.297 6.09946C19.5818 6.34351 20.0034 6.46553 20.5621 6.46553C20.741 6.46553 20.9214 6.44517 21.1031 6.40449C21.2847 6.36382 21.4475 6.29741 21.5912 6.20518C21.7337 6.11425 21.8533 5.99179 21.941 5.84727C22.0305 5.70078 22.0753 5.52183 22.0753 5.3103C22.0753 5.10962 22.0359 4.94692 21.9573 4.82217C21.8786 4.69746 21.7756 4.59438 21.6481 4.51304C21.5207 4.43169 21.377 4.36797 21.217 4.32187C21.0561 4.27551 20.8947 4.23075 20.7329 4.1876C20.5338 4.13535 20.3344 4.08384 20.1349 4.03306C19.9641 3.98965 19.8055 3.93813 19.6591 3.87847C19.518 3.8188 19.4055 3.7334 19.3214 3.62222C19.2373 3.51104 19.1953 3.35239 19.1953 3.14629C19.1953 3.10835 19.2062 3.04053 19.2279 2.94292C19.2495 2.84526 19.3011 2.74629 19.3824 2.64595C19.4638 2.54565 19.5885 2.45615 19.7567 2.37749C19.9248 2.29888 20.1553 2.25952 20.4482 2.25952C20.6489 2.25952 20.8319 2.28125 20.9973 2.32461C21.1627 2.36802 21.3051 2.43716 21.4244 2.53208C21.5437 2.627 21.6359 2.74766 21.701 2.89409C21.7661 3.04058 21.7987 3.21953 21.7987 3.43105ZM25.5653 3.43105H25.728C25.728 2.9646 25.5925 2.62563 25.3213 2.41411C25.0501 2.20259 24.6813 2.09683 24.2148 2.09683C23.9545 2.09683 23.7348 2.12939 23.5559 2.19448C23.3769 2.25952 23.2304 2.3436 23.1166 2.44663C23.0027 2.54966 22.9213 2.66357 22.8725 2.78833C22.8237 2.91309 22.7993 3.03242 22.7993 3.14629C22.7993 3.37407 22.84 3.55576 22.9214 3.69136C23.0027 3.82695 23.1302 3.93271 23.3037 4.00864C23.423 4.06284 23.5586 4.11167 23.7104 4.15513C23.8623 4.19849 24.0385 4.24458 24.2392 4.29336C24.4182 4.33682 24.5945 4.38018 24.768 4.42354C24.9416 4.46694 25.0948 4.52524 25.2277 4.59844C25.3606 4.67168 25.4691 4.76523 25.5531 4.87915C25.6372 4.99302 25.6792 5.14219 25.6792 5.32656C25.6792 5.50557 25.6372 5.65742 25.5531 5.78213C25.4697 5.90623 25.36 6.01041 25.2318 6.08726C25.1016 6.16587 24.9565 6.2228 24.7965 6.25806C24.6365 6.29331 24.4806 6.31094 24.3287 6.31094C23.8352 6.31094 23.4569 6.20112 23.1939 5.98149C22.9308 5.76182 22.7993 5.41606 22.7993 4.94419H22.6366C22.6366 5.47031 22.7789 5.85537 23.0637 6.09946C23.3484 6.34351 23.7701 6.46553 24.3287 6.46553C24.5077 6.46553 24.6881 6.44517 24.8698 6.40449C25.0514 6.36382 25.2141 6.29741 25.3579 6.20518C25.5004 6.11425 25.62 5.99179 25.7077 5.84727C25.7972 5.70078 25.8419 5.52183 25.8419 5.3103C25.8419 5.10962 25.8026 4.94692 25.724 4.82217C25.6453 4.69746 25.5423 4.59438 25.4148 4.51304C25.2874 4.43169 25.1436 4.36797 24.9837 4.32187C24.8228 4.27551 24.6614 4.23075 24.4996 4.1876C24.3005 4.13535 24.1011 4.08384 23.9016 4.03306C23.7308 3.98965 23.5721 3.93813 23.4257 3.87847C23.2847 3.8188 23.1721 3.7334 23.0881 3.62222C23.004 3.51104 22.962 3.35239 22.962 3.14629C22.962 3.10835 22.9728 3.04053 22.9946 2.94292C23.0162 2.84526 23.0678 2.74629 23.1491 2.64595C23.2304 2.54565 23.3552 2.45615 23.5233 2.37749C23.6915 2.29888 23.9219 2.25952 24.2149 2.25952C24.4156 2.25952 24.5986 2.28125 24.764 2.32461C24.9294 2.36802 25.0718 2.43716 25.1911 2.53208C25.3104 2.627 25.4026 2.74766 25.4677 2.89409C25.5328 3.04058 25.5654 3.21953 25.5654 3.43105H25.5653Z" fill="#222222"/>
</svg>
