<svg width="26" height="26" viewBox="0 0 26 26" fill="none" xmlns="http://www.w3.org/2000/svg">
<path fill-rule="evenodd" clip-rule="evenodd" d="M24.6832 18.9121L24.5713 19.2021C22.6646 22.9154 19.2856 25.1935 14.4661 25.294C12.2131 25.3405 10.0664 24.7623 8.66402 24.1338C5.63772 22.774 3.09214 20.2524 1.70202 17.5582C-0.292135 13.6959 -0.651772 8.32336 3.49464 4.31055C3.55866 4.31055 2.99165 5.18069 3.05567 5.18069L2.94154 5.55202C-0.046345 14.9065 9.15922 22.9232 18.1079 22.0063C20.2584 21.7859 23.0008 20.6081 24.6832 18.9121Z" fill="#21609B"/>
<path fill-rule="evenodd" clip-rule="evenodd" d="M19.2681 15.044C21.5195 15.0593 23.871 14.0071 25.2637 12.5299C24.0453 15.6225 20.5177 17.6102 15.7873 16.9781C11.8262 16.4481 8.05311 12.4623 7.66452 8.46838C7.38032 5.56177 8.39326 3.82704 10.0626 1.72266C9.48247 2.82328 9.26563 3.672 9.21163 4.2134C8.57753 10.501 14.2343 15.0109 19.2681 15.044Z" fill="#21609B"/>
<path fill-rule="evenodd" clip-rule="evenodd" d="M25.0376 7.23438C24.6877 8.03716 22.6727 9.5531 21.7827 9.74266C18.259 10.4934 16.0024 8.82241 14.8202 6.92095C14.6445 6.63702 14.3197 5.86152 14.2615 5.66416C13.8031 4.10536 14.0138 1.74767 15.3814 0.527344C14.9694 1.68782 14.9093 3.03563 15.1261 3.9119C15.2575 4.44161 15.6578 5.3666 16.0583 5.94837C16.7871 7.00807 17.2494 7.26556 18.1855 7.8284C18.6072 8.0817 19.0596 8.2849 19.255 8.34057C20.1427 8.60195 22.0168 9.29033 25.0379 7.23438" fill="#21609B"/>
</svg>
