<svg width="25" height="11" viewBox="0 0 25 11" fill="none" xmlns="http://www.w3.org/2000/svg">
<path d="M23.4584 8.64292C23.4584 9.76928 22.5125 10.6908 21.3564 10.6908H3.68844C2.53233 10.6908 1.58643 9.76928 1.58643 8.64292V2.12113C1.58643 0.994866 2.53233 0.0732422 3.68844 0.0732422H21.3564C22.5125 0.0732422 23.4584 0.994866 23.4584 2.12113V8.64292Z" fill="url(#paint0_linear)"/>
<mask id="mask0" mask-type="alpha" maskUnits="userSpaceOnUse" x="0" y="0" width="25" height="11">
<path d="M0.00842285 0.0478516H24.9975V10.7138H0.00842285" fill="white"/>
</mask>
<g mask="url(#mask0)">
<path fill-rule="evenodd" clip-rule="evenodd" d="M23.9304 3.93753C23.9304 3.13912 24.0535 2.66827 24.0535 1.8085C24.0535 0.477787 23.561 0.0478516 22.4734 0.0478516H21.6731V0.98954H21.9193C22.4734 0.98954 22.5965 1.17383 22.5965 1.84941C22.5965 2.48399 22.5349 3.11866 22.5349 3.85571C22.5349 4.7974 22.8427 5.16587 23.4583 5.30915V5.37061C22.8427 5.51389 22.5349 5.88246 22.5349 6.82415C22.5349 7.5611 22.5965 8.15486 22.5965 8.83045C22.5965 9.52649 22.4529 9.71068 21.9193 9.71068V9.73113H21.6731V10.7138H22.4734C23.561 10.7138 24.0535 10.2839 24.0535 8.95327C24.0535 8.07295 23.9304 7.62256 23.9304 6.82415C23.9304 6.39422 24.1972 5.94383 24.9975 5.90292V4.83831C24.1972 4.81785 23.9304 4.36746 23.9304 3.93753ZM14.8395 5.18633C14.2033 4.94068 13.6287 4.7974 13.6287 4.38792C13.6287 4.0809 13.875 3.89662 14.3264 3.89662C14.7779 3.89662 15.1884 4.0809 15.6398 4.40847L16.4607 3.3234C15.9476 2.93447 15.2499 2.52499 14.3059 2.52499C12.9105 2.52499 11.9665 3.3234 11.9665 4.44938C11.9665 5.45253 12.8489 5.96428 13.5877 6.25094C14.2238 6.49659 14.8395 6.70133 14.8395 7.11071C14.8395 7.41782 14.5932 7.62256 14.0392 7.62256C13.5261 7.62256 13.0131 7.41782 12.459 6.98788L11.6587 8.17532C12.2743 8.68707 13.2183 9.03509 13.9981 9.03509C15.6398 9.03509 16.5222 8.17532 16.5222 7.04934C16.5222 5.92337 15.6398 5.45253 14.8395 5.18633ZM19.8056 5.18633C19.19 4.94068 18.6154 4.7974 18.6154 4.38792C18.6154 4.0809 18.8616 3.89662 19.3131 3.89662C19.7646 3.89662 20.175 4.0809 20.6265 4.40847L21.4473 3.3234C20.9342 2.93447 20.2365 2.52499 19.2926 2.52499C17.8971 2.52499 16.9531 3.3234 16.9531 4.44938C16.9531 5.45253 17.8356 5.96428 18.5743 6.25094C19.2105 6.49659 19.8261 6.70133 19.8261 7.11071C19.8261 7.41782 19.5798 7.62256 19.0258 7.62256C18.5128 7.62256 17.9997 7.41782 17.4457 6.98788L16.6248 8.17532C17.2405 8.68707 18.1844 9.03509 18.9642 9.03509C20.6059 9.03509 21.4883 8.17532 21.4883 7.04934C21.4883 5.92337 20.6059 5.45253 19.8056 5.18633ZM7.61598 5.08396C7.7391 4.26509 8.23158 3.87616 8.80617 3.87616C9.54498 3.87616 9.83233 4.38792 9.83233 5.08396H7.61598ZM11.3919 5.45253C11.4124 3.79425 10.5094 2.50454 8.78567 2.50454C7.28763 2.50454 5.85121 3.75334 5.89221 5.71863C5.89221 7.74538 7.22612 8.93272 8.9909 8.93272C9.72971 8.93272 10.5505 8.66662 11.1866 8.23668L10.571 7.15171C10.1196 7.41782 9.6886 7.54064 9.23713 7.54064C8.41631 7.54064 7.78011 7.15171 7.61598 6.20993H11.3304C11.3509 6.06665 11.3919 5.78009 11.3919 5.45253Z" fill="#FAF9F8"/>
<path fill-rule="evenodd" clip-rule="evenodd" d="M5.78969 7.49973C5.64607 7.49973 5.46134 7.37691 5.46134 6.98788V0.0478516H2.54728C1.43921 0.0478516 0.946634 0.477787 0.946634 1.8085C0.946634 2.68873 1.06975 3.18012 1.06975 3.93753C1.06975 4.36746 0.803011 4.81785 0.00268555 4.85876V5.92337C0.803011 5.94383 1.06975 6.39421 1.06975 6.82415C1.06975 7.58165 0.946634 8.03194 0.946634 8.91227C0.946634 10.243 1.43921 10.6729 2.52678 10.6729H3.32711V9.73113H3.08087C2.56789 9.73113 2.40366 9.52649 2.40366 8.8509C2.40366 8.17532 2.46527 7.6021 2.46527 6.8446C2.46527 5.90292 2.15742 5.53434 1.54173 5.39107V5.3297C2.15742 5.18633 2.46527 4.81785 2.46527 3.87616C2.46527 3.13912 2.40366 2.54545 2.40366 1.86986C2.40366 1.19428 2.54728 1.01009 3.08087 1.01009H3.63495V6.88551C3.63495 8.13431 4.06592 8.95327 5.31772 8.95327C5.70758 8.95327 6.01543 8.89181 6.24116 8.8099L6.03593 7.47928C5.91281 7.49973 5.8513 7.49973 5.78969 7.49973Z" fill="#FAF9F8"/>
</g>
<defs>
<linearGradient id="paint0_linear" x1="12.5224" y1="0.0732422" x2="12.5224" y2="10.6908" gradientUnits="userSpaceOnUse">
<stop stop-color="#2E4F82"/>
<stop offset="1" stop-color="#182E4D"/>
</linearGradient>
</defs>
</svg>
