<svg width="12" height="25" viewBox="0 0 12 25" fill="none" xmlns="http://www.w3.org/2000/svg">
<g clip-path="url(#clip0)">
<path d="M6.16805 24.9812L5.49662 24.7573C5.49662 24.7573 5.57122 21.3618 4.35892 21.1193C3.55694 20.1864 4.48948 -18.7875 7.399 20.9887C7.399 20.9887 6.39186 21.4924 6.224 22.3506C6.03749 23.1902 6.16805 24.9812 6.16805 24.9812Z" fill="white"/>
<path d="M6.16805 24.9812L5.49662 24.7573C5.49662 24.7573 5.57122 21.3618 4.35892 21.1193C3.55694 20.1864 4.48948 -18.7875 7.399 20.9887C7.399 20.9887 6.39186 21.4924 6.224 22.3506C6.03749 23.1902 6.16805 24.9812 6.16805 24.9812Z" fill="#A6A385"/>
<path d="M6.5225 21.6975C6.5225 21.6975 12.3415 17.8728 10.98 9.90641C9.67448 4.12283 6.5598 2.21984 6.22409 1.49223C5.85107 0.969842 5.4967 0.0556641 5.4967 0.0556641L5.73916 16.1564C5.75782 16.1937 5.25424 21.1005 6.5225 21.6975Z" fill="white"/>
<path d="M6.5225 21.6975C6.5225 21.6975 12.3415 17.8728 10.98 9.90641C9.67448 4.12283 6.5598 2.21984 6.22409 1.49223C5.85107 0.969842 5.4967 0.0556641 5.4967 0.0556641L5.73916 16.1564C5.75782 16.1937 5.25424 21.1005 6.5225 21.6975Z" fill="#499D4A"/>
<path d="M5.1609 21.9216C5.1609 21.9216 -0.303782 18.1903 0.0132822 11.6231C0.330347 5.05597 4.17241 1.82836 4.91844 1.23134C5.42201 0.708955 5.44066 0.522388 5.47796 0C5.81368 0.727612 5.75772 10.9142 5.79503 12.1269C5.94423 16.7351 5.53391 21.0448 5.1609 21.9216Z" fill="white"/>
<path d="M5.1609 21.9216C5.1609 21.9216 -0.303782 18.1903 0.0132822 11.6231C0.330347 5.05597 4.17241 1.82836 4.91844 1.23134C5.42201 0.708955 5.44066 0.522388 5.47796 0C5.81368 0.727612 5.75772 10.9142 5.79503 12.1269C5.94423 16.7351 5.53391 21.0448 5.1609 21.9216Z" fill="#58AA50"/>
</g>
<defs>
<clipPath id="clip0">
<rect width="11.1905" height="25" fill="white"/>
</clipPath>
</defs>
</svg>
