<svg width="25" height="14" viewBox="0 0 25 14" fill="none" xmlns="http://www.w3.org/2000/svg">
<g clip-path="url(#clip0)">
<path d="M0.235352 11.946H1.03823V8.72509L2.29792 11.5259C2.43635 11.862 2.64399 11.988 3.04543 11.988C3.44687 11.988 3.62682 11.862 3.77909 11.5259L5.02494 8.72509V11.946H5.82782V8.72509C5.82782 8.417 5.70324 8.26295 5.44022 8.17893C4.83114 7.99688 4.41586 8.15092 4.23591 8.57104L3.01774 11.3438L1.82727 8.57104C1.64731 8.15092 1.23203 7.99688 0.622948 8.17893C0.359936 8.26295 0.235352 8.40299 0.235352 8.72509V11.946Z" fill="#00678F"/>
<path d="M6.49231 9.3265H7.29519V11.091C7.29519 11.189 7.32287 11.4131 7.76584 11.4271C8.00117 11.4271 9.51003 11.4271 9.52387 11.4271V9.3125H10.3268C10.3268 9.3125 10.3268 12.1973 10.3268 12.2113C10.3268 12.9255 9.45466 13.0796 9.05322 13.0796H6.51999V12.5334H9.06706C9.57924 12.4774 9.52387 12.2113 9.52387 12.1273V11.9173H7.80737C7.00449 11.9173 6.49231 11.5531 6.49231 11.147C6.49231 11.105 6.52 9.34051 6.49231 9.3265Z" fill="#00678F"/>
<path d="M23.851 7.2686C23.3527 7.25459 22.9789 7.31061 22.6467 7.43665C22.5498 7.47866 22.4114 7.47866 22.3975 7.59069C22.4529 7.64671 22.4529 7.71673 22.4944 7.78675C22.5636 7.91278 22.7021 8.08083 22.8128 8.16486C22.9374 8.26288 23.0758 8.36091 23.2142 8.45894C23.4496 8.61299 23.7264 8.69701 23.9618 8.85106C24.1002 8.93508 24.2386 9.04711 24.3632 9.14514C24.4324 9.20116 24.4739 9.27118 24.557 9.31319V9.29918C24.5155 9.24317 24.5016 9.15914 24.4601 9.10313C24.4047 9.04711 24.3355 8.9911 24.2801 8.92107C24.1002 8.68301 23.8787 8.45894 23.6434 8.29089C23.4496 8.15085 23.0066 7.9688 22.9374 7.73073C22.9374 7.73073 22.9374 7.73073 22.9236 7.71673C23.062 7.70272 23.2142 7.66071 23.3527 7.6187C23.5603 7.56268 23.7541 7.57669 23.9756 7.52067C24.0725 7.49266 24.1694 7.46465 24.2663 7.43665C24.2663 7.42264 24.2663 7.39463 24.2663 7.38063C24.1556 7.2686 24.0725 7.11455 23.9618 7.01652C23.6434 6.73644 23.2973 6.47037 22.9374 6.2463C22.7436 6.12026 22.4944 6.03624 22.3006 5.93821C22.2314 5.8962 22.1068 5.88219 22.0653 5.82618C21.9546 5.68614 21.8853 5.50409 21.8161 5.35004C21.6362 4.99994 21.4701 4.62183 21.3039 4.25773C21.1932 4.01966 21.124 3.76758 20.9856 3.54352C20.3488 2.47921 19.6567 1.83502 18.5908 1.20484C18.3554 1.0788 18.0924 1.02279 17.8017 0.952768C17.6495 0.952768 17.4972 0.938764 17.3449 0.92476C17.248 0.882748 17.1511 0.756711 17.0542 0.700695C16.7082 0.47663 15.7945 -0.0135117 15.5315 0.630675C15.3654 1.03679 15.7807 1.44291 15.9191 1.63897C16.0299 1.77901 16.1544 1.94706 16.2375 2.1011C16.279 2.21313 16.2929 2.32517 16.3344 2.4372C16.4313 2.71728 16.5282 3.01136 16.6528 3.27744C16.722 3.40348 16.7912 3.54352 16.8881 3.66955C16.9435 3.73958 17.0265 3.76758 17.0404 3.87962C16.9573 4.00565 16.9435 4.1877 16.902 4.34175C16.6805 5.04195 16.7635 5.92421 17.0819 6.44236C17.1788 6.5964 17.4141 6.9465 17.7325 6.80646C18.0094 6.69443 17.954 6.34433 18.0232 6.02224C18.0371 5.95222 18.0232 5.8962 18.0647 5.85419V5.86819C18.1478 6.03624 18.2309 6.21829 18.3139 6.38634C18.5077 6.69443 18.8399 7.01652 19.1168 7.22658C19.2691 7.33862 19.3798 7.53467 19.5736 7.60469V7.59069C19.5736 7.59069 19.5736 7.59069 19.5598 7.59069C19.5182 7.53467 19.4629 7.50667 19.4213 7.46465C19.3106 7.35262 19.186 7.21258 19.103 7.08654C18.8399 6.73644 18.6185 6.34433 18.4108 5.95222C18.3139 5.75616 18.2309 5.5461 18.1478 5.35004C18.1063 5.28002 18.1063 5.16799 18.0509 5.12598C17.954 5.26602 17.8156 5.37805 17.7602 5.5461C17.6495 5.81217 17.6356 6.14827 17.5941 6.48437C17.5664 6.48437 17.5803 6.48437 17.5664 6.49837C17.3726 6.44236 17.3034 6.2463 17.2203 6.06425C17.0404 5.61612 16.9989 4.90191 17.165 4.39777C17.2065 4.27173 17.4003 3.85161 17.3172 3.72557C17.2757 3.61354 17.1511 3.54352 17.0819 3.44549C16.9989 3.33346 16.9158 3.17941 16.8604 3.03937C16.7082 2.68927 16.6389 2.29716 16.4728 1.94706C16.4036 1.77901 16.2652 1.61096 16.1683 1.47092C16.0576 1.30287 15.9191 1.17683 15.8222 0.980776C15.7945 0.910756 15.753 0.798723 15.7945 0.728703C15.8084 0.672687 15.8361 0.658683 15.8776 0.644679C15.9607 0.574659 16.1821 0.658683 16.2652 0.700695C16.5005 0.798723 16.6805 0.882748 16.8743 1.00878C16.9573 1.0648 17.0542 1.19084 17.165 1.21885C17.2065 1.21885 17.248 1.21885 17.2896 1.21885C17.4834 1.26086 17.7048 1.23285 17.8986 1.28887C18.2309 1.4009 18.5216 1.55494 18.7846 1.72299C19.5874 2.24114 20.2657 2.98336 20.7087 3.86561C20.7779 4.00565 20.8195 4.14569 20.8748 4.28573C20.9994 4.59382 21.1655 4.90191 21.2901 5.21C21.4147 5.50409 21.5393 5.79817 21.7331 6.05024C21.83 6.17628 22.1899 6.2463 22.3698 6.31632C22.4944 6.37234 22.6882 6.42835 22.799 6.48437C23.0066 6.61041 23.2142 6.76445 23.4219 6.90449C23.5188 6.98852 23.8372 7.14256 23.851 7.2686Z" fill="#00678F"/>
<path d="M17.5525 1.84863C17.4418 1.84863 17.3726 1.86264 17.3033 1.87664C17.3033 1.87664 17.3033 1.87664 17.3033 1.89064C17.3033 1.89064 17.3033 1.89064 17.3172 1.89064C17.3726 1.98867 17.4556 2.05869 17.511 2.14272C17.5664 2.24075 17.6079 2.33877 17.6494 2.4368L17.6633 2.4228C17.7463 2.36678 17.7878 2.25475 17.7878 2.11471C17.7463 2.0727 17.7463 2.03069 17.7186 1.98867C17.6771 1.91865 17.594 1.89064 17.5525 1.84863Z" fill="#00678F"/>
<path d="M10.9496 11.9455H13.2752C13.552 11.9455 13.8012 11.8895 14.0227 11.7914C14.3687 11.6234 14.5349 11.4133 14.5349 11.1192V10.5171C14.5349 10.279 14.3411 10.0689 13.9673 9.91488C13.7735 9.84486 13.5243 9.80285 13.2752 9.80285H12.3062C11.9739 9.80285 11.8217 9.70482 11.7802 9.48076C11.7802 9.45275 11.7802 9.42474 11.7802 9.41074V9.04663C11.7802 9.03263 11.7802 9.00462 11.7802 8.97661C11.8217 8.80856 11.9047 8.76655 12.1954 8.73854C12.2231 8.73854 12.2508 8.73854 12.2646 8.73854H14.5625V8.19238H12.3062C11.9739 8.19238 11.8078 8.20639 11.6556 8.2624C11.1849 8.41645 10.9634 8.65452 10.9634 9.07464V9.52277C10.9634 9.88687 11.3649 10.209 12.057 10.279C12.1262 10.279 12.2093 10.279 12.2923 10.279H13.1229C13.1506 10.279 13.1783 10.279 13.206 10.279C13.4551 10.307 13.5659 10.349 13.6489 10.447C13.7043 10.5031 13.7043 10.5451 13.7043 10.6011V11.0772C13.7043 11.1332 13.6628 11.2033 13.5936 11.2733C13.5243 11.3433 13.3998 11.3853 13.2475 11.3853C13.2198 11.3853 13.1921 11.3853 13.1644 11.3853H10.9496V11.9455Z" fill="#E38D1A"/>
<path d="M19.5598 10.9935C19.5598 11.5537 19.9751 11.8618 20.8057 11.9178C20.8887 11.9178 20.9579 11.9318 21.041 11.9318H23.1451V11.3856H21.0271C20.5565 11.3856 20.3765 11.2736 20.3765 10.9795V8.17871H19.5737L19.5598 10.9935Z" fill="#E38D1A"/>
<path d="M15.047 11.0212V9.08864C15.047 8.5985 15.3931 8.29041 16.0714 8.20639C16.1406 8.20639 16.2236 8.19238 16.2928 8.19238H17.8294C17.9124 8.19238 17.9817 8.19238 18.0647 8.20639C18.743 8.30442 19.0752 8.5985 19.0752 9.08864V11.0212C19.0752 11.4273 18.9368 11.6374 18.6046 11.7774L19.3936 12.5056H18.4662L17.8294 11.9175L17.1788 11.9595H16.3205C16.1821 11.9595 16.016 11.9455 15.8499 11.9035C15.2962 11.7494 15.047 11.4693 15.047 11.0212ZM15.9191 10.9792C15.9191 11.0072 15.9329 11.0352 15.9329 11.0632C15.9745 11.2873 16.1821 11.4133 16.5005 11.4133H17.2342L16.5697 10.7971H17.4972L18.0786 11.3293C18.1893 11.2733 18.2585 11.1752 18.2862 11.0632C18.2862 11.0352 18.2862 11.0072 18.2862 10.9792V9.13065C18.2862 9.10265 18.2862 9.07464 18.2862 9.06063C18.2447 8.85057 18.037 8.72454 17.7186 8.72454H16.5005C16.1406 8.72454 15.9052 8.87858 15.9052 9.13065L15.9191 10.9792Z" fill="#E38D1A"/>
<path d="M23.505 11.9459H23.6157V11.4838H23.768V11.3857H23.3389V11.4838H23.505V11.9459ZM24.4048 11.9459H24.5155V11.3997H24.3494L24.211 11.7779L24.0587 11.3997H23.8926V11.9459H24.0033V11.5258L24.1556 11.9459H24.2387L24.3909 11.5258L24.4048 11.9459Z" fill="#E38D1A"/>
</g>
<defs>
<clipPath id="clip0">
<rect width="25" height="13.3459" fill="white"/>
</clipPath>
</defs>
</svg>
