<svg width="25" height="25" viewBox="0 0 25 25" fill="none" xmlns="http://www.w3.org/2000/svg">
<g clip-path="url(#clip0)">
<path d="M12.5 24.7159C19.4035 24.7159 25 19.1831 25 12.358C25 5.53285 19.4035 0 12.5 0C5.59645 0 0 5.53285 0 12.358C0 19.1831 5.59645 24.7159 12.5 24.7159Z" fill="url(#paint0_linear)"/>
<path d="M20.45 10.0346C20.2 9.39201 19.025 9.14485 16.2 9.14485C9.22496 9.14485 7.69996 8.82354 5.92496 6.99456C5.82496 6.8957 5.69996 6.8957 5.59996 6.96985C5.49996 7.04399 5.47496 7.19229 5.54996 7.29115C5.62496 7.41473 5.69996 7.53831 5.77496 7.66189C6.47496 8.84826 7.52496 10.6278 13.7 10.6278C13.875 10.6278 14.05 10.6278 14.225 10.6278C14.425 10.6278 14.625 10.6278 14.8 10.6278C17.525 10.6278 18.075 10.9738 18.175 11.1716C18.3 11.4681 17.65 12.1355 17.075 12.7287C16.55 13.2477 15.975 13.8656 15.6 14.4835C15.55 14.5823 15.575 14.7306 15.65 14.8048C15.7 14.8295 15.75 14.8542 15.8 14.8542C15.85 14.8542 15.925 14.8295 15.975 14.7801C16.6 14.2116 17.225 13.6926 17.775 13.2477C19.625 11.7153 20.725 10.7761 20.45 10.0346Z" fill="white"/>
<path d="M9.34995 15.7686C8.64995 15.7686 8.07495 16.337 8.07495 17.0291C8.07495 17.7211 8.64995 18.2896 9.34995 18.2896C10.05 18.2896 10.625 17.7211 10.625 17.0291C10.625 16.337 10.05 15.7686 9.34995 15.7686Z" fill="white"/>
<path d="M14.0499 15.7686C13.3499 15.7686 12.7749 16.337 12.7749 17.0291C12.7749 17.7211 13.3499 18.2896 14.0499 18.2896C14.7499 18.2896 15.3249 17.7211 15.3249 17.0291C15.3499 16.337 14.7749 15.7686 14.0499 15.7686Z" fill="white"/>
</g>
<defs>
<linearGradient id="paint0_linear" x1="0" y1="12.358" x2="25" y2="12.358" gradientUnits="userSpaceOnUse">
<stop stop-color="#6CB7E9"/>
<stop offset="1" stop-color="#78C3EB"/>
</linearGradient>
<clipPath id="clip0">
<rect width="25" height="24.7159" fill="white"/>
</clipPath>
</defs>
</svg>
