<svg width="25" height="25" viewBox="0 0 25 25" fill="none" xmlns="http://www.w3.org/2000/svg">
<g clip-path="url(#clip0)">
<path d="M24.3372 14.9694C24.1907 14.5292 23.807 14.2226 23.3107 14.149C23.0767 14.1144 22.8087 14.1292 22.4916 14.194C21.9388 14.3072 21.5287 14.3503 21.2294 14.3586C22.3591 12.4663 23.2777 10.3083 23.8065 8.277C24.6616 4.99238 24.2047 3.49603 23.6707 2.81921C22.2576 1.02772 20.1958 0.065317 17.7086 0.0358692C16.3817 0.0197723 15.2169 0.27969 14.6093 0.466603C14.0435 0.36756 13.4352 0.312262 12.7969 0.302036C11.6004 0.283098 10.5433 0.541879 9.63995 1.07374C9.13986 0.905953 8.33724 0.669423 7.41036 0.518491C5.23039 0.163413 3.4734 0.44009 2.18825 1.34085C0.632056 2.43146 -0.0893506 4.32635 0.04407 6.97287C0.086444 7.81312 0.560192 10.3697 1.30613 12.7943C1.73483 14.1879 2.19197 15.3451 2.66486 16.2343C3.33549 17.495 4.05308 18.2375 4.85866 18.5041C5.31018 18.6533 6.13055 18.7579 6.9934 18.0449C7.10277 18.1763 7.24869 18.3069 7.44233 18.4282C7.68827 18.582 7.98899 18.7078 8.28933 18.7823C9.37168 19.0507 10.3855 18.9836 11.2504 18.6073C11.2558 18.7599 11.2599 18.9058 11.2633 19.0317C11.2691 19.2359 11.2748 19.4362 11.2823 19.6235C11.3336 20.8898 11.4204 21.8745 11.6777 22.5634C11.6918 22.6013 11.7108 22.6591 11.7309 22.7203C11.8592 23.1103 12.0739 23.763 12.62 24.2743C13.1854 24.8039 13.8694 24.9662 14.4959 24.9662C14.8101 24.9662 15.1098 24.9253 15.3727 24.8695C16.3099 24.6701 17.3743 24.3666 18.1443 23.2788C18.8723 22.2505 19.2262 20.7017 19.2902 18.2613C19.2985 18.1923 19.3062 18.1264 19.3135 18.0636L19.3288 17.9346L19.5003 17.9496L19.5445 17.9525C20.499 17.9957 21.6662 17.7949 22.3831 17.4645C22.9495 17.2038 24.7646 16.253 24.3372 14.9694Z" fill="black"/>
<path d="M22.705 15.2182C19.8667 15.7991 19.6716 14.8457 19.6716 14.8457C22.6683 10.4339 23.9211 4.83384 22.8401 3.46324C19.8907 -0.275498 14.7853 1.4927 14.7001 1.53853L14.6727 1.54345C14.1119 1.42793 13.4844 1.35919 12.779 1.34773C11.4948 1.3269 10.5206 1.68179 9.78135 2.23798C9.78135 2.23798 0.67382 -1.48456 1.09746 6.91971C1.18756 8.7076 3.68037 20.448 6.6536 16.9019C7.74034 15.6051 8.79043 14.5087 8.79043 14.5087C9.3119 14.8524 9.93624 15.0278 10.5908 14.9648L10.6416 14.922C10.6258 15.083 10.633 15.2405 10.6619 15.4269C9.89597 16.276 10.1211 16.425 8.58992 16.7378C7.0405 17.0546 7.95068 17.6185 8.54497 17.7661C9.26542 17.9447 10.9321 18.1979 12.0583 16.6338L12.0134 16.8123C12.3135 17.0508 12.5242 18.3635 12.4889 19.5537C12.4536 20.7437 12.43 21.5608 12.6664 22.199C12.903 22.8372 13.1386 24.2731 15.1516 23.8452C16.8335 23.4876 17.7051 22.5609 17.8264 21.015C17.9124 19.916 18.1072 20.0785 18.1194 19.096L18.2756 18.6308C18.4557 17.1411 18.3042 16.6605 19.3404 16.8841L19.5923 16.906C20.3549 16.9404 21.3532 16.7843 21.939 16.5141C23.2005 15.9333 23.9487 14.9634 22.7048 15.2182H22.705Z" fill="#336791"/>
<path d="M10.3144 7.71975C10.0586 7.68444 9.827 7.7171 9.7098 7.80516C9.64395 7.85469 9.62353 7.91207 9.61799 7.95155C9.60329 8.05618 9.67716 8.17189 9.72259 8.23154C9.85105 8.40047 10.0387 8.51656 10.2244 8.54212C10.2513 8.54591 10.2781 8.54761 10.3048 8.54761C10.6144 8.54761 10.8961 8.30834 10.9209 8.13174C10.9519 7.91055 10.6283 7.76312 10.3144 7.71985V7.71975ZM18.7877 7.72676C18.7632 7.55339 18.4523 7.50396 18.1572 7.54468C17.8625 7.58539 17.5768 7.71739 17.6006 7.89114C17.6197 8.02626 17.8656 8.25692 18.1567 8.25692C18.1813 8.25692 18.2062 8.25531 18.2312 8.25181C18.4255 8.22511 18.5681 8.10267 18.6358 8.03213C18.7389 7.92457 18.7986 7.80469 18.7877 7.72676Z" fill="white"/>
<path d="M23.6494 15.153C23.5412 14.8284 23.1929 14.7239 22.6141 14.8425C20.8958 15.1943 20.2804 14.9506 20.0784 14.803C21.414 12.7842 22.5128 10.344 23.1055 8.06719C23.3863 6.9887 23.5414 5.9871 23.5541 5.1707C23.5681 4.27467 23.4143 3.61622 23.097 3.21398C21.818 1.59246 19.9408 0.72266 17.6684 0.698799C16.1062 0.681376 14.7863 1.07802 14.5304 1.18956C13.9916 1.05662 13.4042 0.975002 12.7647 0.964587C11.5919 0.945744 10.5782 1.22431 9.73894 1.79216C9.37437 1.65751 8.43222 1.33661 7.28001 1.15245C5.28805 0.834296 3.70514 1.07537 2.57555 1.86933C1.22769 2.81677 0.605446 4.51035 0.725983 6.90291C0.766544 7.70785 1.22884 10.1841 1.95836 12.5556C2.91864 15.6768 3.96253 17.4438 5.06082 17.8073C5.18937 17.8498 5.33758 17.8796 5.50107 17.8796C5.90171 17.8796 6.39292 17.7004 6.90399 17.0908C7.52734 16.3489 8.17216 15.625 8.83763 14.92C9.26939 15.1499 9.74371 15.2783 10.2288 15.2912C10.2298 15.3038 10.231 15.3164 10.2322 15.3289C10.1487 15.4277 10.0669 15.5279 9.98688 15.6295C9.65075 16.0529 9.5808 16.141 8.49883 16.362C8.19105 16.4251 7.37363 16.5922 7.36161 17.1607C7.34863 17.7818 8.32791 18.0427 8.43947 18.0704C8.82828 18.1669 9.20287 18.2146 9.56009 18.2146C10.4289 18.2146 11.1934 17.9313 11.8044 17.3831C11.7856 19.5975 11.8786 21.7795 12.1466 22.4443C12.3661 22.9885 12.9023 24.3186 14.5959 24.3185C14.8444 24.3185 15.1179 24.2898 15.4189 24.2258C17.1864 23.8499 17.954 23.0748 18.2509 21.366C18.4098 20.4527 18.6825 18.2719 18.8108 17.1022C19.0814 17.186 19.4299 17.2243 19.8066 17.2242C20.5922 17.2242 21.4988 17.0586 22.0673 16.7968C22.7059 16.5025 23.8584 15.7804 23.6494 15.153ZM19.4401 7.24852C19.4343 7.59385 19.3864 7.90736 19.3356 8.2346C19.2809 8.58655 19.2244 8.95043 19.2102 9.39215C19.1962 9.82203 19.2503 10.269 19.3026 10.7012C19.4083 11.5742 19.5168 12.473 19.0968 13.3598C19.027 13.2372 18.9649 13.1104 18.9107 12.9802C18.8585 12.8547 18.7451 12.653 18.5881 12.3739C17.9774 11.2872 16.5473 8.7426 17.2794 7.70425C17.4975 7.39519 18.0509 7.07742 19.4401 7.24852ZM17.7562 1.39807C19.7922 1.44266 21.4028 2.19836 22.5431 3.64405C23.4177 4.75294 22.4547 9.79855 19.6667 14.1514C19.6386 14.1161 19.6104 14.0808 19.5821 14.0457L19.5468 14.0019C20.2672 12.8214 20.1264 11.6535 20.001 10.618C19.9494 10.193 19.9008 9.79164 19.9132 9.41459C19.926 9.01501 19.9792 8.67224 20.0307 8.34084C20.094 7.93245 20.1584 7.50986 20.1407 7.01171C20.154 6.95944 20.1593 6.89771 20.1523 6.82442C20.107 6.34672 19.5573 4.91703 18.4369 3.62303C17.824 2.91524 16.9302 2.12318 15.7098 1.58896C16.2347 1.48101 16.9525 1.38036 17.7562 1.39807ZM6.36315 16.6446C5.80007 17.3164 5.41126 17.1876 5.28338 17.1454C4.45021 16.8696 3.48344 15.1225 2.63109 12.3519C1.89356 9.9546 1.46256 7.54395 1.4284 6.86797C1.32075 4.73012 1.84307 3.24021 2.98096 2.43953C4.83282 1.13663 7.87744 1.91648 9.10085 2.31199C9.08329 2.32922 9.06496 2.34532 9.04759 2.36284C7.03999 4.37438 7.08761 7.81116 7.09257 8.02127C7.09238 8.10232 7.09925 8.21708 7.1086 8.37492C7.14315 8.95299 7.20748 10.0288 7.03569 11.2472C6.87612 12.3794 7.2279 13.4875 8.00065 14.2875C8.07996 14.3694 8.16331 14.4474 8.25041 14.5212C7.90646 14.8867 7.1589 15.6949 6.36315 16.6446ZM8.50847 13.8047C7.88565 13.1599 7.60278 12.263 7.73228 11.3438C7.91361 10.0568 7.84671 8.93585 7.81073 8.33364C7.80568 8.24937 7.80119 8.17551 7.79861 8.11728C8.09189 7.85926 9.451 7.13679 10.4203 7.35713C10.8625 7.45759 11.132 7.75643 11.2441 8.27039C11.8239 10.9314 11.3208 12.0405 10.9165 12.9318C10.8332 13.1154 10.7545 13.2889 10.6873 13.4684L10.6352 13.6073C10.5033 13.9582 10.3806 14.2845 10.3045 14.5943C9.64236 14.5924 8.99825 14.3117 8.50847 13.8046V13.8047ZM8.61011 17.3933C8.41676 17.3454 8.24287 17.2622 8.14085 17.1932C8.22607 17.1534 8.37772 17.0992 8.64075 17.0455C9.91359 16.7855 10.1102 16.602 10.5395 16.0613C10.6379 15.9372 10.7494 15.7967 10.9039 15.6255L10.9041 15.6253C11.1342 15.3697 11.2395 15.413 11.4304 15.4916C11.5851 15.5551 11.7358 15.7475 11.7968 15.9592C11.8258 16.0592 11.8582 16.2489 11.752 16.3967C10.8553 17.6424 9.54854 17.6264 8.61011 17.3933ZM15.2715 23.5435C13.7144 23.8745 13.163 23.0862 12.7997 22.1851C12.5652 21.6033 12.4499 18.9799 12.5317 16.0828C12.5328 16.0442 12.5272 16.007 12.5165 15.972C12.507 15.9028 12.4924 15.8344 12.473 15.7673C12.3514 15.3457 12.0551 14.9931 11.6996 14.8469C11.5583 14.7889 11.2991 14.6823 10.9876 14.7614C11.0541 14.4898 11.1692 14.1832 11.2942 13.8511L11.3466 13.7114C11.4056 13.554 11.4796 13.3908 11.5579 13.2181C11.9809 12.2856 12.5603 11.0084 11.9315 8.12296C11.696 7.0422 10.9094 6.51441 9.71699 6.63703C9.00217 6.71041 8.34814 6.99656 8.02193 7.16065C7.95179 7.19588 7.88765 7.22996 7.82772 7.2631C7.91877 6.1742 8.26272 4.13917 9.5494 2.85161C10.3596 2.04109 11.4385 1.64075 12.753 1.66234C15.3432 1.70438 17.0042 3.02319 17.9415 4.12223C18.7493 5.06919 19.1867 6.02317 19.3613 6.5377C18.0485 6.40524 17.1557 6.66231 16.7032 7.30429C15.7185 8.70074 17.2418 11.4111 17.9739 12.7137C18.1082 12.9524 18.224 13.1587 18.2605 13.2464C18.4989 13.8196 18.8075 14.2024 19.0329 14.4817C19.102 14.5673 19.169 14.6503 19.2199 14.7229C18.8223 14.8366 18.1082 15.0993 18.1733 16.4128C18.1208 17.0718 17.7475 20.1573 17.5579 21.2474C17.3076 22.6876 16.7734 23.224 15.2715 23.5436V23.5435ZM21.7711 16.1639C21.3646 16.3511 20.6842 16.4915 20.0379 16.5217C19.324 16.5549 18.9606 16.4424 18.8751 16.3732C18.835 15.5547 19.142 15.4692 19.467 15.3787C19.5181 15.3645 19.5679 15.3506 19.616 15.3339C19.6458 15.358 19.6786 15.382 19.7145 15.4055C20.2882 15.7812 21.3116 15.8217 22.7564 15.5258L22.7723 15.5227C22.5774 15.7035 22.2439 15.946 21.7711 16.1639Z" fill="white"/>
</g>
<defs>
<clipPath id="clip0">
<rect width="24.4318" height="25" fill="white"/>
</clipPath>
</defs>
</svg>
