<svg width="25" height="22" viewBox="0 0 25 22" fill="none" xmlns="http://www.w3.org/2000/svg">
<path d="M12.5533 13.3086C13.7377 13.3086 14.6979 12.3485 14.6979 11.1641C14.6979 9.97967 13.7377 9.01953 12.5533 9.01953C11.369 9.01953 10.4088 9.97967 10.4088 11.1641C10.4088 12.3485 11.369 13.3086 12.5533 13.3086Z" fill="#00D8FF"/>
<path d="M12.5533 16.0778C9.5416 16.0778 6.91006 15.7232 4.94067 15.0482C3.66335 14.6125 2.57826 14.0315 1.80504 13.3693C0.984815 12.6687 0.549072 11.904 0.549072 11.165C0.549072 9.74668 2.10407 8.35829 4.71426 7.45263C6.85025 6.7093 9.63558 6.29492 12.5491 6.29492C15.4113 6.29492 18.1582 6.69649 20.2814 7.43127C21.5245 7.85847 22.5711 8.41382 23.3145 9.02899C24.1219 9.70396 24.5491 10.443 24.5491 11.165C24.5491 12.6388 22.8104 14.1297 20.008 15.0568C18.0258 15.7146 15.3771 16.0778 12.5533 16.0778ZM12.5533 7.3202C9.78937 7.3202 7.0553 7.72176 5.05601 8.4181C2.65516 9.25541 1.57862 10.4003 1.57862 11.165C1.57862 11.9596 2.73633 13.2113 5.27389 14.0785C7.13647 14.715 9.65694 15.0525 12.5533 15.0525C15.2703 15.0525 17.8036 14.7107 19.6876 14.0827C22.3234 13.207 23.5281 11.9553 23.5281 11.165C23.5281 10.7591 23.2205 10.2807 22.6609 9.81503C22.0158 9.27676 21.076 8.78549 19.9524 8.39674C17.9318 7.70468 15.3045 7.3202 12.5533 7.3202Z" fill="#00D8FF"/>
<path d="M7.68762 21.853C7.25187 21.853 6.8674 21.7591 6.54273 21.5711C5.31667 20.8619 4.88947 18.8199 5.40638 16.1072C5.8293 13.8815 6.86312 11.2671 8.31987 8.74232C9.75098 6.26457 11.4683 4.08586 13.1643 2.61203C14.1554 1.74909 15.1593 1.11683 16.065 0.783617C17.0518 0.420499 17.9062 0.420499 18.5299 0.779346C19.8072 1.51413 20.2302 3.76973 19.6321 6.65759C19.2091 8.70815 18.201 11.1816 16.7912 13.6295C15.2875 16.2354 13.6641 18.3372 12.0963 19.7085C11.0796 20.5971 10.0329 21.2464 9.07601 21.5839C8.57619 21.7633 8.10627 21.853 7.68762 21.853ZM8.75988 8.99864L9.20417 9.25496C7.82432 11.6473 6.80332 14.2147 6.41029 16.2995C5.9361 18.7986 6.39321 20.3023 7.05109 20.6825C7.21343 20.7765 7.42703 20.8278 7.68762 20.8278C8.53774 20.8278 9.87487 20.2895 11.4213 18.9395C12.9037 17.6451 14.4544 15.6288 15.9026 13.1211C17.2611 10.7672 18.2266 8.40056 18.6282 6.45681C19.1878 3.73556 18.7051 2.06948 18.0173 1.67219C17.667 1.47141 17.0988 1.49704 16.4153 1.74909C15.625 2.03958 14.7321 2.60775 13.835 3.38953C12.2245 4.79074 10.5797 6.87547 9.20417 9.25923L8.75988 8.99864Z" fill="#00D8FF"/>
<path d="M17.4191 21.8657C16.2571 21.8657 14.7833 21.1651 13.2454 19.8408C11.5281 18.3627 9.78081 16.1626 8.31979 13.6379C6.88441 11.1601 5.85913 8.58411 5.42766 6.37549C5.17562 5.08535 5.12862 3.90201 5.29096 2.94936C5.47038 1.91127 5.89331 1.17221 6.52129 0.809096C7.79434 0.0700431 9.96024 0.830456 12.1646 2.7913C13.7281 4.17969 15.3686 6.29005 16.7826 8.73363C18.2906 11.3395 19.3031 13.7959 19.7046 15.8379C19.9652 17.1623 20.0079 18.3926 19.8242 19.3922C19.6277 20.4559 19.1834 21.2121 18.5426 21.5838C18.2223 21.7717 17.842 21.8657 17.4191 21.8657ZM9.20837 13.1252C10.5925 15.5175 12.3098 17.6834 13.9161 19.0633C15.8428 20.7208 17.3721 21.0797 18.0343 20.6952C18.7221 20.2979 19.2262 18.6703 18.705 16.0387C18.3205 14.1078 17.3508 11.7582 15.8983 9.25054C14.5355 6.89667 12.9677 4.87602 11.4853 3.56025C9.40915 1.71476 7.72599 1.30037 7.0382 1.69767C6.6879 1.89845 6.42731 2.40682 6.30342 3.12451C6.16244 3.95328 6.20516 5.01273 6.43585 6.17898C6.84596 8.27652 7.82852 10.7415 9.20837 13.1252Z" fill="#00D8FF"/>
</svg>
