<svg width="25" height="25" viewBox="0 0 25 25" fill="none" xmlns="http://www.w3.org/2000/svg">
<path d="M23.8002 18.2411C22.4887 18.9248 15.6947 21.7182 14.2483 22.4721C12.8018 23.2266 11.9984 23.2193 10.8558 22.673C9.71318 22.1268 2.48321 19.2064 1.18082 18.5837C0.529823 18.2727 0.187622 18.01 0.187622 17.762V15.2779C0.187622 15.2779 9.6001 13.2288 11.1197 12.6836C12.6393 12.1385 13.1664 12.1188 14.4595 12.5926C15.7529 13.0663 23.4851 14.4613 24.7631 14.9294C24.7631 14.9294 24.7625 17.1481 24.7625 17.3783C24.7627 17.624 24.4678 17.8935 23.8002 18.2411Z" fill="#A42122"/>
<path d="M23.8003 15.7565C22.4888 16.4399 15.6948 19.2335 14.2484 19.9875C12.8019 20.7417 11.9985 20.7343 10.8559 20.1881C9.71312 19.6421 2.4833 16.7212 1.18092 16.099C-0.121484 15.4766 -0.148769 15.048 1.13062 14.5471C2.40987 14.046 9.60019 11.2249 11.12 10.6797C12.6394 10.1348 13.1666 10.1148 14.4598 10.5887C15.753 11.0623 22.5065 13.7506 23.7845 14.2187C25.0627 14.6871 25.1118 15.0728 23.8003 15.7565Z" fill="#D82F27"/>
<path d="M23.8002 14.1905C22.4887 14.8741 15.6947 17.6675 14.2483 18.4218C12.8018 19.1757 11.9984 19.1684 10.8558 18.6221C9.71303 18.0761 2.48321 15.1554 1.18082 14.533C0.529823 14.2218 0.187622 13.9597 0.187622 13.7116V11.2271C0.187622 11.2271 9.6001 9.17808 11.1197 8.63286C12.6393 8.0878 13.1664 8.06797 14.4595 8.54172C15.7529 9.01541 23.4851 10.4103 24.7631 10.8784C24.7631 10.8784 24.7625 13.0971 24.7625 13.3276C24.7627 13.5731 24.4678 13.8425 23.8002 14.1905Z" fill="#A42122"/>
<path d="M23.8003 11.7055C22.4888 12.3891 15.6948 15.1825 14.2484 15.9367C12.8019 16.6909 11.9985 16.6833 10.8559 16.1373C9.71312 15.5914 2.4833 12.6704 1.18092 12.0481C-0.121484 11.4257 -0.148769 10.9972 1.13062 10.496C2.40987 9.99521 9.60019 7.17402 11.12 6.62896C12.6394 6.08389 13.1666 6.06406 14.4598 6.53782C15.753 7.01148 22.5065 9.69943 23.7845 10.1677C25.0627 10.6361 25.1118 11.0219 23.8003 11.7055Z" fill="#D82F27"/>
<path d="M23.8002 9.98897C22.4887 10.6726 15.6947 13.4661 14.2483 14.2203C12.8018 14.9745 11.9984 14.9669 10.8558 14.4209C9.71303 13.8749 2.48321 10.954 1.18082 10.3317C0.529823 10.0204 0.187622 9.75808 0.187622 9.51022V7.0258C0.187622 7.0258 9.6001 4.97681 11.1197 4.43175C12.6393 3.88653 13.1664 3.86686 14.4595 4.34059C15.7529 4.81427 23.4851 6.20914 24.7631 6.67731C24.7631 6.67731 24.7625 8.89595 24.7625 9.12632C24.7627 9.37166 24.4678 9.64105 23.8002 9.98897Z" fill="#A42122"/>
<path d="M23.8003 7.50426C22.4888 8.18785 15.6948 10.9814 14.2484 11.7356C12.8019 12.4896 11.9985 12.4821 10.8559 11.9361C9.71327 11.39 2.4833 8.46933 1.18092 7.84696C-0.121484 7.22457 -0.148769 6.79596 1.13062 6.29491C2.40988 5.79386 9.6002 2.97303 11.12 2.42783C12.6394 1.88261 13.1666 1.86294 14.4598 2.33676C15.7531 2.81051 22.5065 5.49846 23.7845 5.9667C25.0627 6.43473 25.1118 6.82079 23.8003 7.50426Z" fill="#D82F27"/>
<path d="M15.6959 5.11101L13.5664 5.33199L13.0896 6.47904L12.3196 5.1991L9.86072 4.97809L11.6955 4.31641L11.145 3.30078L12.8627 3.97254L14.4823 3.44234L14.0445 4.49263L15.6959 5.11101Z" fill="white"/>
<path d="M12.9622 10.6767L8.98792 9.02828L14.6829 8.1543L12.9622 10.6767Z" fill="white"/>
<path d="M7.45237 8.10874C9.13342 8.10874 10.4962 7.5805 10.4962 6.92888C10.4962 6.27726 9.13342 5.74902 7.45237 5.74902C5.77133 5.74902 4.40857 6.27726 4.40857 6.92888C4.40857 7.5805 5.77133 8.10874 7.45237 8.10874Z" fill="white"/>
<path d="M18.2123 5.4248L21.5827 6.7568L18.2151 8.08734L18.2123 5.4248Z" fill="#791514"/>
<path d="M14.4835 6.89978L18.2123 5.4248L18.2151 8.08734L17.8496 8.23033L14.4835 6.89978Z" fill="#AD2524"/>
</svg>
