<svg width="25" height="19" viewBox="0 0 25 19" fill="none" xmlns="http://www.w3.org/2000/svg">
<g clip-path="url(#clip0)">
<path d="M21.5137 10.8066C20.6397 10.8115 19.8828 11.0221 19.2481 11.3357C19.0137 10.8703 18.7793 10.4637 18.7403 10.1601C18.6964 9.80738 18.6427 9.59181 18.6964 9.1706C18.75 8.7493 18.9942 8.1517 18.9942 8.10272C18.9892 8.05863 18.9404 7.84311 18.4375 7.83821C17.9347 7.83331 17.5 7.93618 17.4512 8.06843C17.4024 8.20069 17.3047 8.50438 17.2412 8.81787C17.1534 9.27832 16.2354 10.9095 15.7129 11.7667C15.542 11.4336 15.3955 11.1397 15.3662 10.9045C15.3223 10.5519 15.2685 10.3363 15.3223 9.9151C15.376 9.49379 15.6202 8.89625 15.6202 8.84726C15.6153 8.80318 15.5664 8.58765 15.0636 8.58276C14.5606 8.57786 14.1261 8.68072 14.0772 8.81298C14.0284 8.94523 13.9747 9.25872 13.8673 9.56242C13.7647 9.86611 12.544 12.5896 12.2266 13.2998C12.0655 13.6623 11.9239 13.9513 11.8213 14.1472C11.7188 14.3432 11.8164 14.1619 11.8067 14.1815C11.7188 14.3481 11.67 14.4411 11.67 14.4411V14.4461C11.6016 14.5685 11.5284 14.6861 11.4941 14.6861C11.4697 14.6861 11.4209 14.3579 11.5039 13.9073C11.6846 12.9618 12.124 11.4875 12.1192 11.4336C12.1192 11.4091 12.2021 11.1495 11.8359 11.0173C11.4795 10.885 11.3526 11.1054 11.3232 11.1054C11.2939 11.1054 11.2695 11.1838 11.2695 11.1838C11.2695 11.1838 11.665 9.52333 10.5127 9.52333C9.79002 9.52333 8.79393 10.312 8.30077 11.032C7.98827 11.2035 7.3242 11.5659 6.62108 11.9529C6.35252 12.0998 6.0742 12.2566 5.81053 12.3986L5.75687 12.3398C4.36038 10.8458 1.77738 9.78774 1.8848 7.77943C1.92386 7.04958 2.17777 5.12455 6.84579 2.79295C10.669 0.882606 13.7306 1.40673 14.2627 2.57252C15.0196 4.23795 12.627 7.33368 8.65243 7.77943C7.13875 7.95087 6.34281 7.36307 6.14266 7.14265C5.9327 6.91243 5.9034 6.90263 5.82528 6.94672C5.69832 7.01529 5.77645 7.22102 5.82528 7.34348C5.94246 7.65208 6.43075 8.20069 7.26082 8.47499C7.98831 8.71501 9.76571 8.84726 11.9141 8.01455C14.3214 7.07897 16.2013 4.48287 15.6495 2.31291C15.088 0.103774 11.4356 -0.621176 7.98348 0.6083C5.92777 1.34305 3.7012 2.48925 2.09964 3.99304C0.195345 5.77602 -0.107389 7.33368 0.0195637 7.98026C0.463948 10.2874 3.63285 11.7912 4.90238 12.9031C4.8389 12.9373 4.78031 12.9716 4.7266 13.001C4.09183 13.3145 1.67484 14.5832 1.06937 15.9253C0.385775 17.4438 1.17679 18.5361 1.70413 18.6831C3.33499 19.1386 5.00492 18.3206 5.90824 16.9736C6.80662 15.6265 6.69925 13.8778 6.28421 13.0794L6.26952 13.05L6.76756 12.7561C7.08988 12.5651 7.40726 12.3887 7.68553 12.2368C7.52933 12.663 7.41698 13.1675 7.35843 13.9023C7.29007 14.7644 7.64163 15.8812 8.1055 16.322C8.31058 16.513 8.55472 16.518 8.70609 16.518C9.2432 16.518 9.48734 16.0722 9.75589 15.5383C10.0879 14.8868 10.3809 14.1325 10.3809 14.1325C10.3809 14.1325 10.0147 16.1751 11.0157 16.1751C11.3819 16.1751 11.7481 15.7 11.9141 15.455V15.4599C11.9141 15.4599 11.9239 15.4452 11.9434 15.411C11.9639 15.3806 11.9834 15.3495 12.002 15.3179V15.3081C12.1485 15.0534 12.4756 14.4705 12.9639 13.5056C13.5937 12.2614 14.1993 10.7037 14.1993 10.7037C14.1993 10.7037 14.2578 11.0858 14.4385 11.7128C14.5459 12.0851 14.7803 12.4916 14.9609 12.8884C14.8144 13.0941 14.7265 13.2117 14.7265 13.2117L14.7314 13.2166C14.6143 13.3734 14.4824 13.5399 14.3457 13.7064C13.8477 14.304 13.252 14.985 13.1739 15.1809C13.0811 15.4111 13.1006 15.5825 13.2813 15.7197C13.4131 15.8177 13.6475 15.8372 13.8965 15.8177C14.3457 15.7882 14.6582 15.6756 14.8145 15.607C15.0586 15.5188 15.3369 15.3866 15.6055 15.1906C16.0938 14.8282 16.3916 14.3139 16.3623 13.6281C16.3477 13.2509 16.2256 12.8787 16.0743 12.526C16.1182 12.4623 16.1622 12.3986 16.2061 12.3301C16.9776 11.1985 17.5733 9.95438 17.5733 9.95438C17.5733 9.95438 17.6319 10.3364 17.8125 10.9634C17.9053 11.2818 18.0909 11.6297 18.2569 11.9725C17.5342 12.5652 17.0801 13.251 16.9239 13.7016C16.6358 14.5344 16.8604 14.9115 17.2852 14.9997C17.4756 15.0389 17.7491 14.9507 17.9541 14.8625C18.208 14.7793 18.5156 14.6372 18.7989 14.4266C19.2871 14.0641 19.7559 13.5596 19.7315 12.8787C19.7168 12.5652 19.6338 12.2566 19.5215 11.9627C20.1368 11.708 20.9326 11.5611 21.9434 11.6835C24.1162 11.9382 24.5459 13.3 24.463 13.8682C24.38 14.4364 23.9259 14.7499 23.7744 14.8478C23.6231 14.9409 23.5743 14.9753 23.5889 15.0438C23.6084 15.1467 23.6768 15.1417 23.8086 15.1222C23.9893 15.0928 24.9512 14.6569 24.9903 13.6087C25.0489 12.2614 23.7744 10.7919 21.5137 10.8066ZM4.75589 16.4739C4.03812 17.2626 3.02738 17.5614 2.59769 17.3067C2.13382 17.0372 2.31444 15.8763 3.19827 15.0387C3.73538 14.5293 4.43363 14.0591 4.89261 13.7701C4.99515 13.7064 5.1514 13.6134 5.33695 13.5007C5.36624 13.4811 5.38578 13.4713 5.38578 13.4713C5.41995 13.4517 5.45902 13.4272 5.49808 13.4027C5.82523 14.5979 5.51273 15.6461 4.75589 16.4739ZM10.0049 12.8933C9.75589 13.5056 9.22855 15.0779 8.91117 14.9897C8.63768 14.9163 8.47171 13.726 8.85741 12.5504C9.05272 11.9576 9.46776 11.2523 9.7119 10.978C10.1075 10.5371 10.5371 10.3902 10.6446 10.5714C10.7715 10.8066 10.1612 12.5112 10.0049 12.8933ZM14.336 14.9702C14.2285 15.0241 14.1309 15.0632 14.0869 15.0339C14.0528 15.0143 14.1308 14.9408 14.1308 14.9408C14.1308 14.9408 14.6728 14.3579 14.8877 14.0885C15.0097 13.9318 15.1562 13.7506 15.3125 13.5448V13.6036C15.3125 14.3089 14.6387 14.7791 14.336 14.9702ZM17.6758 14.206C17.5976 14.1472 17.6075 13.966 17.8711 13.3978C17.9737 13.1725 18.208 12.7953 18.6133 12.4377C18.6621 12.5847 18.6914 12.7267 18.6865 12.859C18.6817 13.7407 18.0567 14.0689 17.6758 14.206Z" fill="#CF649A"/>
</g>
<defs>
<clipPath id="clip0">
<rect width="25" height="18.8095" fill="white"/>
</clipPath>
</defs>
</svg>
