<svg width="22" height="25" viewBox="0 0 22 25" fill="none" xmlns="http://www.w3.org/2000/svg">
<g clip-path="url(#clip0)">
<path d="M18.4963 7.97046V16.9727L10.8469 21.4983L10.7777 21.5613V24.9258L10.8469 24.991L21.62 18.7681V6.22413L21.5182 6.19922L18.481 7.89723L18.4963 7.97046Z" fill="#2F406A"/>
<path d="M3.1729 17.0459L10.8469 21.4978V24.9905L0 18.7431V6.24825L0.111309 6.23145L3.13971 7.99212L3.1729 8.09296V17.0459Z" fill="#2379BD"/>
<path d="M3.1729 8.09311L0 6.2484L10.8223 0.000976562L21.62 6.22382L18.4963 7.97014L10.8223 3.59201L3.1729 8.09311Z" fill="#03AFEF"/>
<path d="M10.7153 16.0162L10.6322 15.9314V12.5511L10.7153 12.5082L10.7355 12.4249L13.6335 10.7344L13.7222 10.7542V14.2372L10.7153 16.0162Z" fill="#2F406A"/>
<path d="M7.6582 14.3453V10.7287L7.74223 10.7246L10.6902 12.4402L10.7152 12.5077V16.0157L7.6582 14.3453Z" fill="#2379BD"/>
<path d="M10.6651 8.9502L7.6582 10.7293L10.7152 12.5083L13.7221 10.7543L10.6651 8.9502Z" fill="#03AFEF"/>
<path d="M6.97328 18.2213L6.89026 18.1366V14.7561L6.97328 14.7133L6.99354 14.63L9.89147 12.9395L9.98015 12.9593V16.4422L6.97328 18.2213Z" fill="#2F406A"/>
<path d="M3.91638 16.5514V12.9348L4.00033 12.9307L6.94824 14.6463L6.97332 14.7139V18.2219L3.91638 16.5514Z" fill="#2379BD"/>
<path d="M6.92325 11.1553L3.91638 12.9343L6.97333 14.7134L9.9802 12.9594L6.92325 11.1553Z" fill="#03AFEF"/>
<path d="M14.7245 18.3053L14.6414 18.2205V14.8401L14.7245 14.7973L14.7446 14.7139L17.6427 13.0234L17.7313 13.0433V16.5262L14.7245 18.3053Z" fill="#2F406A"/>
<path d="M11.6674 16.6345V13.0178L11.7514 13.0137L14.6993 14.7293L14.7244 14.7969V18.3049L11.6674 16.6345Z" fill="#2379BD"/>
<path d="M14.6742 11.2383L11.6674 13.0173L14.7244 14.7964L17.7313 13.0424L14.6742 11.2383Z" fill="#03AFEF"/>
<path d="M10.9826 20.5104L10.8995 20.4256V17.0452L10.9826 17.0024L11.0028 16.9189L13.9008 15.2285L13.9894 15.2484V18.7313L10.9826 20.5104Z" fill="#2F406A"/>
<path d="M7.92554 18.8395V15.2229L8.00948 15.2188L10.9575 16.9343L10.9825 17.002V20.51L7.92554 18.8395Z" fill="#2379BD"/>
<path d="M10.9324 13.4443L7.92554 15.2234L10.9825 17.0025L13.9894 15.2485L10.9324 13.4443Z" fill="#03AFEF"/>
<path d="M10.7153 11.2223L10.6322 11.1374V7.75711L10.7153 7.71429L10.7355 7.63085L13.6335 5.94043L13.7222 5.96028V9.44322L10.7153 11.2223Z" fill="#2F406A"/>
<path d="M7.6582 9.55143V5.9348L7.74223 5.93066L10.6902 7.64625L10.7152 7.7139V11.2219L7.6582 9.55143Z" fill="#2379BD"/>
<path d="M10.6651 4.15527L7.6582 5.93436L10.7152 7.71345L13.7221 5.95945L10.6651 4.15527Z" fill="#03AFEF"/>
<path d="M6.97328 13.4273L6.89026 13.3426V9.96225L6.97328 9.91935L6.99354 9.836L9.89147 8.14551L9.98015 8.16535V11.6484L6.97328 13.4273Z" fill="#2F406A"/>
<path d="M3.91638 11.7574V8.14086L4.00033 8.13672L6.94824 9.85229L6.97332 9.91986V13.4279L3.91638 11.7574Z" fill="#2379BD"/>
<path d="M6.92325 6.36035L3.91638 8.13944L6.97333 9.91845L9.9802 8.16444L6.92325 6.36035Z" fill="#03AFEF"/>
<path d="M14.7245 13.5114L14.6414 13.4266V10.0462L14.7245 10.0033L14.7446 9.91999L17.6427 8.22949L17.7313 8.24934V11.7324L14.7245 13.5114Z" fill="#2F406A"/>
<path d="M11.6674 11.8404V8.22386L11.7514 8.21973L14.6993 9.93531L14.7244 10.0029V13.5109L11.6674 11.8404Z" fill="#2379BD"/>
<path d="M14.6742 6.44434L11.6674 8.22342L14.7244 10.0024L17.7313 8.24842L14.6742 6.44434Z" fill="#03AFEF"/>
<path d="M10.9826 15.7155L10.8995 15.6307V12.2503L10.9826 12.2075L11.0028 12.1241L13.9008 10.4336L13.9894 10.4534V13.9364L10.9826 15.7155Z" fill="#2F406A"/>
<path d="M7.92554 14.0456V10.4289L8.00948 10.4248L10.9575 12.1405L10.9825 12.208V15.716L7.92554 14.0456Z" fill="#2379BD"/>
<path d="M10.9324 8.64941L7.92554 10.4285L10.9825 12.2076L13.9894 10.4536L10.9324 8.64941Z" fill="#03AFEF"/>
</g>
<defs>
<clipPath id="clip0">
<rect width="21.62" height="25" fill="white"/>
</clipPath>
</defs>
</svg>
