<svg width="25" height="25" viewBox="0 0 25 25" fill="none" xmlns="http://www.w3.org/2000/svg">
<g clip-path="url(#clip0)">
<path d="M19.9337 22.273C18.8568 21.4548 17.246 20.8321 15.5512 20.1752C13.5338 19.3934 11.2346 18.5048 9.5284 17.1389C7.58365 15.5889 6.63627 13.6366 6.63627 11.1639C6.61988 10.1056 6.85206 9.05828 7.31414 8.10616C7.77621 7.15404 8.45527 6.32373 9.29667 5.68207C11.2482 4.1457 14.2062 3.33207 17.8481 3.33207C18.8039 3.32856 19.7587 3.39007 20.7062 3.51616C20.7296 3.51935 20.7534 3.51788 20.7763 3.51184C20.7991 3.50579 20.8206 3.49529 20.8394 3.48093C20.8582 3.46656 20.8739 3.44863 20.8858 3.42815C20.8976 3.40768 20.9053 3.38506 20.9084 3.36161C20.9116 3.33266 20.908 3.30335 20.8977 3.27609C20.8874 3.24883 20.8708 3.22439 20.8493 3.20479C19.0894 1.62669 16.9182 0.580235 14.5877 0.186899C12.2572 -0.206438 9.86298 0.0694717 7.68293 0.982602C5.50288 1.89573 3.6264 3.40864 2.27131 5.34571C0.916211 7.28279 0.138065 9.5646 0.0271887 11.9263C-0.0836875 14.288 0.477253 16.6327 1.6449 18.6883C2.81255 20.7439 4.53902 22.4261 6.62393 23.5396C8.70883 24.6531 11.0667 25.1523 13.4238 24.9792C15.7808 24.806 18.0405 23.9678 19.9405 22.5616C19.9629 22.545 19.9811 22.5235 19.9938 22.4986C20.0064 22.4738 20.013 22.4463 20.0132 22.4184C20.0124 22.3896 20.0048 22.3614 19.991 22.3361C19.9772 22.3108 19.9575 22.2892 19.9337 22.273Z" fill="#189EFF"/>
<path d="M24.9454 11.3498C24.9407 11.3023 24.9179 11.2583 24.8818 11.2271C22.2646 9.06119 20.1631 8.18164 17.5981 8.18164C16.2349 8.18164 15.1808 8.45664 14.481 8.99755C14.1884 9.21678 13.9519 9.50222 13.7908 9.83049C13.6297 10.1588 13.5486 10.5205 13.5541 10.8862C13.5541 13.0339 16.1781 14.0135 19.2179 15.1475C20.7833 15.7316 22.3986 16.3362 23.889 17.1612C23.9152 17.1763 23.945 17.1841 23.9753 17.1839C23.9956 17.1873 24.0163 17.1873 24.0367 17.1839C24.0609 17.1752 24.083 17.1613 24.1014 17.1433C24.1199 17.1252 24.1342 17.1034 24.1434 17.0794C24.7122 15.62 24.9997 14.0661 24.9909 12.4998C24.9909 12.1362 24.9909 11.7475 24.9454 11.3498Z" fill="#189EFF"/>
</g>
<defs>
<clipPath id="clip0">
<rect width="25" height="25" fill="white"/>
</clipPath>
</defs>
</svg>
