<svg width="25" height="25" viewBox="0 0 25 25" fill="none" xmlns="http://www.w3.org/2000/svg">
<path d="M9.41877 0.720953C12.5698 -0.0871528 16.0525 0.383746 18.8315 2.09888C22.3315 4.19195 24.6164 8.15123 24.6745 12.2268C24.8025 16.343 22.657 20.4245 19.2094 22.6628C15.3722 25.2442 10.0641 25.3431 6.14543 22.8896C2.15129 20.5058 -0.180155 15.6977 0.41877 11.0814C0.901192 6.20347 4.66877 1.90123 9.41877 0.72105V0.720953Z" fill="#010101"/>
<path d="M8.93601 2.71554C14.8895 0.331749 22.1919 4.73292 22.8081 11.1167C23.7675 16.8609 19 22.6981 13.1801 22.8667C7.64528 23.4191 2.29646 18.7271 2.13952 13.1691C1.72673 8.66905 4.69187 4.20392 8.93601 2.71554Z" fill="white"/>
<path d="M9.53494 11.8835C12.2036 9.70322 14.8141 7.44736 17.5408 5.33105C16.1105 7.52881 14.6396 9.69736 13.2094 11.895C11.9826 11.9009 10.7559 11.9009 9.53494 11.8834V11.8835ZM11.7908 13.0985C13.0233 13.0985 14.2501 13.0985 15.4768 13.116C12.7908 15.2846 10.192 17.5578 7.45935 19.6684C8.88963 17.4706 10.3605 15.2963 11.7908 13.0985Z" fill="#010101"/>
</svg>
