<svg width="26" height="30" viewBox="0 0 26 30" fill="none" xmlns="http://www.w3.org/2000/svg">
<g clip-path="url(#clip0)">
<path d="M21.9181 6.41196C21.9079 6.35059 21.8777 6.29431 21.8322 6.25186C21.7867 6.20941 21.7285 6.18317 21.6666 6.17721C21.5663 6.16048 19.5551 6.14376 19.5551 6.14376C19.5551 6.14376 17.863 4.50179 17.6951 4.33393C17.5273 4.16607 17.2089 4.21688 17.0751 4.25032C17.0751 4.25032 16.7536 4.35065 16.2204 4.51851C16.1183 4.17692 15.9837 3.8459 15.8184 3.52999C15.2151 2.37231 14.3437 1.77032 13.2715 1.77032C13.1984 1.76754 13.1253 1.77315 13.0535 1.78704C13.016 1.75168 12.9824 1.71245 12.9532 1.66999C12.4843 1.16769 11.8977 0.932936 11.1941 0.949015C9.82036 0.982459 8.46267 1.97098 7.34036 3.74737C6.55314 4.98802 5.96659 6.54445 5.79873 7.75293C4.22364 8.23915 3.11806 8.57424 3.10134 8.58903C2.31412 8.8405 2.28004 8.85722 2.1797 9.611C2.09609 10.1641 0.0180664 26.2687 0.0180664 26.2687L17.461 29.2844L25.0181 27.4077C25.0181 27.4077 21.9348 6.54445 21.9181 6.41196ZM15.3495 4.78671C14.9476 4.90376 14.4948 5.0549 13.9925 5.2054C13.9758 4.51851 13.8922 3.54671 13.5738 2.70868C14.6292 2.90999 15.1322 4.0831 15.3495 4.78671ZM13.0876 5.49096C12.1659 5.77588 11.1774 6.07752 10.1722 6.39588C10.4571 5.32374 10.9935 4.25096 11.6469 3.54735C11.9227 3.24101 12.2594 2.99565 12.6354 2.82702C13.0207 3.61424 13.0876 4.73654 13.0876 5.49096ZM11.2089 1.8713C11.4982 1.8614 11.784 1.93725 12.0302 2.08932C11.6248 2.30025 11.2615 2.58362 10.9581 2.92542C10.0866 3.86378 9.41453 5.30509 9.14827 6.71231C8.31217 6.96378 7.5063 7.21525 6.75188 7.44936C7.25675 5.23949 9.10003 1.93818 11.2089 1.8713Z" fill="#95BF47"/>
<path d="M21.6667 6.17798C21.5663 6.16126 19.5552 6.14454 19.5552 6.14454C19.5552 6.14454 17.8631 4.50257 17.6952 4.33471C17.6647 4.30326 17.6282 4.27819 17.5879 4.26097C17.5476 4.24374 17.5043 4.2347 17.4604 4.23438V29.2839L25.0175 27.4072C25.0175 27.4072 21.9349 6.56323 21.9181 6.41209C21.9054 6.35195 21.8744 6.29721 21.8294 6.25532C21.7844 6.21343 21.7276 6.18643 21.6667 6.17798Z" fill="#5E8E3E"/>
<path d="M13.2723 10.0652L12.4008 13.3491C11.7233 13.0642 10.9896 12.9381 10.2559 12.9806C8.54705 13.0809 8.53033 14.1537 8.54705 14.4386C8.64738 15.9134 12.5012 16.2317 12.7192 19.6661C12.887 22.3809 11.2779 24.2235 8.96574 24.3747C6.1841 24.5425 4.65662 22.9166 4.65662 22.9166L5.24317 20.4199C5.24317 20.4199 6.78674 21.5776 8.00873 21.5088C8.81331 21.4586 9.09759 20.8052 9.06414 20.3357C8.94709 18.4255 5.79693 18.5258 5.59562 15.3924C5.42776 12.7452 7.1707 10.0639 11.0078 9.8124C12.5159 9.67863 13.2697 10.0639 13.2697 10.0639L13.2723 10.0652Z" fill="white"/>
</g>
<defs>
<clipPath id="clip0">
<rect x="0.0180664" y="0.949219" width="25" height="28.3347" fill="white"/>
</clipPath>
</defs>
</svg>
