<svg width="26" height="6" viewBox="0 0 26 6" fill="none" xmlns="http://www.w3.org/2000/svg">
<path d="M19.8681 2.28111C19.5518 2.28111 19.2923 2.39134 19.1079 2.60177L19.1435 2.41634C19.1549 2.35748 19.1147 2.30807 19.0561 2.30807C18.9974 2.30807 18.938 2.35748 18.9269 2.41634L18.3805 5.25335C18.3693 5.31221 18.4092 5.36162 18.4679 5.36162C18.5266 5.36162 18.586 5.31221 18.5972 5.25335L18.8 4.19961C18.8748 4.33445 19.048 4.5191 19.4372 4.5191C19.7415 4.5191 19.9966 4.42559 20.196 4.24075C20.4016 4.0502 20.5419 3.76674 20.613 3.39784C20.684 3.02914 20.6527 2.74626 20.5203 2.55689C20.3923 2.37402 20.1726 2.2813 19.8681 2.2813V2.28111ZM19.4754 4.32048C19.0128 4.32048 18.8295 4.00158 18.9458 3.39803C19.0632 2.78878 19.3561 2.47992 19.8165 2.47992C20.3199 2.47992 20.5065 2.78032 20.3874 3.39803C20.2661 4.02737 19.9764 4.32067 19.4754 4.32067V4.32048ZM24.5836 3.27815C24.309 3.17638 24.0496 3.08012 24.099 2.82422C24.1238 2.69567 24.2281 2.47973 24.6486 2.47973C24.8848 2.47973 25.034 2.54508 25.1634 2.70532C25.1876 2.73524 25.2151 2.73524 25.2269 2.73524C25.2548 2.73384 25.2815 2.72337 25.3029 2.70543C25.3243 2.68749 25.3392 2.66305 25.3455 2.63583C25.3482 2.62399 25.3484 2.61172 25.3462 2.59977C25.344 2.58782 25.3394 2.57645 25.3327 2.56634L25.3311 2.56378C25.1998 2.37618 24.983 2.28111 24.687 2.28111C24.2553 2.28111 23.947 2.48918 23.8823 2.82422C23.8051 3.2252 24.1602 3.35965 24.4736 3.47776C24.7443 3.58012 25.0002 3.67697 24.9527 3.92225C24.8858 4.2687 24.5228 4.32048 24.312 4.32048C24.0216 4.32048 23.8423 4.24154 23.7124 4.0563L23.711 4.05453C23.7035 4.04493 23.6938 4.03722 23.6828 4.03202C23.6717 4.02682 23.6596 4.02429 23.6474 4.02461C23.6195 4.02604 23.5929 4.03652 23.5715 4.05446C23.5501 4.0724 23.5352 4.09682 23.5289 4.12402C23.5262 4.13586 23.5259 4.14814 23.5281 4.16008C23.5303 4.17203 23.535 4.18341 23.5417 4.19351C23.6283 4.35552 23.8882 4.51929 24.274 4.51929C24.7626 4.51929 25.0974 4.29607 25.1695 3.92225C25.2462 3.52382 24.8941 3.39331 24.5834 3.27815H24.5836ZM23.9285 1.72107H23.7L23.7441 1.49233C23.7553 1.43347 23.7153 1.38406 23.6565 1.38406C23.5978 1.38406 23.5386 1.43347 23.5273 1.49233L23.4832 1.72087H23.2547C23.1958 1.72087 23.1368 1.77048 23.1256 1.82914C23.1142 1.888 23.1543 1.9374 23.213 1.9374H23.4415L23.3976 2.16614C23.3862 2.225 23.4262 2.27441 23.485 2.27441C23.5437 2.27441 23.6029 2.225 23.6142 2.16614L23.6581 1.9376H23.8868C23.9453 1.9376 24.0045 1.888 24.0159 1.82933C24.0191 1.81626 24.0192 1.80262 24.0163 1.78949C24.0133 1.77636 24.0074 1.76408 23.999 1.75361C23.9905 1.74314 23.9798 1.73476 23.9675 1.72911C23.9553 1.72347 23.942 1.72072 23.9285 1.72107ZM5.77655 3.92264C5.88758 3.98052 6.08758 4.06044 6.27852 4.05591C6.45175 4.05591 6.54525 3.9626 6.54525 3.84725C6.54525 3.73603 6.47852 3.66063 6.29191 3.55394C6.061 3.42067 5.88758 3.23406 5.88758 2.98977C5.88758 2.55866 6.25647 2.25217 6.79388 2.25217C7.02951 2.25217 7.21159 2.29646 7.30923 2.35453L7.16711 2.78977C7.04735 2.73452 6.9171 2.70571 6.78522 2.70532C6.61199 2.70532 6.50077 2.78544 6.50077 2.90965C6.50077 3.00729 6.58069 3.07855 6.7362 3.163C6.97636 3.30079 7.17616 3.4874 7.17616 3.74961C7.17616 4.23819 6.78069 4.51378 6.2297 4.50945C5.97655 4.50492 5.74092 4.43819 5.62557 4.35827L5.77655 3.92264ZM7.30057 4.49725L7.89585 1.38622H8.50903L8.2736 2.59213L8.28226 2.58426C8.44663 2.38878 8.66002 2.25374 8.93089 2.25374C9.25096 2.25374 9.43285 2.45965 9.43285 2.80611C9.43285 2.9128 9.41514 3.08524 9.38856 3.21851L9.1486 4.49725H8.53561L8.76651 3.25709C8.78423 3.17244 8.79329 3.06319 8.79329 2.97894C8.79329 2.84567 8.74014 2.74882 8.60234 2.74882C8.40667 2.74882 8.19781 3.01004 8.11789 3.41418L7.91336 4.49764H7.30057V4.49725ZM11.6504 3.10512C11.6504 3.86496 11.1614 4.51378 10.4374 4.51378C9.8862 4.51378 9.59329 4.1315 9.59329 3.65611C9.59329 2.91398 10.0821 2.24764 10.8195 2.24764C11.3927 2.24764 11.6502 2.66536 11.6502 3.10512H11.6504ZM10.2197 3.64292C10.2197 3.86496 10.3086 4.04252 10.5175 4.04252C10.8417 4.04252 11.024 3.46496 11.024 3.0874C11.024 2.90532 10.9527 2.7187 10.7352 2.7187C10.4018 2.7187 10.2197 3.29154 10.2197 3.64292ZM11.5037 5.36142L11.9303 3.11929C11.9793 2.86595 12.0279 2.53839 12.0547 2.30768H12.5968L12.5612 2.65335H12.5701C12.7344 2.42303 12.9744 2.26831 13.2187 2.26831C13.6673 2.26831 13.8496 2.62658 13.8496 3.03996C13.8496 3.78642 13.3787 4.52166 12.6588 4.52166C12.5079 4.52166 12.3701 4.49705 12.299 4.43957H12.2856L12.1167 5.36122H11.5037V5.36142ZM12.3791 3.9626C12.4458 4.01575 12.5212 4.05158 12.6325 4.05158C12.9746 4.05158 13.2102 3.48721 13.2102 3.09174C13.2102 2.92756 13.1523 2.75414 12.9657 2.75414C12.7525 2.75414 12.5525 3.00748 12.4815 3.38957L12.3791 3.9626ZM13.8675 4.49725L14.2809 2.30807H14.8984L14.4807 4.49705H13.8675V4.49725ZM14.663 2.07756C14.4897 2.07756 14.3742 1.92933 14.3742 1.74725C14.3742 1.54725 14.5297 1.37992 14.7252 1.37992C14.9118 1.37992 15.0317 1.52658 15.0317 1.70433C15.0273 1.93071 14.863 2.07776 14.672 2.07776L14.663 2.07756ZM15.0138 4.49725L15.3382 2.7689H15.0539L15.1427 2.30807H15.4271L15.4449 2.19784C15.4939 1.93996 15.5913 1.67835 15.8002 1.50059C15.9645 1.35847 16.1823 1.29429 16.4002 1.29429C16.5512 1.29429 16.6624 1.31555 16.7332 1.34666L16.6134 1.82599C16.5504 1.80478 16.4843 1.79413 16.4179 1.79449C16.2136 1.79449 16.0892 1.98898 16.0537 2.19803L16.0313 2.30807H16.4579L16.3732 2.7687H15.9514L15.6269 4.49705H15.0138V4.49725ZM17.2177 2.30827L17.3153 3.28819C17.3368 3.46036 17.3546 3.63297 17.3687 3.80591H17.3775C17.4266 3.69075 17.4708 3.5191 17.5598 3.28366L17.9331 2.30827H18.5728L17.8218 3.91103C17.5553 4.46201 17.2976 4.86339 17.0177 5.12559C16.8 5.32992 16.5423 5.43071 16.4179 5.45729L16.249 4.93681C16.3514 4.90118 16.4799 4.84744 16.5955 4.76319C16.7376 4.66555 16.8577 4.53189 16.9287 4.39429C16.9464 4.36319 16.951 4.34213 16.9421 4.29784L16.5732 2.30847L17.2177 2.30827ZM23.4269 2.51398C23.3683 2.51398 23.309 2.56378 23.2978 2.62225L23.0907 3.69784C22.9785 4.24567 22.6419 4.32048 22.3266 4.32048C21.7584 4.32048 21.7441 3.99685 21.8049 3.68032L22.0486 2.41654C22.0598 2.35748 22.0199 2.30807 21.961 2.30807C21.9023 2.30807 21.8431 2.35768 21.8319 2.41634L21.5884 3.68032C21.5393 3.93504 21.5569 4.1252 21.6421 4.26142C21.7488 4.43248 21.9663 4.5191 22.2882 4.5191C22.61 4.5191 22.8608 4.43248 23.0336 4.26142C23.1714 4.1252 23.262 3.93504 23.3112 3.68032L23.5147 2.62244C23.5258 2.56378 23.4858 2.51418 23.4269 2.51418V2.51398ZM21.4697 1.38996C21.411 1.38996 21.3516 1.43957 21.3403 1.49823L20.7846 4.38406C20.7734 4.44272 20.8134 4.49233 20.8722 4.49233C20.9309 4.49233 20.9901 4.44272 21.0014 4.38406L21.5571 1.49823C21.5685 1.43957 21.5283 1.38996 21.4697 1.38996ZM3.52754 0.933664L3.37793 0.980121C3.35945 0.919402 3.33547 0.860497 3.30628 0.804137C3.20018 0.601775 3.04486 0.494688 2.85746 0.494294H2.85667C2.84368 0.494294 2.83069 0.495475 2.8177 0.496657C2.81223 0.489948 2.80652 0.483447 2.80057 0.477168C2.71888 0.389767 2.61396 0.347247 2.48856 0.35079C2.24604 0.357877 2.0047 0.532877 1.80903 0.843704C1.67124 1.0624 1.56691 1.33721 1.53699 1.55L1.05982 1.69764C0.919467 1.74174 0.91494 1.74626 0.896436 1.87874C0.882656 1.97874 0.515137 4.82087 0.515137 4.82087L3.56435 5.34843V0.927168C3.5519 0.92802 3.53956 0.93013 3.52754 0.933468V0.933664ZM2.8234 1.15177L2.30903 1.31122C2.35884 1.12067 2.45313 0.931302 2.56888 0.80709C2.61179 0.76083 2.67203 0.709255 2.74329 0.679924C2.81061 0.819688 2.82498 1.01792 2.8234 1.15177ZM2.49309 0.512011C2.54445 0.509395 2.59536 0.522809 2.63876 0.550397C2.56822 0.588164 2.50464 0.637694 2.45077 0.696853C2.29683 0.862011 2.17872 1.11851 2.13187 1.36575L1.70943 1.49646C1.7927 1.10729 2.11888 0.523035 2.49309 0.512208V0.512011ZM2.02163 2.73032C2.03797 2.98977 2.72045 3.04626 2.75884 3.65394C2.78896 4.13209 2.50529 4.45906 2.09644 4.48485C1.60588 4.51575 1.33581 4.22638 1.33581 4.22638L1.43974 3.78406C1.43974 3.78406 1.7114 3.98918 1.92911 3.9754C2.07124 3.96634 2.12203 3.85079 2.11691 3.7689C2.09565 3.43052 1.54014 3.4504 1.5047 2.89449C1.47518 2.42658 1.78246 1.95237 2.46061 1.90965C2.72183 1.89311 2.85569 1.95965 2.85569 1.95965L2.70057 2.53977C2.70057 2.53977 2.52754 2.46103 2.32262 2.47382C2.02183 2.49311 2.01848 2.68268 2.02163 2.73032ZM2.98443 1.10197C2.98246 0.979137 2.96789 0.808664 2.91081 0.661027C3.09466 0.695869 3.18522 0.90394 3.2234 1.02796L2.98443 1.10197ZM3.66533 5.33622L4.93029 5.02185C4.93029 5.02185 4.38561 1.33937 4.38226 1.31398C4.38058 1.30323 4.37535 1.29335 4.36739 1.28592C4.35943 1.2785 4.34921 1.27396 4.33836 1.27303C4.32025 1.27166 3.96396 1.26614 3.96396 1.26614C3.96396 1.26614 3.74683 1.05551 3.66533 0.975594V5.33622Z" fill="black"/>
</svg>
