<svg width="26" height="26" viewBox="0 0 26 26" fill="none" xmlns="http://www.w3.org/2000/svg">
<g clip-path="url(#clip0)">
<path d="M25.9487 13.125C25.9487 20 20.3237 25.625 13.4487 25.625C6.57373 25.625 0.94873 20 0.94873 13.125C0.94873 6.25 6.57373 0.625 13.4487 0.625C20.3237 0.625 25.9487 6.25 25.9487 13.125Z" fill="#4353FF"/>
<path d="M17.2611 11.5184C17.2611 11.5184 16.1798 14.9059 16.0986 15.1934C16.0673 14.9059 15.2798 8.81836 15.2798 8.81836C13.4361 8.81836 12.4548 10.1246 11.9361 11.5184C11.9361 11.5184 10.6236 14.9184 10.5173 15.2059C10.5111 14.9371 10.3173 11.5559 10.3173 11.5559C10.2048 9.85586 8.65481 8.82461 7.39856 8.82461L8.91106 18.0496C10.8423 18.0434 11.8798 16.7371 12.4236 15.3496C12.4236 15.3496 13.5798 12.3496 13.6298 12.2121C13.6423 12.3434 14.4611 18.0496 14.4611 18.0496C16.3923 18.0496 17.4361 16.8246 17.9986 15.4871L20.6986 8.81836C18.7861 8.81836 17.7798 10.1246 17.2611 11.5184Z" fill="white"/>
</g>
<defs>
<clipPath id="clip0">
<rect x="0.94873" y="0.625" width="25" height="25" fill="white"/>
</clipPath>
</defs>
</svg>
