<?xml version="1.0" encoding="utf-8"?>
<!-- Generator: Adobe Illustrator 22.1.0, SVG Export Plug-In . SVG Version: 6.00 Build 0)  -->
<svg version="1.1" id="Layer_1" xmlns="http://www.w3.org/2000/svg" xmlns:xlink="http://www.w3.org/1999/xlink" x="0px" y="0px"
	 viewBox="0 0 327.7 280.9" style="enable-background:new 0 0 327.7 280.9;" xml:space="preserve">
<style type="text/css">
	.st0{fill:#FFFFFF;}
	.st1{fill:#4385F4;}
	.st2{fill:none;stroke:#4385F4;stroke-width:2;stroke-miterlimit:10;stroke-dasharray:3,3;}
	.st3{fill:#FF7058;}
	.st4{fill:#FFD15C;}
	.st5{clip-path:url(#SVGID_2_);}
	.st6{fill:#F1543F;}
	.st7{fill:#F8B64C;}
	.st8{clip-path:url(#SVGID_4_);}
	.st9{fill:#FFC952;}
	.st10{fill:none;}
	.st11{opacity:0.5;fill:#4385F4;enable-background:new    ;}
	.st12{opacity:0.5;}
	.st13{fill:#2C72C6;}
	.st14{fill:#3D597A;}
	.st15{fill:#FFA829;}
	.st16{enable-background:new    ;}
</style>
<title>badge-1</title>
<ellipse class="st0" cx="164.2" cy="139.9" rx="136.3" ry="136.1"/>
<path class="st1" d="M164.2,6.9c73.5,0,133.1,59.7,133.1,133.2S237.6,273.2,164,273.2c-73.5,0-133.1-59.7-133.1-133.2
	c0-35.3,14.1-69.1,39-94.1C95,20.8,128.9,6.7,164.2,6.9 M164.2,0.8C87.3,0.8,25,63.1,25,139.8S87.3,279,164.2,279
	s139.3-62.2,139.3-139S241.1,0.9,164.2,0.8L164.2,0.8z"/>
<path class="st2" d="M164.1,268.9c71.2,0,129-57.7,129-128.8s-57.8-128.8-129-128.8S35.1,68.9,35.1,140S92.8,268.9,164.1,268.9"/>
<polygon class="st3" points="174.4,141.2 158.6,141.2 161.3,135.5 163.6,130.1 169.3,130.1 171.7,135.5 "/>
<path class="st4" d="M184.4,141.2h-35.9c-2,0-3.6,1.6-3.6,3.6v11.6h42.9v-11.6c0.1-1.8-1.3-3.4-3.1-3.6
	C184.6,141.2,184.5,141.2,184.4,141.2"/>
<g>
	<defs>
		<path id="SVGID_1_" d="M171.7,135.5c-1.4,0.7-2.8,1.4-4.3,2l-0.9,0.2l-0.9-0.4c-1.5-0.6-2.9-1.3-4.3-2l2.3-5.4h5.6L171.7,135.5z"
			/>
	</defs>
	<clipPath id="SVGID_2_">
		<use xlink:href="#SVGID_1_"  style="overflow:visible;"/>
	</clipPath>
	<g class="st5">
		<rect x="156.3" y="124.9" class="st6" width="20.4" height="17.7"/>
	</g>
</g>
<path class="st7" d="M194.5,70.4h-56c-1.2,0-2.1,1-2.2,2.2c-0.1,1.2,0.9,2.3,2.1,2.3c0,0,0,0,0,0h56c1.2,0,2.1-1,2.1-2.2
	C196.7,71.5,195.7,70.5,194.5,70.4C194.5,70.4,194.5,70.4,194.5,70.4z M123.4,80.3v7.3c0.1,17.4,10.6,33.1,26.8,39.8
	c10.5,4.3,22.2,4.3,32.7,0c16.1-6.6,26.7-22.3,26.8-39.8v-7.4L123.4,80.3z M202.4,87.6c0,8.3-2.9,16.4-8.3,22.8
	c-6.8,8.2-17,13-27.6,13.1c-10.7,0-20.9-4.8-27.6-13.1c-5.3-6.4-8.2-14.5-8.3-22.8v-0.2h71.6v0.2L202.4,87.6z"/>
<path class="st4" d="M194.5,74.9v19.3c0,18-11.2,34.2-28,40.7c-16.9-6.6-28-22.8-28-40.9V74.9H194.5z"/>
<g>
	<defs>
		<rect id="SVGID_3_" x="138.5" y="74.9" width="55.8" height="2.7"/>
	</defs>
	<clipPath id="SVGID_4_">
		<use xlink:href="#SVGID_3_"  style="overflow:visible;"/>
	</clipPath>
	<g class="st8">
		<rect x="133.5" y="69.9" class="st9" width="65.8" height="12.7"/>
	</g>
</g>
<path class="st0" d="M164,95.3c0,0-1.6-0.2-1.6,1.3v6.3H173v1.9c0,0.5-0.4,0.9-0.9,1c0,0-0.1,0-0.1,0h-9.6v8.2H174
	c0,0,7-1.1,7.1-8.2V95.3H164z M180.4,85.1h-20.6c-7.5,1.8-7.6,8-7.6,8V114h8V95c0-0.9,0.6-1.7,1.5-2h18.8L180.4,85.1z"/>
<path class="st10" d="M231.6,239.8l0.1-0.1C231.7,239.8,231.7,239.8,231.6,239.8z M246.1,226.7L246.1,226.7L246.1,226.7z M259.2,211
	L259.2,211C259.2,210.9,259.2,211,259.2,211z M274.9,178.2L274.9,178.2z M278.8,161.2L278.8,161.2
	C278.8,161.2,278.9,161.2,278.8,161.2L278.8,161.2z M278.8,142.9C278.8,142.9,278.8,142.8,278.8,142.9
	C278.8,142.8,278.9,142.9,278.8,142.9L278.8,142.9z M277.5,125.9L277.5,125.9C277.5,125.8,277.5,125.8,277.5,125.9L277.5,125.9z
	 M273.6,110.1L273.6,110.1C273.6,110.1,273.6,110.1,273.6,110.1L273.6,110.1z M268.4,93.1L268.4,93.1L268.4,93.1z M162.1,244.6
	c-9.9,0.4-19.8-0.7-29.4-3.5c3.4-4.4-2.2-8.8-7.6-13c-5.7-4.2-11.3-8.4-11.3-8.4s6.7,6.8,6,12.7c-0.2,1.3-0.2,2.7,0.1,4
	c-1.5-0.7-3.1-1.4-4.6-2.2c4-3.8-0.5-9.2-4.8-14.3c-4.6-5.2-9.2-10.3-9.2-10.3s5.1,7.9,3.4,13.7c-0.4,1.3-0.7,2.6-0.6,4
	c-1.3-1-2.7-1.9-3.9-3c4.4-3.1,1.2-9.3-2-15.1c-3.4-5.9-6.9-11.6-6.9-11.6s3.4,8.6,0.7,14.1c-0.7,1.2-1.1,2.5-1.3,3.9
	c-1.1-1.2-2.2-2.4-3.2-3.6c4.8-2.4,2.9-9.1,0.9-15.3c-2.2-6.4-4.7-12.3-4.6-12.4c-0.1,0,1.8,8.9-1.8,14c-0.9,1.1-1.5,2.3-2,3.7
	c-0.9-1.3-1.7-2.7-2.5-4c5.1-1.8,4.4-8.6,3.5-15c-1.1-6.6-2.4-12.7-2.4-12.8s0.3,9-4.1,13.5c-1,1-1.8,2.2-2.5,3.5
	c-0.4-0.9-0.8-1.8-1.2-2.8c-0.3-0.7-0.6-1.4-0.8-2.1c5.1-1,5.6-7.4,5.7-13.5c0-6.2-0.4-12.1-0.4-12.2s-1,8.4-5.8,12
	c-1.1,0.8-2.1,1.7-2.9,2.8c-0.5-1.9-1-3.9-1.3-5.8c5.1-0.1,6.4-6.1,7.4-11.7s1.3-11.2,1.3-11.3s-2.1,7.6-7.1,10.3
	c-1.2,0.6-2.3,1.4-3.2,2.3c-0.2-2.2-0.4-4.4-0.5-6.6c4.9,0.6,6.9-4.7,8.6-9.9c1-3.4,1.9-6.8,2.6-10.3c-0.1,0-2.8,6.8-7.9,8.7
	c-1.2,0.4-2.4,1-3.4,1.8c0-2,0.2-3.9,0.3-5.9c0-0.5,0.1-0.9,0.1-1.4c4.4,1.2,7.1-3.5,9.2-8s3.6-9.3,3.6-9.3s-3.4,6-8.3,7.1
	c-1.2,0.2-2.3,0.6-3.3,1.2c0.4-2.6,0.9-5.1,1.5-7.7c3.8,1.6,6.9-2.4,9.3-6.4c1.6-2.7,3.1-5.6,4.3-8.5c0,0-3.8,5.4-8.5,5.7
	c-1,0-2,0.2-3,0.6c0.8-2.7,1.6-5.3,2.6-7.9c3.3,1.7,6.4-1.6,9-5c1.8-2.5,3.5-5.1,5-7.7c0,0-4.1,4.7-8.5,4.4c-0.8-0.1-1.6,0-2.4,0.1
	c1.1-2.6,2.2-5.1,3.4-7.7l0.2-0.5c2.7,1.7,5.8-1,8.5-4c2-2.3,3.9-4.7,5.6-7.1c-0.1,0-4.4,4.4-8.3,3.6c-0.8-0.2-1.6-0.2-2.5-0.1
	c2.7-5.7,5.7-11.3,9-16.6c-3.8,5.6-7.1,11-10.1,16.3c-0.3-1-0.8-1.9-1.5-2.7C77,69.6,77,67,77.4,64.7c0.3-1.4,0.7-2.8,1.3-4.2
	c-2,3.2-3.6,6.7-4.8,10.3c-1.5,5.1-1.5,9.9,2,10.5c-1.4,2.8-2.7,5.6-3.9,8.4c-0.5-0.8-1.1-1.5-1.8-2.1c-1.6-1.5-2-4.2-1.9-6.5
	c0.1-1.5,0.3-2.9,0.7-4.3c-1.6,3.4-2.8,7.1-3.5,10.8c-0.9,5.1-0.2,9.9,3.4,10.3c-0.9,2.6-1.7,5.2-2.5,7.7c-0.6-0.6-1.3-1.2-2-1.7
	c-3.8-2.5-3.1-10.2-3-10.8c-1.2,3.7-2,7.5-2.2,11.4c-0.2,5.3,1.1,10.1,4.8,10.2c0,0,0,0,0,0.1c-0.5,2.4-1,4.7-1.3,7.1
	c-0.7-0.6-1.5-1.1-2.3-1.5c-4.4-2.1-4.7-10.1-4.6-10.7c-0.8,4-1.1,8-0.8,12.1c0.5,5.5,2.5,10.4,6.5,9.9c-0.2,2.2-0.3,4.4-0.4,6.7
	c-0.8-0.5-1.7-0.9-2.7-1.2c-4.8-1.5-6.2-9.4-6.3-10.4c-0.3,4.3,0,8.5,0.8,12.7c1.2,5.7,4.2,10.7,8.3,9.5c0.1,2,0.3,4.1,0.5,6.1
	c-1-0.5-2.1-0.8-3.1-1c-5.3-0.9-7.9-9.2-8-10.1c0.3,4.5,1.2,9,2.7,13.3c2.1,6,6.1,10.9,10.2,8.8c0.4,1.9,0.8,3.7,1.3,5.6
	c-1.2-0.4-2.4-0.6-3.7-0.6c-5.8-0.2-9.8-9-9.9-9.5c0.9,4.8,2.6,9.4,4.8,13.7c3.2,6.1,8.3,10.9,12.3,7.6c0.6,1.6,1.3,3.3,2,4.9
	c-1.3-0.3-2.7-0.3-4.1-0.2c-6.2,0.7-11.8-8.3-11.9-8.6c1.8,4.9,4.2,9.6,7.3,13.8c4.4,6,10.7,10.3,14.3,6.1c0.8,1.4,1.7,2.7,2.5,4
	c-1.4-0.1-2.8,0-4.1,0.4c-6.2,1.6-13.4-6.9-13.3-7c2.5,4.8,5.8,9.1,9.7,12.8c5.5,5.4,12.5,8.8,15.4,4c1,1.2,2.1,2.4,3.3,3.6
	c-1.4,0.1-2.8,0.5-4.1,1c-5.6,2.4-13.8-4.1-14.5-4.9c3.4,4.3,7.4,8,11.8,11.1c6.6,4.5,14.2,6.6,16.3,1.6c1.3,1.1,2.6,2.1,4,3.1
	c-1.4,0.3-2.7,0.9-4,1.6c-5.3,3.1-14.6-2-15.6-2.6c4.2,3.7,8.9,6.8,14,9.1c7.5,3.4,15.7,4.1,16.9-1c1.5,0.8,3.1,1.6,4.6,2.3
	c-1.3,0.5-2.6,1.3-3.7,2.2c-4.8,3.9-15.2,0.5-16.3,0c4.9,2.9,10.3,5.1,15.9,6.5c8.3,2,16.7,1.3,17.1-3.9c9.6,2.8,19.7,4,29.7,3.5
	L162.1,244.6z"/>
<path class="st11" d="M99.1,239.2l-0.1-0.1C99,239.2,99.1,239.2,99.1,239.2z M83.8,226.8L83.8,226.8
	C83.7,226.7,83.7,226.7,83.8,226.8z M71.2,212L71.2,212L71.2,212z M54.8,178.4L54.8,178.4z M51.7,161L51.7,161z M51,143.6L51,143.6
	C51,143.5,51,143.5,51,143.6L51,143.6z M52.6,126.3C52.6,126.2,52.6,126.2,52.6,126.3C52.6,126.2,52.6,126.3,52.6,126.3L52.6,126.3z
	 M56.3,109.3L56.3,109.3L56.3,109.3z M61.8,92.7L61.8,92.7C61.8,92.7,61.8,92.7,61.8,92.7z"/>
<g class="st12">
	<path class="st1" d="M161.6,243.8c-9.8,0.4-19.7-0.7-29.1-3.5c3.4-4.4-2.2-8.7-7.6-12.9l-11.2-8.4c-0.1,0.1,6.6,6.8,6,12.6
		c-0.2,1.3-0.2,2.7,0.1,4c-1.5-0.7-3-1.4-4.5-2.2c3.9-3.8-0.5-9.2-4.8-14.3c-4.5-5.2-9.1-10.2-9.1-10.2s5,7.9,3.3,13.6
		c-0.4,1.3-0.7,2.6-0.6,4c-1.3-1-2.6-1.9-3.9-3c4.4-3.1,1.2-9.3-2-15.1c-3.4-5.9-6.8-11.6-6.8-11.6s3.4,8.6,0.7,14.1
		c-0.7,1.2-1.1,2.5-1.3,3.9c-1.1-1.2-2.2-2.4-3.2-3.6c4.7-2.4,2.9-9,0.9-15.3c-2.2-6.4-4.6-12.3-4.6-12.4s1.8,8.9-1.8,14
		c-0.9,1.1-1.5,2.3-2,3.7c-0.9-1.3-1.7-2.7-2.5-4c5-1.8,4.4-8.5,3.5-14.9c-1.1-6.5-2.4-12.7-2.4-12.8s0.3,9-4.1,13.5
		c-1,1-1.9,2.1-2.5,3.3c-0.4-0.9-0.8-1.8-1.2-2.7c-0.3-0.7-0.6-1.4-0.8-2.1c5.1-0.9,5.5-7.4,5.7-13.4c0-6.2-0.4-12.1-0.4-12.1
		s-1,8.3-5.8,12c-1.1,0.8-2.1,1.7-2.9,2.8c-0.5-1.9-1-3.8-1.3-5.8c5-0.1,6.4-6,7.4-11.7s1.4-11.3,1.3-11.3s-2,7.6-7,10.3
		c-1.2,0.6-2.3,1.4-3.2,2.3c-0.2-2.2-0.4-4.4-0.5-6.6c4.8,0.6,6.9-4.7,8.5-9.8c1-3.4,1.9-6.8,2.6-10.3c-0.1,0-2.8,6.8-7.8,8.6
		c-1.2,0.4-2.3,1-3.4,1.8c0.1-1.9,0.2-3.9,0.3-5.8c0-0.5,0.1-0.9,0.1-1.4c4.4,1.2,7.1-3.5,9.1-8s3.6-9.3,3.6-9.3s-3.4,6-8.3,7.1
		c-1.2,0.2-2.3,0.6-3.3,1.1c0.4-2.6,0.9-5.1,1.4-7.6c3.8,1.6,6.8-2.4,9.2-6.3c1.6-2.7,3-5.6,4.3-8.4c0,0-3.8,5.3-8.4,5.7
		c-1,0-2,0.2-2.9,0.6c0.8-2.6,1.6-5.3,2.5-7.9c3.2,1.7,6.4-1.6,8.9-5c1.8-2.5,3.4-5,4.9-7.7c0,0-4.1,4.8-8.4,4.5
		c-0.8-0.1-1.6,0-2.4,0.1c1.1-2.5,2.2-5.1,3.4-7.7l0.2-0.5c2.7,1.7,5.8-1,8.5-4c2-2.3,3.8-4.7,5.6-7.1c0,0-4.4,4.4-8.2,3.6
		C82.6,74,81.8,74,81,74.1c2.7-5.7,5.7-11.2,9-16.6c-3.8,5.5-7.1,10.9-10,16.2c-0.3-1-0.8-1.9-1.4-2.7c-1.2-1.7-1.3-4.3-0.8-6.6
		c0.3-1.4,0.7-2.8,1.2-4.2c-2,3.2-3.6,6.6-4.7,10.2c-1.5,5.1-1.5,9.8,2,10.4c-1.4,2.8-2.7,5.6-3.8,8.4c-0.5-0.8-1.1-1.5-1.7-2.1
		c-1.6-1.5-2-4.2-1.9-6.5c0.1-1.5,0.3-2.9,0.7-4.3c-1.6,3.4-2.8,7.1-3.5,10.8c-0.9,5.1-0.2,9.9,3.3,10.3c-0.9,2.6-1.7,5.1-2.5,7.7
		c-0.6-0.7-1.3-1.2-2-1.7c-3.9-2.5-3.1-10.2-3-10.8c-1.2,3.7-1.9,7.5-2.2,11.4c-0.2,5.3,1.1,10.1,4.8,10.1c0,0,0,0,0,0.1
		c-0.5,2.4-0.9,4.7-1.3,7.1c-0.7-0.6-1.5-1-2.3-1.4c-4.4-2-4.6-10-4.5-10.6c-0.8,4-1.1,8-0.8,12.1c0.5,5.5,2.5,10.4,6.4,9.9
		c-0.2,2.2-0.3,4.4-0.4,6.7c-0.8-0.5-1.7-0.9-2.7-1.2c-4.8-1.5-6.2-9.4-6.2-10.3c-0.3,4.2,0,8.5,0.8,12.6c1.2,5.7,4.2,10.7,8.2,9.5
		c0.1,2,0.3,4.1,0.5,6.1c-1-0.5-2-0.8-3.1-1c-5.3-0.9-7.8-9.2-8-10c0.3,4.5,1.2,9,2.7,13.3c2.1,5.9,6.1,10.9,10.2,8.7
		c0.4,1.9,0.8,3.7,1.3,5.6c-1.2-0.4-2.4-0.6-3.6-0.6c-5.8-0.2-9.7-8.9-9.9-9.5c1,4.8,2.6,9.4,4.8,13.7c3.2,6.1,8.2,10.8,12.2,7.6
		c0.6,1.6,1.3,3.3,2,4.9c-1.3-0.3-2.7-0.3-4.1-0.2c-6.2,0.7-11.8-8.3-11.8-8.6c1.7,4.9,4.2,9.5,7.3,13.7c4.4,6,10.6,10.3,14.2,6.1
		c0.8,1.3,1.6,2.7,2.5,4c-1.4-0.1-2.7,0-4.1,0.4c-6.1,1.6-13.3-6.9-13.2-7c2.5,4.7,5.7,9,9.5,12.7c5.4,5.4,12.4,8.7,15.3,4
		c1,1.2,2.1,2.4,3.2,3.6c-1.4,0.1-2.7,0.4-4,0.9c-5.7,2.4-13.7-4-14.4-4.8c3.3,4.3,7.3,8,11.8,11.1c6.5,4.5,14.1,6.6,16.2,1.6
		c1.3,1.1,2.6,2.1,4,3c-1.4,0.3-2.8,0.9-4,1.6c-5.2,3.1-14.5-1.9-15.4-2.6c4.2,3.7,8.8,6.8,13.9,9.1c7.4,3.4,15.5,4.1,16.8-1
		c1.5,0.8,3,1.6,4.6,2.3c-1.3,0.5-2.6,1.3-3.7,2.2c-4.8,3.9-15,0.5-16.2,0c4.9,3,10.3,5.2,15.9,6.5c8.2,2,16.6,1.3,17-3.9
		c9.6,2.8,19.5,4,29.5,3.5L161.6,243.8z"/>
</g>
<path class="st10" d="M168.7,243.8c9.8,0.4,19.7-0.7,29.1-3.5c-3.4-4.4,2.2-8.7,7.6-12.9l11.2-8.4c0.1,0.1-6.6,6.8-6,12.6
	c0.2,1.3,0.2,2.7-0.1,4c1.5-0.7,3-1.4,4.5-2.2c-3.9-3.8,0.5-9.2,4.8-14.3c4.5-5.2,9.1-10.2,9.1-10.2s-5,7.9-3.3,13.6
	c0.5,1.3,0.7,2.6,0.6,4c1.3-1,2.6-1.9,3.9-3c-4.4-3.1-1.2-9.3,1.9-15.1c3.4-5.9,6.8-11.6,6.8-11.6s-3.4,8.6-0.7,14.1
	c0.7,1.2,1.1,2.5,1.3,3.9c1.1-1.2,2.2-2.4,3.2-3.6c-4.7-2.4-2.9-9-0.9-15.3c2.2-6.4,4.6-12.3,4.6-12.4s-1.8,8.9,1.8,14
	c0.9,1.1,1.5,2.3,1.9,3.7c0.9-1.3,1.7-2.7,2.5-4c-5-1.8-4.4-8.5-3.5-14.9c1.1-6.5,2.4-12.7,2.4-12.8s-0.3,9,4.1,13.5
	c1,1,1.9,2.1,2.5,3.3c0.4-0.9,0.8-1.8,1.1-2.7c0.3-0.7,0.6-1.4,0.8-2.1c-5.1-0.9-5.5-7.4-5.7-13.4c0-6.2,0.4-12.1,0.4-12.1
	s1,8.3,5.8,12c1.1,0.8,2.1,1.7,2.9,2.8c0.5-1.9,1-3.8,1.3-5.8c-5-0.1-6.4-6-7.4-11.7c-0.8-5.7-1.3-11.2-1.3-11.3s2,7.6,7,10.3
	c1.2,0.6,2.3,1.4,3.2,2.3c0.2-2.2,0.4-4.4,0.5-6.6c-4.8,0.6-6.9-4.7-8.5-9.8c-1-3.4-1.9-6.8-2.6-10.3c0.1,0,2.8,6.8,7.8,8.6
	c1.2,0.4,2.3,1,3.4,1.8c-0.1-1.9-0.2-3.9-0.3-5.8c0-0.5-0.1-0.9-0.1-1.4c-4.4,1.2-7.1-3.5-9.1-8s-3.5-9.3-3.6-9.3s3.4,6,8.3,7.1
	c1.1,0.2,2.2,0.6,3.3,1.2c-0.4-2.6-0.9-5.1-1.5-7.6c-3.8,1.6-6.8-2.4-9.2-6.3c-1.6-2.7-3-5.6-4.3-8.4c0,0,3.8,5.3,8.4,5.7
	c1,0,2,0.2,2.9,0.6c-0.8-2.6-1.6-5.3-2.5-7.9c-3.2,1.7-6.4-1.6-8.9-5c-1.8-2.5-3.4-5-4.9-7.7c0,0,4.1,4.8,8.4,4.5
	c0.8-0.1,1.6,0,2.4,0.1c-1.1-2.5-2.2-5.1-3.4-7.7l-0.2-0.5c-2.7,1.7-5.8-1-8.5-4c-2-2.3-3.8-4.7-5.6-7.1c0,0,4.4,4.4,8.2,3.6
	c0.8-0.2,1.6-0.2,2.4-0.1c-2.7-5.7-5.7-11.2-9-16.5c3.8,5.5,7.1,10.9,10,16.2c0.3-1,0.8-1.9,1.4-2.7c1.2-1.7,1.3-4.3,0.8-6.6
	c-0.3-1.4-0.7-2.8-1.2-4.2c2,3.2,3.6,6.6,4.7,10.2c1.5,5.1,1.5,9.8-2,10.4c1.4,2.8,2.7,5.6,3.8,8.4c0.5-0.8,1.1-1.5,1.7-2.1
	c1.6-1.5,2-4.2,1.9-6.5c-0.1-1.5-0.3-2.9-0.7-4.3c1.6,3.4,2.8,7.1,3.5,10.8c0.9,5.1,0.2,9.9-3.3,10.3c0.9,2.6,1.7,5.1,2.5,7.7
	c0.6-0.7,1.3-1.2,2-1.7c3.8-2.5,3.1-10.2,2.9-10.8c1.2,3.7,1.9,7.5,2.2,11.4c0.2,5.3-1.1,10.1-4.8,10.1c0,0,0,0,0,0.1
	c0.5,2.4,0.9,4.7,1.3,7.1c0.7-0.6,1.5-1.1,2.3-1.5c4.4-2,4.6-10,4.5-10.6c0.8,4,1.1,8,0.8,12.1c-0.5,5.5-2.5,10.4-6.4,9.9
	c0.2,2.2,0.3,4.4,0.4,6.7c0.8-0.5,1.7-0.9,2.7-1.2c4.8-1.5,6.1-9.4,6.2-10.3c0.3,4.2,0,8.5-0.8,12.7c-1.2,5.7-4.2,10.7-8.2,9.5
	c-0.1,2-0.3,4.1-0.5,6.1c1-0.5,2-0.8,3.1-1c5.3-0.9,7.8-9.2,8-10c-0.3,4.5-1.2,9-2.7,13.3c-2.1,5.9-6.1,10.9-10.1,8.7
	c-0.4,1.9-0.8,3.7-1.3,5.6c1.2-0.4,2.4-0.6,3.6-0.6c5.8-0.2,9.7-8.9,9.9-9.5c-1,4.8-2.6,9.4-4.8,13.7c-3.2,6.1-8.2,10.8-12.2,7.6
	c-0.6,1.6-1.3,3.3-2,4.9c1.3-0.3,2.7-0.3,4.1-0.2c6.1,0.7,11.8-8.3,11.8-8.6c-1.7,4.9-4.2,9.5-7.3,13.7c-4.4,6-10.6,10.3-14.2,6.1
	c-0.8,1.3-1.6,2.7-2.5,4c1.4-0.1,2.7,0,4.1,0.4c6.1,1.6,13.3-6.9,13.2-7c-2.5,4.7-5.7,9-9.5,12.7c-5.4,5.4-12.4,8.7-15.3,4
	c-1,1.2-2.1,2.4-3.2,3.6c1.4,0.1,2.7,0.4,4,0.9c5.6,2.3,13.7-4.1,14.4-4.9c-3.3,4.3-7.3,8-11.7,11.1c-6.5,4.5-14.1,6.6-16.2,1.6
	c-1.3,1.1-2.6,2.1-4,3c1.4,0.3,2.7,0.9,3.9,1.6c5.2,3.1,14.5-1.9,15.4-2.6c-4.2,3.7-8.8,6.8-13.9,9.1c-7.4,3.4-15.5,4.1-16.8-1
	c-1.5,0.8-3,1.6-4.6,2.3c1.3,0.5,2.6,1.3,3.7,2.2c4.8,3.9,15,0.5,16.2,0c-4.9,3-10.2,5.2-15.8,6.6c-8.2,2-16.6,1.3-17-3.9
	c-9.6,2.8-19.5,4-29.5,3.5l-0.2-1.6L168.7,243.8z"/>
<path d="M203,220c0.3-0.3,0.4-0.7,0.4-1.2c0-0.1,0-0.2,0-0.5s0-0.4,0-0.5c0-0.4-0.1-0.8-0.4-1.2c-0.3-0.3-0.6-0.4-1-0.4
	c-0.4,0-0.7,0.1-1,0.4c-0.3,0.3-0.4,0.7-0.4,1.2v0.5v0.5c0,0.4,0.1,0.8,0.4,1.2c0.3,0.3,0.6,0.4,1,0.4
	C202.4,220.4,202.7,220.3,203,220z M199.8,220.9c-0.5-0.5-0.8-1.2-0.8-2v-1.1c0-0.8,0.3-1.5,0.8-2c1.3-1,3-1,4.3,0
	c0.5,0.5,0.8,1.2,0.8,2c0,0.1,0,0.3,0,0.5s0,0.4,0,0.5c0,0.8-0.3,1.5-0.8,2C202.9,221.8,201.1,221.8,199.8,220.9L199.8,220.9z
	 M193,220.9c-0.5-0.5-0.8-1.2-0.8-2v-0.5v-0.5c0-0.8,0.3-1.5,0.8-2c0.6-0.5,1.3-0.8,2.1-0.7c0.6,0,1.1,0.1,1.6,0.3
	c0.4,0.2,0.7,0.5,1,0.8c0.2,0.3,0.3,0.6,0.3,0.9c0,0.1,0,0.2-0.1,0.2c-0.1,0.1-0.1,0.1-0.2,0.1h-1.1c-0.1,0-0.1,0-0.2,0
	c-0.1-0.1-0.1-0.1-0.1-0.2c-0.1-0.3-0.3-0.5-0.5-0.7c-0.2-0.1-0.5-0.2-0.8-0.2c-0.4,0-0.7,0.1-1,0.4c-0.3,0.3-0.4,0.8-0.4,1.2v0.8
	c0.1,1,0.5,1.6,1.3,1.6c0.3,0,0.5-0.1,0.8-0.2c0.2-0.2,0.4-0.4,0.5-0.7c0-0.1,0.1-0.1,0.1-0.2c0.1,0,0.1-0.1,0.2-0.1h1.1
	c0.1,0,0.2,0,0.2,0.1c0.1,0.1,0.1,0.1,0.1,0.2c0,0.3-0.1,0.6-0.3,0.9c-0.3,0.4-0.6,0.7-1,0.8c-0.5,0.2-1.1,0.4-1.6,0.4
	C194.3,221.7,193.5,221.4,193,220.9L193,220.9z M189.3,221.4c-0.1-0.1-0.1-0.1-0.1-0.2V220c0-0.1,0.1-0.3,0.2-0.3c0,0,0,0,0,0h1.2
	c0.1,0,0.1,0,0.2,0.1c0.1,0.1,0.1,0.1,0.1,0.2v1.2c0,0.1,0,0.1-0.1,0.2c-0.1,0.1-0.1,0.1-0.2,0.1h-1.2
	C189.4,221.5,189.3,221.5,189.3,221.4L189.3,221.4z M183.8,221.3c-0.3-0.1-0.7-0.4-0.9-0.6c-0.2-0.2-0.3-0.4-0.3-0.6
	c0-0.1,0-0.1,0.1-0.2c0.1,0,0.1-0.1,0.2-0.1h1c0.1,0,0.1,0,0.2,0.1l0.3,0.2c0.3,0.3,0.7,0.4,1.1,0.4c0.3,0,0.5-0.1,0.8-0.2
	c0.2-0.1,0.3-0.3,0.3-0.5c0-0.1,0-0.3-0.1-0.4c-0.1-0.1-0.3-0.2-0.5-0.3c-0.4-0.1-0.7-0.2-1.1-0.3c-0.6-0.1-1.1-0.3-1.5-0.7
	c-0.3-0.3-0.5-0.7-0.5-1.2c0-0.3,0.1-0.6,0.3-0.9c0.2-0.3,0.5-0.5,0.9-0.7c0.4-0.2,0.9-0.3,1.4-0.3c0.5,0,1,0.1,1.4,0.2
	c0.3,0.1,0.6,0.4,0.9,0.6c0.2,0.2,0.3,0.4,0.3,0.6c0,0.1,0,0.1-0.1,0.2c0,0.1-0.1,0.1-0.2,0.1h-0.9c-0.1,0-0.2,0-0.2-0.1
	c-0.1-0.1-0.2-0.1-0.3-0.2c-0.1-0.1-0.3-0.2-0.4-0.2c-0.2-0.1-0.4-0.1-0.6-0.1c-0.2,0-0.5,0-0.7,0.2c-0.2,0.1-0.2,0.3-0.2,0.5
	c0,0.1,0,0.3,0.1,0.4c0.1,0.1,0.3,0.2,0.5,0.3c0.3,0.1,0.7,0.2,1,0.2c1.4,0.3,2.2,0.9,2.2,1.9c0,0.6-0.3,1.1-0.7,1.4
	c-0.6,0.4-1.3,0.6-2.1,0.5C184.7,221.7,184.2,221.6,183.8,221.3L183.8,221.3z M172.1,221.4c-0.1-0.1-0.1-0.1-0.1-0.2v-5.7
	c0-0.1,0-0.2,0.1-0.2c0.1,0,0.1-0.1,0.2-0.1h0.9c0.1,0,0.2,0,0.2,0.1c0.1,0.1,0.1,0.1,0.1,0.2v0.4c0.4-0.5,1.1-0.8,1.7-0.8
	c0.8-0.1,1.5,0.4,1.9,1.1c0.2-0.3,0.5-0.6,0.8-0.8c0.3-0.2,0.7-0.3,1.1-0.3c0.6,0,1.2,0.2,1.6,0.7c0.4,0.5,0.7,1.2,0.6,1.9v3.4
	c0,0.1,0,0.1-0.1,0.2c-0.1,0.1-0.1,0.1-0.2,0.1h-1c-0.1,0-0.2,0-0.2-0.1c-0.1-0.1-0.1-0.1-0.1-0.2v-3.4c0-0.4-0.1-0.8-0.3-1.1
	c-0.2-0.2-0.5-0.4-0.8-0.3c-0.3,0-0.6,0.1-0.8,0.3c-0.2,0.3-0.4,0.7-0.3,1.1v3.4c0,0.1,0,0.1-0.1,0.2c-0.1,0.1-0.1,0.1-0.2,0.1h-1
	c-0.2,0-0.3-0.1-0.3-0.3v-3.4c0-0.4-0.1-0.8-0.3-1.1c-0.2-0.2-0.5-0.3-0.8-0.3c-0.3,0-0.6,0.1-0.8,0.3c-0.2,0.3-0.4,0.7-0.3,1.1v3.4
	c0,0.1,0,0.1-0.1,0.2c-0.1,0.1-0.1,0.1-0.2,0.1h-1C172.3,221.6,172.2,221.5,172.1,221.4L172.1,221.4z M167.1,221.4
	c-0.1-0.1-0.1-0.1-0.1-0.2v-5.6c0-0.1,0-0.2,0.1-0.2c0.1-0.1,0.1-0.1,0.2-0.1h1c0.1,0,0.2,0,0.2,0.1c0.1,0.1,0.1,0.1,0.1,0.2v0.5
	c0.4-0.5,1.1-0.8,1.7-0.8h0.5c0.1,0,0.2,0,0.2,0.1c0.1,0.1,0.1,0.1,0.1,0.2v0.9c0,0.1,0,0.1-0.1,0.2c-0.1,0.1-0.1,0.1-0.2,0.1h-0.9
	c-0.3,0-0.6,0.1-0.9,0.3c-0.2,0.2-0.3,0.6-0.3,0.9v3.3c0,0.1,0,0.1-0.1,0.2c-0.1,0.1-0.1,0.1-0.2,0.1h-1.1
	C167.2,221.5,167.1,221.5,167.1,221.4L167.1,221.4z M160.4,221.4c-0.1-0.1-0.1-0.1-0.1-0.2v-4.7h-1c-0.1,0-0.3-0.1-0.3-0.2
	c0,0,0,0,0,0v-0.7c0-0.1,0-0.1,0.1-0.2c0.1-0.1,0.1-0.1,0.2-0.1h1v-0.5c0-0.6,0.2-1.2,0.6-1.6c0.5-0.4,1.1-0.6,1.8-0.5h2.5
	c0.1,0,0.2,0,0.2,0.1c0.1,0.1,0.1,0.1,0.1,0.2v0.7c0,0.1,0,0.2-0.1,0.2c-0.1,0.1-0.1,0.1-0.2,0.1h-2.4c-0.2,0-0.5,0.1-0.7,0.2
	c-0.1,0.2-0.2,0.5-0.2,0.7v0.4h3.3c0.1,0,0.2,0,0.2,0.1c0.1,0.1,0.1,0.1,0.1,0.2v5.7c0,0.1,0,0.1-0.1,0.2c-0.1,0.1-0.1,0.1-0.2,0.1
	h-1c-0.2,0-0.3-0.1-0.3-0.3v-4.7h-2v4.7c0,0.1,0,0.1-0.1,0.2c-0.1,0.1-0.1,0.1-0.2,0.1h-1C160.5,221.5,160.4,221.5,160.4,221.4
	L160.4,221.4z M156,219.9c0.2-0.3,0.4-0.7,0.4-1.1c0-0.1,0-0.2,0-0.5s0-0.4,0-0.5c0-0.4-0.1-0.7-0.4-1c-0.3-0.3-0.6-0.4-1-0.4
	c-0.9,0-1.3,0.5-1.4,1.6v0.7c0.1,1,0.5,1.6,1.4,1.6C155.4,220.4,155.8,220.2,156,219.9z M152.7,220.9c-0.5-0.6-0.7-1.3-0.7-2.1V218
	c0-0.7,0.2-1.5,0.7-2.1c0.5-0.5,1.2-0.8,1.9-0.8c0.7,0,1.4,0.3,1.8,0.8v-2.7c0-0.1,0-0.2,0.1-0.2c0.1,0,0.1-0.1,0.2-0.1h1
	c0.1,0,0.2,0,0.2,0.1c0.1,0.1,0.1,0.1,0.1,0.2v8c0,0.1,0,0.1-0.1,0.2c-0.1,0.1-0.1,0.1-0.2,0.1h-1c-0.2,0-0.3-0.1-0.3-0.3v-0.4
	c-0.9,1.1-2.6,1.2-3.6,0.2C152.7,221,152.6,221,152.7,220.9L152.7,220.9z M148.8,220.1c0.3-0.3,0.4-0.7,0.4-1.2c0-0.1,0-0.2,0-0.5
	s0-0.4,0-0.5c0-0.4-0.1-0.8-0.4-1.2c-0.3-0.3-0.6-0.4-1-0.4c-0.4,0-0.7,0.1-1,0.4c-0.3,0.3-0.4,0.7-0.4,1.2v0.9
	c0,0.4,0.1,0.8,0.4,1.2c0.3,0.3,0.6,0.4,1,0.4C148.2,220.5,148.6,220.3,148.8,220.1L148.8,220.1z M145.7,221c-0.5-0.5-0.8-1.2-0.8-2
	v-1.1c0-0.8,0.3-1.5,0.8-2c0.6-0.5,1.4-0.8,2.2-0.7c0.8,0,1.6,0.2,2.2,0.7c0.5,0.5,0.8,1.2,0.8,2c0,0.1,0,0.3,0,0.5s0,0.4,0,0.5
	c0,0.8-0.3,1.5-0.8,2C148.7,221.9,147,221.9,145.7,221L145.7,221z M141.7,220.1c0.3-0.3,0.4-0.7,0.4-1.2c0-0.2,0-0.3,0-0.5
	c0-0.2,0-0.3,0-0.5c0-0.4-0.1-0.8-0.4-1.2c-0.3-0.3-0.6-0.4-1-0.4c-0.4,0-0.7,0.1-1,0.4c-0.3,0.3-0.4,0.7-0.4,1.2v0.9
	c0,0.4,0.1,0.8,0.4,1.2C140.3,220.6,141.2,220.6,141.7,220.1L141.7,220.1z M138.6,221c-0.5-0.5-0.8-1.2-0.8-2v-1.1
	c0-0.8,0.3-1.5,0.8-2c1.3-1,3-1,4.3,0c0.5,0.5,0.8,1.2,0.8,2c0,0.1,0,0.3,0,0.5s0,0.4,0,0.5c0,0.8-0.3,1.5-0.8,2
	C141.6,221.9,139.9,221.9,138.6,221L138.6,221z M134.4,219.8c0.2-0.3,0.4-0.7,0.4-1.1c0-0.1,0-0.3,0-0.4c0-0.1,0-0.3,0-0.4
	c0-0.4-0.1-0.8-0.4-1.1c-0.2-0.3-0.6-0.4-1-0.4c-0.9,0-1.3,0.5-1.4,1.6v0.3c0,1.2,0.5,1.9,1.4,1.9
	C133.8,220.3,134.2,220.1,134.4,219.8L134.4,219.8z M131.7,223.8c-0.4-0.2-0.7-0.5-0.9-0.8c-0.2-0.2-0.3-0.5-0.3-0.8
	c0-0.1,0-0.1,0.1-0.2c0.1,0,0.1-0.1,0.2-0.1h1.1c0.1,0,0.1,0,0.2,0.1c0.1,0.1,0.1,0.1,0.1,0.2c0.1,0.2,0.2,0.4,0.4,0.5
	c0.2,0.2,0.5,0.2,0.8,0.2c0.6,0.1,1.3-0.3,1.4-0.9c0-0.2,0-0.3,0-0.5v-0.8c-1,1-2.7,1-3.7,0c-0.4-0.6-0.7-1.3-0.7-2.1v-0.3V218
	c0-0.7,0.2-1.5,0.7-2.1c0.5-0.5,1.2-0.8,1.9-0.8c0.4,0,0.8,0.1,1.1,0.2c0.3,0.2,0.6,0.4,0.8,0.6v-0.5c0-0.1,0-0.2,0.1-0.2
	c0.1-0.1,0.1-0.1,0.2-0.1h1c0.1,0,0.2,0,0.2,0.1c0.1,0.1,0.1,0.1,0.1,0.2v5.8c0.1,0.8-0.2,1.5-0.7,2.1c-0.6,0.5-1.4,0.8-2.2,0.7
	C132.8,224.2,132.2,224.1,131.7,223.8L131.7,223.8z"/>
<path class="st13" d="M325.7,166.2h-36.4v55.6h36.4L314,195.7L325.7,166.2z M2.1,166.2h36.4v55.6H2.1l11.7-26.1L2.1,166.2z"/>
<path class="st14" d="M307.7,147.1l-18.4,19v55.6l18.4-18.3V147.1z M20.4,147.1l18.5,19.8v54.9l-18.5-18.4L20.4,147.1z"/>
<polygon class="st1" points="20,203.1 307.7,203.1 307.6,146.8 20,146.8 "/>
<path class="st11" d="M167.4,244.6c9.9,0.4,19.8-0.7,29.4-3.5c-3.4-4.4,2.2-8.8,7.6-13c5.6-4.2,11.3-8.4,11.3-8.4s-6.7,6.8-6,12.7
	c0.2,1.3,0.2,2.7-0.1,4c1.5-0.7,3.1-1.4,4.6-2.2c-4-3.8,0.5-9.2,4.8-14.3c4.6-5.2,9.2-10.3,9.2-10.3s-5.1,7.9-3.4,13.7
	c0.4,1.3,0.7,2.6,0.6,4c1.3-1,2.6-1.9,3.9-3c-4.5-3.1-1.2-9.3,2-15.1c3.4-5.9,6.9-11.6,6.9-11.6s-3.4,8.6-0.7,14.1
	c0.7,1.2,1.1,2.5,1.3,3.9c1.1-1.2,2.2-2.4,3.2-3.6c-4.8-2.4-2.9-9.1-0.9-15.3c2.2-6.4,4.7-12.3,4.6-12.4c0.1,0-1.8,8.9,1.8,14
	c0.9,1.1,1.5,2.3,2,3.7c0.9-1.3,1.7-2.7,2.5-4c-5.1-1.8-4.4-8.6-3.5-15c1.1-6.6,2.4-12.7,2.4-12.8s-0.3,9,4.1,13.5
	c1,1,1.9,2.1,2.6,3.4c0.4-0.9,0.8-1.8,1.2-2.8c0.3-0.7,0.6-1.4,0.8-2.1c-5.1-1-5.6-7.4-5.7-13.5c0-6.2,0.4-12.1,0.4-12.2
	s1,8.4,5.8,12c1.1,0.8,2.1,1.7,2.9,2.8c0.5-1.9,1-3.9,1.4-5.8c-5.1-0.1-6.5-6.1-7.4-11.7s-1.3-11.2-1.3-11.3s2.1,7.6,7.1,10.3
	c1.2,0.6,2.3,1.4,3.2,2.3c0.2-2.2,0.4-4.4,0.5-6.6c-4.9,0.6-6.9-4.7-8.6-9.9c-1-3.4-1.9-6.8-2.6-10.3c0.1,0,2.8,6.8,7.9,8.7
	c1.2,0.4,2.4,1,3.4,1.8c-0.1-2-0.1-3.9-0.3-5.9c0-0.5-0.1-0.9-0.1-1.4c-4.4,1.2-7.1-3.5-9.2-8s-3.6-9.3-3.6-9.3s3.4,6,8.3,7.1
	c1.2,0.2,2.3,0.6,3.3,1.2c-0.4-2.6-0.9-5.1-1.5-7.7c-3.9,1.6-6.9-2.4-9.3-6.4c-1.6-2.7-3.1-5.6-4.4-8.5c0.1,0,3.8,5.4,8.5,5.7
	c1,0,2,0.2,3,0.6c-0.8-2.7-1.6-5.3-2.5-7.9c-3.3,1.7-6.4-1.6-9-5c-1.8-2.5-3.5-5.1-5-7.7c0.1,0,4.1,4.8,8.4,4.5
	c0.8-0.1,1.6,0,2.4,0.1c-1.1-2.6-2.2-5.1-3.4-7.7l-0.2-0.5c-2.7,1.7-5.9-1-8.5-4c-2-2.3-3.9-4.7-5.6-7.1c0.1,0,4.4,4.4,8.3,3.6
	c0.8-0.2,1.6-0.2,2.5-0.1c-2.7-5.7-5.7-11.3-9.1-16.6c3.8,5.5,7.1,11,10.1,16.3c0.3-1,0.8-1.9,1.5-2.7c1.2-1.7,1.3-4.3,0.8-6.7
	c-0.3-1.4-0.7-2.8-1.3-4.2c2,3.2,3.6,6.7,4.8,10.3c1.5,5.1,1.5,9.9-2,10.5c1.4,2.8,2.7,5.6,3.9,8.4c0.5-0.8,1.1-1.5,1.8-2.1
	c1.6-1.5,2-4.2,1.9-6.5c-0.1-1.5-0.3-2.9-0.7-4.3c1.6,3.4,2.8,7.1,3.5,10.8c0.9,5.1,0.2,9.9-3.4,10.3c0.9,2.6,1.7,5.2,2.5,7.7
	c0.6-0.6,1.3-1.2,2-1.7c3.9-2.5,3.1-10.2,3-10.8c1.2,3.7,2,7.5,2.2,11.4c0.2,5.3-1.1,10.1-4.8,10.2c0,0,0,0,0,0.1
	c0.5,2.4,1,4.7,1.3,7.1c0.7-0.6,1.5-1.1,2.3-1.5c4.4-2.1,4.7-10.1,4.6-10.7c0.8,4,1.1,8,0.8,12.1c-0.5,5.5-2.5,10.4-6.5,9.9
	c0.2,2.2,0.3,4.4,0.4,6.7c0.8-0.5,1.7-0.9,2.7-1.2c4.8-1.5,6.2-9.4,6.3-10.4c0.3,4.3,0,8.5-0.8,12.7c-1.2,5.7-4.2,10.7-8.3,9.5
	c-0.1,2-0.3,4.1-0.5,6.1c1-0.5,2.1-0.8,3.1-1c5.3-0.9,7.9-9.2,8-10.1c-0.3,4.5-1.2,9-2.7,13.3c-2.1,6-6.1,10.9-10.2,8.8
	c-0.4,1.9-0.8,3.7-1.3,5.6c1.2-0.4,2.4-0.6,3.7-0.6c5.8-0.2,9.8-9,9.9-9.5c-0.9,4.8-2.6,9.4-4.9,13.7c-3.2,6.1-8.3,10.9-12.3,7.6
	c-0.6,1.6-1.3,3.3-2,4.9c1.3-0.3,2.7-0.3,4.1-0.2c6.2,0.7,11.9-8.3,11.9-8.6c-1.7,4.9-4.2,9.6-7.3,13.8c-4.4,6-10.7,10.3-14.3,6.1
	c-0.8,1.4-1.7,2.7-2.5,4c1.4-0.1,2.8,0,4.1,0.4c6.2,1.6,13.4-6.9,13.3-7c-2.6,4.8-5.8,9.1-9.8,12.8c-5.5,5.4-12.5,8.8-15.4,4
	c-1.1,1.2-2.1,2.4-3.3,3.6c1.4,0.1,2.8,0.5,4.1,1c5.6,2.3,13.8-4.2,14.5-4.9c-3.4,4.3-7.4,8-11.8,11.1c-6.6,4.5-14.2,6.6-16.3,1.6
	c-1.3,1.1-2.6,2.1-4,3.1c1.4,0.3,2.7,0.9,4,1.6c5.3,3.1,14.6-2,15.6-2.6c-4.2,3.7-8.9,6.8-14,9.1c-7.5,3.4-15.7,4.1-16.9-1
	c-1.5,0.8-3.1,1.6-4.6,2.3c1.3,0.5,2.6,1.3,3.7,2.1c4.8,3.9,15.2,0.5,16.3,0c-5,3-10.3,5.2-15.9,6.6c-8.3,2-16.7,1.3-17.1-3.9
	c-9.6,2.8-19.7,4-29.7,3.5L167.4,244.6z"/>
<path class="st15" d="M165.7,17.8l5.9,11.9l13.2,1.9l-9.5,9.3l2.3,13.1l-11.8-6.2l-11.8,6.2l2.2-13.1l-9.6-9.3l13.2-1.9L165.7,17.8z
	"/>
<polygon class="st7" points="129.1,41.1 125.6,33.9 122,41.1 114.1,42.2 119.8,47.8 118.5,55.7 125.6,52 132.6,55.7 131.3,47.8 
	137,42.2 "/>
<polygon class="st7" points="217.2,42.2 209.3,41.1 205.8,33.9 202.2,41.1 194.3,42.2 200.1,47.8 198.7,55.7 205.8,52 212.9,55.7 
	211.5,47.8 "/>
<polygon class="st4" points="109.4,59.8 107.3,55.5 105.2,59.8 100.4,60.4 103.9,63.8 103.1,68.5 107.3,66.3 111.6,68.5 110.8,63.8 
	114.2,60.4 "/>
<polygon class="st4" points="230.9,60.4 226.2,59.8 224,55.5 221.9,59.8 217.2,60.4 220.6,63.8 219.8,68.5 224,66.3 228.3,68.5 
	227.5,63.8 "/>
<g class="st16">
	<path class="st0" d="M90.6,170.5v-9.9h-3.5v-2.1h9.5v2.1h-3.5v9.9H90.6z"/>
</g>
<g class="st16">
	<path class="st0" d="M108.5,164.5c0,3.8-2.2,6.2-5.8,6.2c-3.6,0-5.8-2.4-5.8-6.2c0-3.8,2.2-6.2,5.8-6.2
		C106.3,158.3,108.5,160.7,108.5,164.5z M99.5,164.5c0,2.5,1.3,4.1,3.2,4.1c2,0,3.2-1.6,3.2-4.1c0-2.5-1.3-4.1-3.2-4.1
		S99.5,162,99.5,164.5z"/>
	<path class="st0" d="M115.1,158.5c2.5,0,4.2,1.6,4.2,4.1c0,2.5-1.8,4.1-4.3,4.1h-2.4v3.8h-2.5v-12H115.1z M112.6,164.7h1.8
		c1.4,0,2.3-0.8,2.3-2.1c0-1.4-0.8-2.1-2.3-2.1h-1.8V164.7z"/>
</g>
<g class="st16">
	<path class="st0" d="M132.3,170.5h-7.9v-12h7.9v2.1h-5.4v2.9h5.1v1.9h-5.1v3h5.4V170.5z"/>
</g>
<g class="st16">
	<path class="st0" d="M134.1,166.7v-2.1h5.5v2.1H134.1z"/>
	<path class="st0" d="M141.2,164.5c0-3.9,2.2-6.2,5.7-6.2c2.9,0,5.1,1.8,5.3,4.5h-2.4c-0.2-1.5-1.4-2.4-2.8-2.4
		c-1.9,0-3.1,1.6-3.1,4.1c0,2.6,1.2,4.1,3.1,4.1c1.5,0,2.6-0.9,2.8-2.3h2.4c-0.3,2.7-2.3,4.4-5.3,4.4
		C143.4,170.7,141.2,168.3,141.2,164.5z"/>
	<path class="st0" d="M164.9,164.5c0,3.8-2.2,6.2-5.8,6.2c-3.6,0-5.8-2.4-5.8-6.2c0-3.8,2.2-6.2,5.8-6.2
		C162.7,158.3,164.9,160.7,164.9,164.5z M155.9,164.5c0,2.5,1.3,4.1,3.2,4.1c2,0,3.2-1.6,3.2-4.1c0-2.5-1.3-4.1-3.2-4.1
		S155.9,162,155.9,164.5z"/>
	<path class="st0" d="M179.2,170.5H177v-8.1h-0.1l-3.3,8h-1.6l-3.3-8h-0.1v8.1h-2.2v-12h2.9l3.4,8.5h0.1l3.4-8.5h2.9V170.5z"/>
	<path class="st0" d="M193.9,170.5h-2.2v-8.1h-0.1l-3.3,8h-1.6l-3.3-8h-0.1v8.1h-2.2v-12h2.9l3.4,8.5h0.1l3.4-8.5h2.9V170.5z"/>
	<path class="st0" d="M203.8,170.5h-7.9v-12h7.9v2.1h-5.4v2.9h5.1v1.9h-5.1v3h5.4V170.5z"/>
	<path class="st0" d="M208.1,170.5h-2.5v-12h4.9c2.8,0,4.3,1.5,4.3,3.8c0,1.5-0.8,2.9-2.2,3.4l2.5,4.8h-2.8l-2.2-4.4h-2.1V170.5z
		 M208.1,164.3h2.2c1.3,0,2-0.7,2-1.9c0-1.2-0.8-1.9-2-1.9h-2.2V164.3z"/>
	<path class="st0" d="M216.1,164.5c0-3.9,2.2-6.2,5.7-6.2c2.9,0,5.1,1.8,5.3,4.5h-2.4c-0.2-1.5-1.4-2.4-2.8-2.4
		c-1.9,0-3.1,1.6-3.1,4.1c0,2.6,1.2,4.1,3.1,4.1c1.5,0,2.6-0.9,2.8-2.3h2.4c-0.3,2.7-2.3,4.4-5.3,4.4
		C218.3,170.7,216.1,168.3,216.1,164.5z"/>
	<path class="st0" d="M236.6,170.5h-7.9v-12h7.9v2.1h-5.4v2.9h5.1v1.9h-5.1v3h5.4V170.5z"/>
</g>
<g class="st16">
	<path class="st0" d="M64.5,178.9c3.6,0,5.7,2.1,5.7,5.9c0,3.8-2.1,6-5.7,6h-4.6v-12H64.5z M62.4,188.8h1.8c2.2,0,3.5-1.4,3.5-4
		c0-2.5-1.2-3.9-3.5-3.9h-1.8V188.8z"/>
	<path class="st0" d="M79.8,190.9h-7.9v-12h7.9v2.1h-5.4v2.9h5.1v1.9h-5.1v3h5.4V190.9z"/>
	<path class="st0" d="M84.8,190.9l-4-12h2.8l2.7,9.4h0.1l2.7-9.4h2.7l-4,12H84.8z"/>
	<path class="st0" d="M101,190.9h-7.9v-12h7.9v2.1h-5.4v2.9h5.1v1.9h-5.1v3h5.4V190.9z"/>
</g>
<g class="st16">
	<path class="st0" d="M110.6,190.9h-7.7v-12h2.5v9.9h5.2V190.9z"/>
</g>
<g class="st16">
	<path class="st0" d="M122.8,184.9c0,3.8-2.2,6.2-5.8,6.2c-3.6,0-5.8-2.4-5.8-6.2c0-3.8,2.2-6.2,5.8-6.2
		C120.5,178.7,122.8,181.1,122.8,184.9z M113.8,184.9c0,2.5,1.3,4.1,3.2,4.1c2,0,3.2-1.6,3.2-4.1c0-2.5-1.3-4.1-3.2-4.1
		S113.8,182.4,113.8,184.9z"/>
	<path class="st0" d="M129.4,178.9c2.5,0,4.2,1.6,4.2,4.1c0,2.5-1.8,4.1-4.3,4.1h-2.4v3.8h-2.5v-12H129.4z M126.9,185.1h1.8
		c1.4,0,2.3-0.8,2.3-2.1c0-1.4-0.8-2.1-2.3-2.1h-1.8V185.1z"/>
	<path class="st0" d="M147.7,190.9h-2.2v-8.1h-0.1l-3.3,8h-1.6l-3.3-8h-0.1v8.1H135v-12h2.9l3.4,8.5h0.1l3.4-8.5h2.9V190.9z"/>
	<path class="st0" d="M157.6,190.9h-7.9v-12h7.9v2.1h-5.4v2.9h5.1v1.9h-5.1v3h5.4V190.9z"/>
	<path class="st0" d="M159.4,190.9v-12h2.1l5.6,7.8h0.1v-7.8h2.4v12h-2.1l-5.6-7.8h-0.1v7.8H159.4z"/>
	<path class="st0" d="M174.5,190.9v-9.9H171v-2.1h9.5v2.1H177v9.9H174.5z"/>
	<path class="st0" d="M185.2,184.9c0-3.9,2.2-6.2,5.7-6.2c2.9,0,5.1,1.8,5.3,4.5h-2.4c-0.2-1.5-1.4-2.4-2.8-2.4
		c-1.9,0-3.1,1.6-3.1,4.1c0,2.6,1.2,4.1,3.1,4.1c1.5,0,2.6-0.9,2.8-2.3h2.4c-0.3,2.7-2.3,4.4-5.3,4.4
		C187.3,191.1,185.2,188.7,185.2,184.9z"/>
	<path class="st0" d="M208.8,184.9c0,3.8-2.2,6.2-5.8,6.2c-3.6,0-5.8-2.4-5.8-6.2c0-3.8,2.2-6.2,5.8-6.2
		C206.6,178.7,208.8,181.1,208.8,184.9z M199.8,184.9c0,2.5,1.3,4.1,3.2,4.1c2,0,3.2-1.6,3.2-4.1c0-2.5-1.3-4.1-3.2-4.1
		S199.8,182.4,199.8,184.9z"/>
	<path class="st0" d="M223.1,190.9h-2.2v-8.1h-0.1l-3.3,8H216l-3.3-8h-0.1v8.1h-2.2v-12h2.9l3.4,8.5h0.1l3.4-8.5h2.9V190.9z"/>
</g>
<g class="st16">
	<path class="st0" d="M230.1,178.9c2.5,0,4.2,1.6,4.2,4.1c0,2.5-1.8,4.1-4.3,4.1h-2.4v3.8h-2.5v-12H230.1z M227.6,185.1h1.8
		c1.4,0,2.3-0.8,2.3-2.1c0-1.4-0.8-2.1-2.3-2.1h-1.8V185.1z"/>
</g>
<g class="st16">
	<path class="st0" d="M241.5,188h-4.2l-0.9,2.9h-2.6l4.2-12h2.9l4.2,12h-2.7L241.5,188z M237.9,186.1h3.1l-1.5-4.9h-0.1L237.9,186.1
		z"/>
	<path class="st0" d="M246.3,190.9v-12h2.1l5.6,7.8h0.1v-7.8h2.4v12h-2.1l-5.6-7.8h-0.1v7.8H246.3z"/>
	<path class="st0" d="M261.9,190.9v-4.5l-4.2-7.5h2.7l2.7,5.1h0.1l2.7-5.1h2.7l-4.2,7.5v4.5H261.9z"/>
</g>
</svg>
