<svg height="411pt" viewBox="0 -44 411.99941 411" width="411pt" xmlns="http://www.w3.org/2000/svg"><path d="m105.363281 55.183594c-.144531-.144532-.300781-.28125-.445312-.421875-.171875-.164063-.339844-.332031-.515625-.492188-.128906-.121093-.269532-.230469-.398438-.347656-.199218-.175781-.394531-.351563-.601562-.519531-.125-.097656-.25-.199219-.378906-.296875-.214844-.171875-.433594-.351563-.65625-.515625-.132813-.097656-.269532-.191406-.40625-.289063-.222657-.15625-.4375-.316406-.664063-.464843-.109375-.074219-.222656-.140626-.332031-.210938-.253906-.167969-.511719-.335938-.769532-.492188-.0625-.035156-.125-.066406-.183593-.097656-.316407-.183594-.628907-.367187-.949219-.539062-.042969-.023438-.085938-.042969-.132812-.066406-.339844-.179688-.679688-.355469-1.027344-.519532-.042969-.019531-.085938-.035156-.125-.054687-.351563-.164063-.699219-.320313-1.0625-.46875l-.085938-.035157c-.773437-.316406-1.558594-.601562-2.355468-.839843-.085938-.023438-.167969-.046875-.25-.070313-.335938-.101562-.667969-.191406-1.007813-.277344l-.035156-.007812c-.410157-.101562-.824219-.195312-1.238281-.277344-.101563-.019531-.210938-.035156-.316407-.054687-.324219-.058594-.648437-.121094-.976562-.167969-.167969-.023438-.335938-.039062-.503907-.0625-.265624-.035156-.535156-.070312-.800781-.101562-.265625-.027344-.542969-.039063-.8125-.058594-.171875-.011719-.339843-.027344-.507812-.035156-.445313-.023438-.890625-.03125-1.335938-.035157-14.738281.019531-26.679687 11.964844-26.699219 26.703125v17.246094c0 3.3125 2.6875 6 6 6h41.40625c3.3125 0 6-2.6875 6-6v-17.25c.023438-7.082031-2.792968-13.878906-7.816406-18.871094zm-4.175781 30.125h-29.410156v-11.246094c.003906-5.945312 3.585937-11.308594 9.082031-13.582031 5.492187-2.273438 11.816406-1.011719 16.019531 3.195312 2.765625 2.746094 4.3125 6.488281 4.300782 10.386719zm0 0"/><path d="m274.199219 47.359375c-14.738281.019531-26.679688 11.960937-26.699219 26.703125v17.246094c0 3.3125 2.6875 6 6 6h41.398438c3.316406 0 6-2.6875 6-6v-17.246094c-.003907-14.742188-11.953126-26.695312-26.699219-26.699219zm14.699219 37.949219h-29.40625v-11.246094c0-5.945312 3.582031-11.308594 9.078124-13.582031 5.496094-2.273438 11.820313-1.011719 16.023438 3.195312 2.761719 2.746094 4.3125 6.488281 4.296875 10.386719zm0 0"/><path d="m221.742188 118.359375h-82.808594c-3.3125 0-6 2.6875-6 6 .121094 26.097656 21.308594 47.191406 47.40625 47.191406 26.09375 0 47.285156-21.09375 47.402344-47.191406 0-3.3125-2.683594-6-6-6zm-16.371094 31.03125c-9.351563 9.359375-23.144532 12.722656-35.753906 8.71875-12.613282-4.003906-21.9375-14.707031-24.175782-27.75h69.800782c-1.230469 7.21875-4.679688 13.871094-9.871094 19.03125zm0 0"/><path d="m317.199219 279.71875h-50.199219c-3.132812-19.953125-21.089844-34.140625-41.230469-32.570312-20.136719 1.570312-35.675781 18.371093-35.675781 38.570312s15.539062 37 35.675781 38.570312c20.140625 1.574219 38.097657-12.613281 41.230469-32.570312h50.199219c40.210937-.042969 72.800781-32.632812 72.84375-72.84375v-58.140625c18.375-14.503906 26.167969-38.667969 19.730469-61.171875-6.4375-22.507812-25.832032-38.894531-49.097657-41.484375v-20.523437c-.023437-20.457032-16.597656-37.03125-37.054687-37.054688h-286.566406c-20.453126.023438-37.0312505 16.597656-37.054688 37.054688v155.820312c.0234375 20.453125 16.601562 37.027344 37.054688 37.054688h12.632812v67.710937c0 2.363281 1.386719 4.507813 3.542969 5.472656 2.15625.96875 4.679687.582031 6.445312-.992187l81.105469-72.191406h182.839844c20.457031-.027344 37.03125-16.601563 37.058594-37.054688v-20.519531c6.003906-.671875 11.863281-2.285157 17.367187-4.789063v50.8125c-.042969 33.585938-27.261719 60.804688-60.847656 60.839844zm-88.425781 32.6875c-14.742188 0-26.691407-11.949219-26.6875-26.6875 0-14.742188 11.949218-26.691406 26.6875-26.6875 14.742187 0 26.6875 11.949219 26.6875 26.6875-.015626 14.734375-11.957032 26.671875-26.6875 26.6875zm119.898437-119.03125c-.015625 13.828125-11.222656 25.039062-25.054687 25.054688h-185.117188c-1.472656 0-2.890625.539062-3.988281 1.515624l-72.824219 64.820313v-60.335937c0-3.316407-2.683594-6-6-6h-18.632812c-13.832032-.015626-25.039063-11.226563-25.054688-25.054688v-155.820312c.015625-13.832032 11.222656-25.039063 25.054688-25.054688h286.566406c13.832031.015625 25.039062 11.222656 25.058594 25.054688zm12-123.203125c22.554687 3.203125 39.320313 22.511719 39.320313 45.292969s-16.765626 42.09375-39.320313 45.292968zm0 0"/></svg>