<svg xmlns="http://www.w3.org/2000/svg" viewBox="0 0 907.3 751.76"><defs><style>.cls-2{fill:none;stroke:gray;stroke-miterlimit:10;stroke-width:.75px}.cls-3{fill:gray}</style></defs><g id="Layer_2" data-name="Layer 2"><g opacity=".5" id="elements"><path class="cls-2" d="M443.83 288.96l.03.11"/><path class="cls-3" d="M442 289.44a1.88 1.88 0 101.36-2.28 1.86 1.86 0 00-1.36 2.28z"/><path class="cls-2" d="M443.83 288.96l.03.11"/><path class="cls-3" d="M442 289.44a1.88 1.88 0 101.36-2.28 1.86 1.86 0 00-1.36 2.28z"/><path class="cls-2" d="M443.83 288.96l.03.11"/><path class="cls-3" d="M442 289.44a1.88 1.88 0 101.36-2.28 1.86 1.86 0 00-1.36 2.28z"/><path class="cls-2" d="M443.83 288.96l-.16 9.07"/><path class="cls-3" d="M441.79 297.9a1.88 1.88 0 003.76.07 1.88 1.88 0 10-3.76-.07z"/><path class="cls-2" d="M443.83 288.96l-.16 9.07"/><path class="cls-3" d="M441.79 297.9a1.88 1.88 0 003.76.07 1.88 1.88 0 10-3.76-.07z"/><path class="cls-2" d="M443.83 288.96l-.16 9.07"/><path class="cls-3" d="M441.79 297.9a1.88 1.88 0 003.76.07 1.88 1.88 0 10-3.76-.07z"/><path class="cls-2" d="M443.83 288.96l-.16 9.07"/><path class="cls-3" d="M441.79 297.9a1.88 1.88 0 003.76.07 1.88 1.88 0 10-3.76-.07z"/><path class="cls-2" d="M443.83 288.96l-4.57 17.22"/><path class="cls-3" d="M437.47 305.61a1.88 1.88 0 102.3-1.33 1.88 1.88 0 00-2.3 1.33z"/><path class="cls-2" d="M443.83 288.96l-10.72 22.89"/><path class="cls-3" d="M431.45 311a1.88 1.88 0 102.5-.91 1.88 1.88 0 00-2.5.91z"/><path class="cls-2" d="M443.83 288.96l-16.88 33.32"/><path class="cls-3" d="M425.32 321.35a1.88 1.88 0 102.52-.83 1.88 1.88 0 00-2.52.83z"/><path class="cls-2" d="M443.83 288.96l-25.12 47.22"/><path class="cls-3" d="M417.09 335.21a1.88 1.88 0 102.55-.77 1.88 1.88 0 00-2.55.77z"/><path class="cls-2" d="M443.83 288.96l-32 58.79"/><path class="cls-3" d="M410.22 346.77a1.88 1.88 0 102.55-.75 1.89 1.89 0 00-2.55.75z"/><path class="cls-2" d="M443.83 288.96l-35.69 67.57"/><path class="cls-3" d="M406.52 355.57a1.88 1.88 0 102.54-.79 1.88 1.88 0 00-2.54.79z"/><path class="cls-2" d="M443.83 288.96l-39.62 79.34"/><path class="cls-3" d="M402.57 367.37a1.88 1.88 0 102.52-.84 1.87 1.87 0 00-2.52.84z"/><path class="cls-2" d="M443.83 288.96l-43.79 94.11"/><path class="cls-3" d="M398.38 382.19a1.88 1.88 0 102.5-.91 1.87 1.87 0 00-2.5.91z"/><path class="cls-2" d="M443.83 288.96L395.44 396"/><path class="cls-3" d="M393.77 395.14a1.88 1.88 0 102.49-.94 1.88 1.88 0 00-2.49.94z"/><path class="cls-2" d="M443.83 288.96l-65.15 145.65"/><path class="cls-3" d="M377 433.76a1.87 1.87 0 00.94 2.48 1.88 1.88 0 10-.94-2.48z"/><path class="cls-2" d="M443.83 288.96l-79.16 187.47"/><path class="cls-3" d="M363 475.62a1.88 1.88 0 102.46-1 1.88 1.88 0 00-2.46 1z"/><path class="cls-2" d="M443.83 288.96L339.2 519.24"/><path class="cls-3" d="M337.53 518.38a1.88 1.88 0 102.49-.93 1.88 1.88 0 00-2.49.93z"/><path class="cls-2" d="M443.83 288.96L333.46 531.5"/><path class="cls-3" d="M331.79 530.64a1.88 1.88 0 102.49-.94 1.87 1.87 0 00-2.49.94z"/><path class="cls-2" d="M443.83 288.96L323.82 547.7"/><path class="cls-3" d="M322.15 546.82a1.88 1.88 0 102.5-.91 1.88 1.88 0 00-2.5.91z"/><path class="cls-2" d="M443.83 288.96L304.06 578.24"/><path class="cls-3" d="M302.41 577.34a1.88 1.88 0 102.51-.87 1.88 1.88 0 00-2.51.87z"/><path class="cls-2" d="M443.83 288.96L294.88 596.28"/><path class="cls-3" d="M293.23 595.38a1.88 1.88 0 102.51-.87 1.88 1.88 0 00-2.51.87z"/><path class="cls-2" d="M443.83 288.96L283.16 615.95"/><path class="cls-3" d="M281.52 615a1.88 1.88 0 102.51-.86 1.87 1.87 0 00-2.51.86z"/><path class="cls-2" d="M443.83 288.96L275.58 628.67"/><path class="cls-3" d="M273.94 627.75a1.88 1.88 0 102.52-.84 1.88 1.88 0 00-2.52.84z"/><path class="cls-2" d="M443.83 288.96L269.38 646.93"/><path class="cls-3" d="M267.74 646a1.88 1.88 0 102.51-.87 1.87 1.87 0 00-2.51.87z"/><path class="cls-2" d="M443.83 288.96l-177.66 368.6"/><path class="cls-3" d="M264.52 656.66a1.88 1.88 0 102.51-.88 1.87 1.87 0 00-2.51.88z"/><path class="cls-2" d="M443.83 288.96L262.26 661.5"/><path class="cls-3" d="M260.62 660.59a1.87 1.87 0 102.51-.87 1.87 1.87 0 00-2.51.87z"/><path class="cls-2" d="M443.83 288.96L262.26 661.5"/><path class="cls-3" d="M260.62 660.59a1.87 1.87 0 102.51-.87 1.87 1.87 0 00-2.51.87z"/><path class="cls-2" d="M443.83 288.96l-185.7 379.48"/><path class="cls-3" d="M256.48 667.53a1.88 1.88 0 102.52-.87 1.88 1.88 0 00-2.52.87z"/><path class="cls-2" d="M443.83 288.96l-185.7 379.48"/><path class="cls-3" d="M256.48 667.53a1.88 1.88 0 102.52-.87 1.88 1.88 0 00-2.52.87z"/><path class="cls-2" d="M443.83 288.96l-185.7 379.48"/><path class="cls-3" d="M256.48 667.53a1.88 1.88 0 102.52-.87 1.88 1.88 0 00-2.52.87z"/><path class="cls-2" d="M443.83 288.96l-192.6 383.2"/><path class="cls-3" d="M249.59 671.23a1.88 1.88 0 102.52-.83 1.88 1.88 0 00-2.52.83z"/><path class="cls-2" d="M443.83 288.96l-192.6 383.2"/><path class="cls-3" d="M249.59 671.23a1.88 1.88 0 102.52-.83 1.88 1.88 0 00-2.52.83z"/><path class="cls-2" d="M443.83 288.96l-192.6 383.2"/><path class="cls-3" d="M249.59 671.23a1.88 1.88 0 102.52-.83 1.88 1.88 0 00-2.52.83z"/><path class="cls-2" d="M443.83 288.96l-192.6 383.2"/><path class="cls-3" d="M249.59 671.23a1.88 1.88 0 102.52-.83 1.88 1.88 0 00-2.52.83z"/><path class="cls-2" d="M443.83 288.96L240.17 667.13"/><path class="cls-3" d="M238.56 666.16a1.88 1.88 0 003.31 1.78 1.88 1.88 0 10-3.31-1.78z"/><path class="cls-2" d="M443.83 288.96l-210.1 375.89"/><path class="cls-3" d="M232.13 663.85a1.88 1.88 0 102.56-.72 1.88 1.88 0 00-2.56.72z"/><path class="cls-2" d="M443.83 288.96L219.22 657.77"/><path class="cls-3" d="M217.66 656.71a1.88 1.88 0 102.58-.63 1.87 1.87 0 00-2.58.63z"/><path class="cls-2" d="M443.83 288.96L202.86 651.15"/><path class="cls-3" d="M201.35 650a1.88 1.88 0 102.6-.52 1.88 1.88 0 00-2.6.52z"/><path class="cls-2" d="M443.83 288.96l-267 356.09"/><path class="cls-3" d="M175.38 643.84a1.88 1.88 0 102.63-.37 1.88 1.88 0 00-2.63.37z"/><path class="cls-2" d="M443.83 288.96L156.09 632.69"/><path class="cls-3" d="M154.71 631.41a1.88 1.88 0 102.65-.23 1.88 1.88 0 00-2.65.23z"/><path class="cls-2" d="M443.83 288.96L156.09 632.69"/><path class="cls-3" d="M154.71 631.41a1.88 1.88 0 102.65-.23 1.88 1.88 0 00-2.65.23z"/><path class="cls-2" d="M443.83 288.96L144.56 625.83"/><path class="cls-3" d="M143.22 624.51a1.88 1.88 0 102.65-.16 1.87 1.87 0 00-2.65.16z"/><path class="cls-2" d="M443.83 288.96L126.12 614.85"/><path class="cls-3" d="M124.84 613.47a1.88 1.88 0 102.66 0 1.89 1.89 0 00-2.66 0z"/><path class="cls-2" d="M443.83 288.96l-333.4 302.46"/><path class="cls-3" d="M109.24 590a1.88 1.88 0 102.65.13 1.88 1.88 0 00-2.65-.13z"/><path class="cls-2" d="M443.83 288.96L83.66 562.97"/><path class="cls-3" d="M82.6 561.42a1.88 1.88 0 102.63.36 1.87 1.87 0 00-2.63-.36z"/><path class="cls-2" d="M443.83 288.96L67.96 539.55"/><path class="cls-3" d="M67 537.93a1.88 1.88 0 002.09 3.13 1.88 1.88 0 00-2.09-3.13z"/><path class="cls-2" d="M443.83 288.96L59.64 522.09"/><path class="cls-3" d="M58.74 520.43a1.88 1.88 0 102.59.63 1.88 1.88 0 00-2.59-.63z"/><path class="cls-2" d="M443.83 288.96L57.78 506.9"/><path class="cls-3" d="M56.94 505.21a1.88 1.88 0 102.56.72 1.88 1.88 0 00-2.56-.72z"/><path class="cls-2" d="M443.83 288.96L51.53 485.98"/><path class="cls-3" d="M50.77 484.25a1.88 1.88 0 101.68 3.36 1.88 1.88 0 10-1.68-3.36z"/><path class="cls-2" d="M443.83 288.96L46.9 475.41"/><path class="cls-3" d="M46.19 473.67a1.88 1.88 0 102.5.9 1.87 1.87 0 00-2.5-.9z"/><path class="cls-2" d="M443.83 288.96L36.49 453.59"/><path class="cls-3" d="M35.87 451.81a1.88 1.88 0 102.45 1 1.89 1.89 0 00-2.45-1z"/><path class="cls-2" d="M443.83 288.96L24.45 429.24"/><path class="cls-3" d="M24 427.43a1.88 1.88 0 102.37 1.19 1.88 1.88 0 00-2.37-1.19z"/><path class="cls-2" d="M443.83 288.96L6.86 398.48"/><path class="cls-3" d="M6.49 396.63A1.88 1.88 0 108.77 398a1.88 1.88 0 00-2.28-1.37z"/><path class="cls-2" d="M443.83 288.96L3.1 368.12"/><path class="cls-3" d="M2.86 366.26a1.88 1.88 0 00.67 3.7 1.88 1.88 0 10-.67-3.7z"/><path class="cls-2" d="M443.83 288.96L2.8 332.01"/><path class="cls-3" d="M2.71 330.13a1.88 1.88 0 102.05 1.69 1.88 1.88 0 00-2.05-1.69z"/><path class="cls-2" d="M443.83 288.96L1.78 297.05"/><path class="cls-3" d="M1.84 295.17A1.88 1.88 0 103.76 297a1.88 1.88 0 00-1.92-1.83z"/><path class="cls-2" d="M443.83 288.96L9.55 265.75"/><path class="cls-3" d="M9.74 263.88a1.88 1.88 0 101.78 2 1.87 1.87 0 00-1.78-2z"/><path class="cls-2" d="M443.83 288.96L24.02 241.57"/><path class="cls-3" d="M24.33 239.71a1.88 1.88 0 101.67 2.08 1.89 1.89 0 00-1.67-2.08z"/><path class="cls-2" d="M443.83 288.96L33.67 225.45"/><path class="cls-3" d="M34.05 223.61a1.88 1.88 0 101.57 2.14 1.86 1.86 0 00-1.57-2.14z"/><path class="cls-2" d="M443.83 288.96l-401.9-77.32"/><path class="cls-3" d="M42.38 209.81a1.88 1.88 0 101.49 2.2 1.88 1.88 0 00-1.49-2.2z"/><path class="cls-2" d="M443.83 288.96L52.26 194.37"/><path class="cls-3" d="M52.79 192.57a1.88 1.88 0 00-.88 3.65 1.88 1.88 0 10.88-3.65z"/><path class="cls-2" d="M443.83 288.96L57.77 185.16"/><path class="cls-3" d="M58.35 183.37a1.88 1.88 0 101.32 2.3 1.89 1.89 0 00-1.32-2.3z"/><path class="cls-2" d="M443.83 288.96L68.78 166.75"/><path class="cls-3" d="M69.45 165a1.88 1.88 0 101.2 2.37 1.88 1.88 0 00-1.2-2.37z"/><path class="cls-2" d="M443.83 288.96L74.28 157.54"/><path class="cls-3" d="M75 155.8a1.88 1.88 0 101.14 2.4 1.87 1.87 0 00-1.14-2.4z"/><path class="cls-2" d="M443.83 288.96L78.4 150.63"/><path class="cls-3" d="M79.16 148.91a1.88 1.88 0 101.09 2.42 1.87 1.87 0 00-1.09-2.42z"/><path class="cls-2" d="M443.83 288.96L98.87 134.74"/><path class="cls-3" d="M99.73 133.06a1.88 1.88 0 101 2.49 1.88 1.88 0 00-1-2.49z"/><path class="cls-2" d="M443.83 288.96L123.71 116.78"/><path class="cls-3" d="M124.68 115.17a1.88 1.88 0 10.77 2.54 1.88 1.88 0 00-.77-2.54z"/><path class="cls-2" d="M443.83 288.96L138.42 105.27"/><path class="cls-3" d="M139.46 103.7a1.88 1.88 0 10.65 2.58 1.88 1.88 0 00-.65-2.58z"/><path class="cls-2" d="M443.83 288.96L145.96 92.61"/><path class="cls-3" d="M147.08 91.09a1.88 1.88 0 10.53 2.6 1.89 1.89 0 00-.53-2.6z"/><path class="cls-2" d="M443.83 288.96L152.82 81.1"/><path class="cls-3" d="M154 79.62a1.88 1.88 0 10.44 2.62 1.88 1.88 0 00-.44-2.62z"/><path class="cls-2" d="M443.83 288.96L158.99 70.74"/><path class="cls-3" d="M160.21 69.3a1.88 1.88 0 10.35 2.63 1.88 1.88 0 00-.35-2.63z"/><path class="cls-2" d="M443.83 288.96L170.94 63.83"/><path class="cls-3" d="M172.21 62.44a1.88 1.88 0 10.25 2.64 1.87 1.87 0 00-.25-2.64z"/><path class="cls-2" d="M443.83 288.96L185.63 52.31"/><path class="cls-3" d="M187 51a1.88 1.88 0 10-2.54 2.77A1.88 1.88 0 00187 51z"/><path class="cls-2" d="M443.83 288.96L197.1 43.55"/><path class="cls-3" d="M198.49 42.29a1.88 1.88 0 00-2.65 2.71 1.88 1.88 0 102.65-2.66z"/><path class="cls-2" d="M443.83 288.96L212.04 36.87"/><path class="cls-3" d="M213.48 35.67a1.88 1.88 0 10-.11 2.65 1.88 1.88 0 00.11-2.65z"/><path class="cls-2" d="M443.83 288.96L223.29 31.11"/><path class="cls-3" d="M224.78 30a1.88 1.88 0 10-.21 2.65 1.88 1.88 0 00.21-2.65z"/><path class="cls-2" d="M443.83 288.96L241.47 29.5"/><path class="cls-3" d="M243 28.41a1.88 1.88 0 10-.33 2.64 1.89 1.89 0 00.33-2.64z"/><path class="cls-2" d="M443.83 288.96L265.84 25.35"/><path class="cls-3" d="M267.45 24.37a1.88 1.88 0 10-.51 2.61 1.88 1.88 0 00.51-2.61z"/><path class="cls-2" d="M443.83 288.96L292.29 25.57"/><path class="cls-3" d="M294 24.72a1.88 1.88 0 10-.69 2.56 1.88 1.88 0 00.69-2.56z"/><path class="cls-2" d="M443.83 288.96L320.13 31.33"/><path class="cls-3" d="M321.86 30.6a1.88 1.88 0 10-.88 2.51 1.88 1.88 0 00.88-2.51z"/><path class="cls-2" d="M443.83 288.96L339.67 35.25"/><path class="cls-3" d="M341.44 34.62a1.88 1.88 0 10-1 2.45 1.87 1.87 0 001-2.45z"/><path class="cls-2" d="M443.83 288.96L361.72 37.54"/><path class="cls-3" d="M363.54 37.05a1.88 1.88 0 10-1.2 2.37 1.89 1.89 0 001.2-2.37z"/><path class="cls-2" d="M443.83 288.96L384.91 40.52"/><path class="cls-3" d="M386.76 40.18a1.88 1.88 0 10-1.39 2.26 1.89 1.89 0 001.39-2.26z"/><path class="cls-2" d="M443.83 288.96L409.71 46.03"/><path class="cls-3" d="M411.58 45.86A1.88 1.88 0 10410 48a1.89 1.89 0 001.58-2.14z"/><path class="cls-2" d="M443.83 288.96l-9.81-239.29"/><path class="cls-3" d="M435.9 49.69a1.88 1.88 0 10-1.8 2 1.88 1.88 0 001.8-2z"/><path class="cls-2" d="M443.83 288.96l28.03-232.24"/><path class="cls-3" d="M473.71 57a1.88 1.88 0 10-2.09 1.64 1.89 1.89 0 002.09-1.64z"/><path class="cls-2" d="M443.83 288.96l60.82-221.99"/><path class="cls-3" d="M506.44 67.56a1.88 1.88 0 10-2.31 1.31 1.89 1.89 0 002.31-1.31z"/><path class="cls-2" d="M443.83 288.96L544.79 83.14"/><path class="cls-3" d="M546.44 84.05a1.88 1.88 0 10-2.52.86 1.89 1.89 0 002.52-.86z"/><path class="cls-2" d="M443.83 288.96L556.95 88.83"/><path class="cls-3" d="M558.54 89.83a1.88 1.88 0 10-2.56.72 1.88 1.88 0 002.56-.72z"/><path class="cls-2" d="M443.83 288.96l147.11-181.45"/><path class="cls-3" d="M592.34 108.76a1.88 1.88 0 10-2.64.28 1.88 1.88 0 002.64-.28z"/><path class="cls-2" d="M443.83 288.96l168.94-168.48"/><path class="cls-3" d="M614 121.88a1.88 1.88 0 10-2.65 0 1.88 1.88 0 002.65 0z"/><path class="cls-2" d="M443.83 288.96l188.72-152.04"/><path class="cls-3" d="M633.66 138.44a1.88 1.88 0 10-2.65-.29 1.88 1.88 0 002.65.29z"/><path class="cls-2" d="M443.83 288.96l206.22-136.98"/><path class="cls-3" d="M651 153.6a1.88 1.88 0 10-2.61-.53 1.88 1.88 0 002.61.53z"/><path class="cls-2" d="M443.83 288.96l223.04-120.77"/><path class="cls-3" d="M667.68 169.89a1.88 1.88 0 10-2.55-.76 1.89 1.89 0 002.55.76z"/><path class="cls-2" d="M443.83 288.96l242.18-103.19"/><path class="cls-3" d="M686.66 187.54a1.88 1.88 0 10-2.47-1 1.88 1.88 0 002.47 1z"/><path class="cls-2" d="M443.83 288.96l271.04-78.3"/><path class="cls-3" d="M715.3 212.49a1.88 1.88 0 10-2.32-1.28 1.88 1.88 0 002.32 1.28z"/><path class="cls-2" d="M443.83 288.96l305.47-54.79"/><path class="cls-3" d="M749.54 236a1.88 1.88 0 10-2.18-1.52 1.88 1.88 0 002.18 1.52z"/><path class="cls-2" d="M443.83 288.96l339.92-31.25"/><path class="cls-3" d="M783.83 259.59a1.88 1.88 0 10-2-1.69 1.87 1.87 0 002 1.69z"/><path class="cls-2" d="M443.83 288.96l376.93-9.29"/><path class="cls-3" d="M820.71 281.55a1.88 1.88 0 10-1.93-1.84 1.88 1.88 0 001.93 1.84z"/><path class="cls-2" d="M443.83 288.96l402.84 7.65"/><path class="cls-3" d="M846.54 298.48a1.88 1.88 0 10-1.85-1.91 1.88 1.88 0 001.85 1.91z"/><path class="cls-2" d="M443.83 288.96l431.31 30.8"/><path class="cls-3" d="M874.91 321.63a1.88 1.88 0 10-1.74-2 1.89 1.89 0 001.74 2z"/><path class="cls-2" d="M443.83 288.96l451 50.31"/><path class="cls-3" d="M894.53 341.12a1.88 1.88 0 10-1.66-2.07 1.86 1.86 0 001.66 2.07z"/><path class="cls-2" d="M443.83 288.96l461.68 69.15"/><path class="cls-3" d="M905.14 360a1.88 1.88 0 10-1.58-2.13 1.88 1.88 0 001.58 2.13z"/><path class="cls-2" d="M443.83 288.96l461.04 85.94"/><path class="cls-3" d="M904.44 376.73a1.88 1.88 0 10-1.51-2.19 1.88 1.88 0 001.51 2.19z"/><path class="cls-2" d="M443.83 288.96l455.56 102.98"/><path class="cls-3" d="M898.88 393.75a1.88 1.88 0 10-1.41-2.24 1.87 1.87 0 001.41 2.24z"/><path class="cls-2" d="M443.83 288.96l444.54 121.41"/><path class="cls-3" d="M887.79 412.16a1.88 1.88 0 10-1.32-2.31 1.89 1.89 0 001.32 2.31z"/><path class="cls-2" d="M443.83 288.96l429.16 141.91"/><path class="cls-3" d="M872.31 432.63a1.88 1.88 0 10-1.2-2.37 1.89 1.89 0 001.2 2.37z"/><path class="cls-2" d="M443.83 288.96L861.98 449.3"/><path class="cls-3" d="M861.22 451a1.88 1.88 0 10-1.08-2.43 1.87 1.87 0 001.08 2.43z"/><path class="cls-2" d="M443.83 288.96l406.46 179.92"/><path class="cls-3" d="M849.44 470.56a1.88 1.88 0 10-1-2.48 1.88 1.88 0 001 2.48z"/><path class="cls-2" d="M443.83 288.96l387.9 211.01"/><path class="cls-3" d="M830.75 501.58A1.88 1.88 0 10830 499a1.88 1.88 0 00.75 2.58z"/><path class="cls-2" d="M443.83 288.96l374.85 232.9"/><path class="cls-3" d="M817.61 523.41a1.88 1.88 0 10-.61-2.59 1.88 1.88 0 00.61 2.59z"/><path class="cls-2" d="M443.83 288.96l359.27 256.4"/><path class="cls-3" d="M801.93 546.84a1.88 1.88 0 102.19-3.06 1.88 1.88 0 00-2.19 3.06z"/><path class="cls-2" d="M443.83 288.96l339.55 278.99"/><path class="cls-3" d="M782.11 569.34a1.88 1.88 0 10-.26-2.64 1.88 1.88 0 00.26 2.64z"/><path class="cls-2" d="M443.83 288.96l304.66 311.27"/><path class="cls-3" d="M747.08 601.48a1.88 1.88 0 100-2.66 1.89 1.89 0 000 2.66z"/><path class="cls-2" d="M443.83 288.96l262.18 340.58"/><path class="cls-3" d="M704.46 630.61a1.88 1.88 0 10.35-2.63 1.88 1.88 0 00-.35 2.63z"/><path class="cls-2" d="M443.83 288.96l229.99 352.59"/><path class="cls-3" d="M672.2 642.5a1.88 1.88 0 10.55-2.6 1.88 1.88 0 00-.55 2.6z"/><path class="cls-2" d="M443.83 288.96l198.51 363.46"/><path class="cls-3" d="M640.64 653.24a1.88 1.88 0 10.75-2.55 1.88 1.88 0 00-.75 2.55z"/><path class="cls-2" d="M443.83 288.96l167.93 370.18"/><path class="cls-3" d="M610 659.83a1.88 1.88 0 10.93-2.48 1.88 1.88 0 00-.93 2.48z"/><path class="cls-2" d="M443.83 288.96l118.54 387.55"/><path class="cls-3" d="M560.55 677a1.88 1.88 0 101.24-2.34 1.87 1.87 0 00-1.24 2.34z"/><path class="cls-2" d="M443.83 288.96l70.75 399.64"/><path class="cls-3" d="M512.71 688.84a1.88 1.88 0 101.53-2.18 1.88 1.88 0 00-1.53 2.18z"/><path class="cls-2" d="M443.83 288.96l35.83 408.49"/><path class="cls-3" d="M477.78 697.52a1.88 1.88 0 101.7-2 1.87 1.87 0 00-1.7 2z"/><path class="cls-2" d="M443.83 288.96l.68 420.36"/><path class="cls-3" d="M442.63 709.23a1.88 1.88 0 101.88-1.88 1.88 1.88 0 00-1.88 1.88z"/><path class="cls-2" d="M443.83 288.96l-37.69 435.02"/><path class="cls-3" d="M404.28 723.72a1.88 1.88 0 102-1.71 1.88 1.88 0 00-2 1.71z"/><path class="cls-2" d="M443.83 288.96l-49.39 446.83"/><path class="cls-3" d="M392.58 735.49a1.88 1.88 0 102.07-1.66 1.88 1.88 0 00-2.07 1.66z"/><path class="cls-2" d="M443.83 288.96l-56.29 450.55"/><path class="cls-3" d="M385.69 739.18a1.88 1.88 0 102.1-1.63 1.88 1.88 0 00-2.1 1.63z"/><path class="cls-2" d="M443.83 288.96l-70.07 457.98"/><path class="cls-3" d="M371.91 746.56a1.88 1.88 0 102.14-1.57 1.89 1.89 0 00-2.14 1.57z"/><path class="cls-2" d="M443.83 288.96l-78.12 461.01"/><path class="cls-3" d="M363.87 749.56A1.88 1.88 0 10366 748a1.88 1.88 0 00-2.13 1.56z"/><path class="cls-2" d="M443.83 288.96l-88.94 460.82"/><path class="cls-3" d="M353.07 749.33a1.88 1.88 0 102.2-1.49 1.88 1.88 0 00-2.2 1.49z"/><path class="cls-2" d="M443.83 288.96L337.39 742.45"/><path class="cls-3" d="M335.59 741.93a1.87 1.87 0 102.25-1.4 1.88 1.88 0 00-2.25 1.4z"/><path class="cls-2" d="M443.83 288.96L328.18 736.94"/><path class="cls-3" d="M326.38 736.38a1.88 1.88 0 102.29-1.35 1.89 1.89 0 00-2.29 1.35z"/><path class="cls-2" d="M443.83 288.96L321.04 735.81"/><path class="cls-3" d="M319.26 735.22a1.88 1.88 0 102.31-1.31 1.87 1.87 0 00-2.31 1.31z"/><path class="cls-2" d="M443.83 288.96L315.75 734.22"/><path class="cls-3" d="M314 733.61a1.88 1.88 0 102.32-1.29 1.88 1.88 0 00-2.32 1.29z"/><path class="cls-2" d="M443.83 288.96L315.75 734.22"/><path class="cls-3" d="M314 733.61a1.88 1.88 0 102.32-1.29 1.88 1.88 0 00-2.32 1.29z"/><path class="cls-2" d="M443.83 288.96L315.75 734.22"/><path class="cls-3" d="M314 733.61a1.88 1.88 0 102.32-1.29 1.88 1.88 0 00-2.32 1.29z"/><path class="cls-2" d="M443.83 288.96L315.75 734.22"/><path class="cls-3" d="M314 733.61a1.88 1.88 0 102.32-1.29 1.88 1.88 0 00-2.32 1.29z"/><path class="cls-2" d="M443.83 288.96l-132.69 442.5"/><path class="cls-3" d="M309.37 730.83a1.88 1.88 0 102.34-1.26 1.88 1.88 0 00-2.34 1.26z"/><path class="cls-2" d="M443.83 288.96l-132.69 442.5"/><path class="cls-3" d="M309.37 730.83a1.88 1.88 0 102.34-1.26 1.88 1.88 0 00-2.34 1.26z"/><path class="cls-2" d="M443.83 288.96l-132.69 442.5"/><path class="cls-3" d="M309.37 730.83a1.88 1.88 0 102.34-1.26 1.88 1.88 0 00-2.34 1.26z"/><path class="cls-2" d="M443.83 288.96l-132.69 442.5"/><path class="cls-3" d="M309.37 730.83a1.88 1.88 0 102.34-1.26 1.88 1.88 0 00-2.34 1.26z"/><path class="cls-2" d="M443.83 288.96l-132.69 442.5"/><path class="cls-3" d="M309.37 730.83a1.88 1.88 0 102.34-1.26 1.88 1.88 0 00-2.34 1.26z"/><path class="cls-2" d="M443.83 288.96l-132.69 442.5"/><path class="cls-3" d="M309.37 730.83a1.88 1.88 0 102.34-1.26 1.88 1.88 0 00-2.34 1.26z"/><path class="cls-2" d="M443.83 288.96L299.62 724.58"/><path class="cls-3" d="M297.87 723.9a1.88 1.88 0 102.37-1.19 1.88 1.88 0 00-2.37 1.19z"/><path class="cls-2" d="M443.83 288.96L299.62 724.58"/><path class="cls-3" d="M297.87 723.9a1.88 1.88 0 102.37-1.19 1.88 1.88 0 00-2.37 1.19z"/><path class="cls-2" d="M443.83 288.96L299.62 724.58"/><path class="cls-3" d="M297.87 723.9a1.88 1.88 0 102.37-1.19 1.88 1.88 0 00-2.37 1.19z"/><path class="cls-2" d="M443.83 288.96L299.62 724.58"/><path class="cls-3" d="M297.87 723.9a1.88 1.88 0 102.37-1.19 1.88 1.88 0 00-2.37 1.19z"/><path class="cls-2" d="M443.83 288.96L299.62 724.58"/><path class="cls-3" d="M297.87 723.9a1.88 1.88 0 102.37-1.19 1.88 1.88 0 00-2.37 1.19z"/><path class="cls-2" d="M443.83 288.96L299.62 724.58"/><path class="cls-3" d="M297.87 723.9a1.88 1.88 0 102.37-1.19 1.88 1.88 0 00-2.37 1.19z"/><path class="cls-2" d="M443.83 288.96L299.62 724.58"/><path class="cls-3" d="M297.87 723.9a1.88 1.88 0 102.37-1.19 1.88 1.88 0 00-2.37 1.19z"/><path class="cls-2" d="M443.83 288.96L299.62 724.58"/><path class="cls-3" d="M297.87 723.9a1.88 1.88 0 102.37-1.19 1.88 1.88 0 00-2.37 1.19z"/><path class="cls-2" d="M443.83 288.96L299.62 724.58"/><path class="cls-3" d="M297.87 723.9a1.88 1.88 0 102.37-1.19 1.88 1.88 0 00-2.37 1.19z"/><path class="cls-2" d="M443.83 288.96L299.62 724.58"/><path class="cls-3" d="M297.87 723.9a1.88 1.88 0 102.37-1.19 1.88 1.88 0 00-2.37 1.19z"/><path class="cls-2" d="M443.83 288.96L299.62 724.58"/><path class="cls-3" d="M297.87 723.9a1.88 1.88 0 102.37-1.19 1.88 1.88 0 00-2.37 1.19z"/><path class="cls-2" d="M443.83 288.96L295.02 721.83"/><path class="cls-3" d="M293.27 721.13a1.88 1.88 0 102.39-1.17 1.88 1.88 0 00-2.39 1.17z"/><path class="cls-2" d="M443.83 288.96L295.02 721.83"/><path class="cls-3" d="M293.27 721.13a1.88 1.88 0 102.39-1.17 1.88 1.88 0 00-2.39 1.17z"/><path class="cls-2" d="M443.83 288.96L288.11 717.7"/><path class="cls-3" d="M286.37 717a1.88 1.88 0 102.41-1.12 1.88 1.88 0 00-2.41 1.12z"/><path class="cls-2" d="M443.83 288.96L288.11 717.7"/><path class="cls-3" d="M286.37 717a1.88 1.88 0 102.41-1.12 1.88 1.88 0 00-2.41 1.12z"/><path class="cls-2" d="M443.83 288.96L283.5 714.95"/><path class="cls-3" d="M281.78 714.2a1.88 1.88 0 102.42-1.1 1.87 1.87 0 00-2.42 1.1z"/><path class="cls-2" d="M443.83 288.96L283.5 714.95"/><path class="cls-3" d="M281.78 714.2a1.88 1.88 0 102.42-1.1 1.87 1.87 0 00-2.42 1.1z"/><path class="cls-2" d="M443.83 288.96L283.5 714.95"/><path class="cls-3" d="M281.78 714.2a1.88 1.88 0 102.42-1.1 1.87 1.87 0 00-2.42 1.1z"/><path class="cls-2" d="M443.83 288.96L283.5 714.95"/><path class="cls-3" d="M281.78 714.2a1.88 1.88 0 102.42-1.1 1.87 1.87 0 00-2.42 1.1z"/><path class="cls-2" d="M443.83 288.96L283.5 714.95"/><path class="cls-3" d="M281.78 714.2a1.88 1.88 0 102.42-1.1 1.87 1.87 0 00-2.42 1.1z"/><path class="cls-2" d="M443.83 288.96L283.5 714.95"/><path class="cls-3" d="M281.78 714.2a1.88 1.88 0 102.42-1.1 1.87 1.87 0 00-2.42 1.1z"/><path class="cls-2" d="M443.83 288.96L283.5 714.95"/><path class="cls-3" d="M281.78 714.2a1.88 1.88 0 102.42-1.1 1.87 1.87 0 00-2.42 1.1z"/><path class="cls-2" d="M443.83 288.96l-165.87 411.7"/><path class="cls-3" d="M276.25 699.87a1.88 1.88 0 102.45-1 1.89 1.89 0 00-2.45 1z"/><path class="cls-2" d="M443.83 288.96l-165.87 411.7"/><path class="cls-3" d="M276.25 699.87a1.88 1.88 0 102.45-1 1.89 1.89 0 00-2.45 1z"/><path class="cls-2" d="M443.83 288.96L276.56 687.28"/><path class="cls-3" d="M274.86 686.47a1.88 1.88 0 102.46-1 1.88 1.88 0 00-2.46 1z"/><path class="cls-2" d="M443.83 288.96L279.54 679.65"/><path class="cls-3" d="M277.85 678.84a1.88 1.88 0 102.46-1 1.88 1.88 0 00-2.46 1z"/><path class="cls-2" d="M443.83 288.96l-159.69 385.6"/><path class="cls-3" d="M282.44 673.75a1.88 1.88 0 102.45-1 1.87 1.87 0 00-2.45 1z"/><path class="cls-2" d="M443.83 288.96L291.72 661.83"/><path class="cls-3" d="M290 661a1.88 1.88 0 102.45-1 1.88 1.88 0 00-2.45 1z"/><path class="cls-2" d="M443.83 288.96l-133.5 357.33"/><path class="cls-3" d="M308.6 645.54a1.88 1.88 0 102.42-1.1 1.88 1.88 0 00-2.42 1.1z"/><path class="cls-2" d="M443.83 288.96L320.9 633.78"/><path class="cls-3" d="M319.16 633.06a1.88 1.88 0 003.54 1.26 1.9 1.9 0 00-1.14-2.4 1.87 1.87 0 00-2.4 1.14z"/><path class="cls-2" d="M443.83 288.96l-111 330"/><path class="cls-3" d="M331.08 618.27a1.88 1.88 0 102.38-1.18 1.88 1.88 0 00-2.38 1.18z"/><path class="cls-2" d="M443.83 288.96L339.25 597.69"/><path class="cls-3" d="M337.5 597a1.88 1.88 0 102.38-1.17 1.88 1.88 0 00-2.38 1.17z"/><path class="cls-2" d="M443.83 288.96L342.22 582.22"/><path class="cls-3" d="M340.47 581.51a1.88 1.88 0 102.39-1.16 1.87 1.87 0 00-2.39 1.16z"/><path class="cls-2" d="M443.83 288.96L340.37 567"/><path class="cls-3" d="M338.64 566.25a1.88 1.88 0 102.42-1.1 1.88 1.88 0 00-2.42 1.1z"/><path class="cls-2" d="M443.83 288.96L338.06 549.93"/><path class="cls-3" d="M336.35 549.14a1.88 1.88 0 102.45-1 1.89 1.89 0 00-2.45 1z"/><path class="cls-2" d="M443.83 288.96l-114.72 197.6"/><path class="cls-3" d="M327.53 485.54a1.88 1.88 0 102.57-.69 1.87 1.87 0 00-2.57.69z"/><path class="cls-2" d="M443.83 288.96L324.3 471.15"/><path class="cls-3" d="M322.78 470a1.88 1.88 0 102.6-.54 1.87 1.87 0 00-2.6.54z"/><path class="cls-2" d="M443.83 288.96L311.91 460.64"/><path class="cls-3" d="M310.48 459.42a1.88 1.88 0 102.63-.34 1.87 1.87 0 00-2.63.34z"/><path class="cls-2" d="M443.83 288.96l-141.1 158.39"/><path class="cls-3" d="M301.39 446a1.88 1.88 0 102.66-.15 1.88 1.88 0 00-2.66.15z"/><path class="cls-2" d="M443.83 288.96L298.15 436.8"/><path class="cls-3" d="M296.88 435.42a1.88 1.88 0 102.66 0 1.88 1.88 0 00-2.66 0z"/><path class="cls-2" d="M443.83 288.96L287.81 430.67"/><path class="cls-3" d="M286.62 429.21a1.88 1.88 0 102.65.13 1.88 1.88 0 00-2.65-.13z"/><path class="cls-2" d="M443.83 288.96L279.77 425.9"/><path class="cls-3" d="M278.63 424.39a1.88 1.88 0 102.65.24 1.88 1.88 0 00-2.65-.24z"/><path class="cls-2" d="M443.83 288.96L267.34 423.22"/><path class="cls-3" d="M266.28 421.67a1.88 1.88 0 102.63.36 1.87 1.87 0 00-2.63-.36z"/><path class="cls-2" d="M443.83 288.96L258.35 430.4"/><path class="cls-3" d="M257.29 428.85a1.88 1.88 0 102.63.36 1.88 1.88 0 00-2.63-.36z"/><path class="cls-2" d="M443.83 288.96L246.82 447.03"/><path class="cls-3" d="M245.72 445.5a1.88 1.88 0 102.64.29 1.88 1.88 0 00-2.64-.29z"/><path class="cls-2" d="M443.83 288.96L232.07 458.62"/><path class="cls-3" d="M231 457.09a1.88 1.88 0 102.64.29 1.88 1.88 0 00-2.64-.29z"/><path class="cls-2" d="M443.83 288.96L214.1 488.63"/><path class="cls-3" d="M212.93 487.15a1.88 1.88 0 102.66.19 1.88 1.88 0 00-2.66-.19z"/><path class="cls-2" d="M443.83 288.96L198.89 514.04"/><path class="cls-3" d="M197.69 512.59a1.88 1.88 0 002.54 2.77 1.88 1.88 0 00-2.54-2.77z"/><path class="cls-2" d="M443.83 288.96L185.76 535.98"/><path class="cls-3" d="M184.53 534.56a1.88 1.88 0 102.66.06 1.88 1.88 0 00-2.66-.06z"/><path class="cls-2" d="M443.83 288.96L178.85 547.54"/><path class="cls-3" d="M177.61 546.13a1.88 1.88 0 102.65 0 1.87 1.87 0 00-2.65 0z"/><path class="cls-2" d="M443.83 288.96L180.7 562.73"/><path class="cls-3" d="M179.41 561.36a1.88 1.88 0 102.66-.05 1.89 1.89 0 00-2.66.05z"/><path class="cls-2" d="M443.83 288.96L186.47 581.83"/><path class="cls-3" d="M185.12 580.52a1.88 1.88 0 102.65-.17 1.87 1.87 0 00-2.65.17z"/><path class="cls-2" d="M443.83 288.96L202.14 597.43"/><path class="cls-3" d="M200.71 596.2a1.88 1.88 0 102.64-.32 1.88 1.88 0 00-2.64.32z"/><path class="cls-2" d="M443.83 288.96L233.92 614.8"/><path class="cls-3" d="M232.39 613.7a1.88 1.88 0 102.6-.56 1.89 1.89 0 00-2.6.56z"/><path class="cls-2" d="M443.83 288.96l-80.39 354.57"/><path class="cls-3" d="M361.63 643a1.88 1.88 0 102.25-1.42 1.88 1.88 0 00-2.25 1.42z"/><path class="cls-2" d="M443.83 288.96l-41.08 359.29"/><path class="cls-3" d="M400.89 647.94a1.88 1.88 0 003.74.43 1.88 1.88 0 00-3.74-.43z"/><path class="cls-2" d="M443.83 288.96l12.02 364.44"/><path class="cls-3" d="M454 653.37a1.88 1.88 0 101.81-1.94 1.88 1.88 0 00-1.81 1.94z"/><path class="cls-2" d="M443.83 288.96l41.66 361.83"/><path class="cls-3" d="M483.61 650.91a1.88 1.88 0 101.65-2.08 1.89 1.89 0 00-1.65 2.08z"/><path class="cls-2" d="M443.83 288.96L546.08 627.6"/><path class="cls-3" d="M544.25 628.05a1.88 1.88 0 101.26-2.34 1.88 1.88 0 00-1.26 2.34z"/><path class="cls-2" d="M443.83 288.96l133.16 310.22"/><path class="cls-3" d="M575.23 599.83a1.88 1.88 0 101-2.46 1.87 1.87 0 00-1 2.46z"/><path class="cls-2" d="M443.83 288.96l159.24 282.06"/><path class="cls-3" d="M601.38 571.86a1.88 1.88 0 10.72-2.56 1.87 1.87 0 00-.72 2.56z"/><path class="cls-2" d="M443.83 288.96l177.96 255.77"/><path class="cls-3" d="M620.19 545.73a1.88 1.88 0 10.47-2.62 1.89 1.89 0 00-.47 2.62z"/><path class="cls-2" d="M443.83 288.96l203.31 220.98"/><path class="cls-3" d="M645.69 511.15a1.88 1.88 0 10.11-2.66 1.89 1.89 0 00-.11 2.66z"/><path class="cls-2" d="M443.83 288.96l239.72 183.47"/><path class="cls-3" d="M682.33 473.87a1.88 1.88 0 10-.35-2.64 1.89 1.89 0 00.35 2.64z"/><path class="cls-2" d="M443.83 288.96l253.46 168.29"/><path class="cls-3" d="M696.18 458.76a1.88 1.88 0 10-.53-2.6 1.87 1.87 0 00.53 2.6z"/><path class="cls-2" d="M443.83 288.96l261.69 154.49"/><path class="cls-3" d="M704.48 445a1.88 1.88 0 10-.66-2.57 1.89 1.89 0 00.66 2.57z"/><path class="cls-2" d="M443.83 288.96l263.71 143.22"/><path class="cls-3" d="M706.56 433.79a1.88 1.88 0 10-.76-2.55 1.87 1.87 0 00.76 2.55z"/><path class="cls-2" d="M443.83 288.96l264.1 129.43"/><path class="cls-3" d="M707 420a1.88 1.88 0 10-.86-2.51A1.88 1.88 0 00707 420z"/><path class="cls-2" d="M443.83 288.96l247.02 81.9"/><path class="cls-3" d="M690.17 372.61a1.88 1.88 0 10-1.2-2.37 1.87 1.87 0 001.2 2.37z"/><path class="cls-2" d="M443.83 288.96l209.66 39.51"/><path class="cls-3" d="M653.05 330.3a1.88 1.88 0 10-1.5-2.2 1.89 1.89 0 001.5 2.2z"/><path class="cls-2" d="M443.83 288.96l187.4 13.9"/><path class="cls-3" d="M631 304.73a1.88 1.88 0 10-1.73-2 1.88 1.88 0 001.73 2z"/><path class="cls-2" d="M443.83 288.96l159.82-28.76"/><path class="cls-3" d="M603.89 262.07a1.88 1.88 0 10-2.18-1.52 1.89 1.89 0 002.18 1.52z"/><path class="cls-2" d="M443.83 288.96l134.92-57.41"/><path class="cls-3" d="M579.4 233.32a1.88 1.88 0 10-2.47-1 1.88 1.88 0 002.47 1z"/><path class="cls-2" d="M443.83 288.96l111.09-97.97"/><path class="cls-3" d="M556.1 192.47a1.88 1.88 0 10-2.66-.17 1.89 1.89 0 002.66.17z"/><path class="cls-2" d="M443.83 288.96l95.11-123.09"/><path class="cls-3" d="M540.37 167.09a1.88 1.88 0 10-2.64.34 1.89 1.89 0 002.64-.34z"/><path class="cls-2" d="M443.83 288.96l74.55-151.02"/><path class="cls-3" d="M520 138.85a1.88 1.88 0 10-2.52.86 1.87 1.87 0 002.52-.86z"/><path class="cls-2" d="M443.83 288.96l50.76-176.25"/><path class="cls-3" d="M496.37 113.32a1.88 1.88 0 10-2.33 1.29 1.88 1.88 0 002.33-1.29z"/><path class="cls-2" d="M443.83 288.96l24.64-202.91"/><path class="cls-3" d="M470.32 86.37a1.88 1.88 0 10-2.09 1.63 1.88 1.88 0 002.09-1.63z"/><path class="cls-2" d="M443.83 288.96l6.06-218.78"/><path class="cls-3" d="M451.76 70.33a1.88 1.88 0 10-1.93 1.82 1.88 1.88 0 001.93-1.82z"/><path class="cls-2" d="M443.83 288.96l-14.38-234.2"/><path class="cls-3" d="M431.33 54.74a1.88 1.88 0 10-1.76 2 1.88 1.88 0 001.76-2z"/><path class="cls-2" d="M443.83 288.96L407.16 39.8"/><path class="cls-3" d="M409 39.62a1.88 1.88 0 10-1.58 2.13 1.88 1.88 0 001.58-2.13z"/><path class="cls-2" d="M443.83 288.96l-70.02-269.2"/><path class="cls-3" d="M375.65 19.38a1.88 1.88 0 10-1.34 2.29 1.88 1.88 0 001.34-2.29z"/><path class="cls-2" d="M443.83 288.96L351.72 9.62"/><path class="cls-3" d="M353.54 9.13a1.88 1.88 0 10-1.2 2.37 1.88 1.88 0 001.2-2.37z"/><path class="cls-2" d="M443.83 288.96L344.81 5.48"/><path class="cls-3" d="M346.62 5a1.88 1.88 0 10-1.16 2.39A1.89 1.89 0 00346.62 5z"/><path class="cls-2" d="M443.83 288.96L336.07 1.79"/><path class="cls-3" d="M337.86 1.22a1.88 1.88 0 10-1.1 2.42 1.89 1.89 0 001.1-2.42z"/><path class="cls-2" d="M443.83 288.96L336.07 1.79"/><path class="cls-3" d="M337.86 1.22a1.88 1.88 0 10-1.1 2.42 1.89 1.89 0 001.1-2.42z"/><path class="cls-2" d="M443.83 288.96L336.07 1.79"/><path class="cls-3" d="M337.86 1.22a1.88 1.88 0 10-1.1 2.42 1.89 1.89 0 001.1-2.42z"/><path class="cls-2" d="M443.83 288.96L336.07 1.79"/><path class="cls-3" d="M337.86 1.22a1.88 1.88 0 10-1.1 2.42 1.89 1.89 0 001.1-2.42z"/><path class="cls-2" d="M443.83 288.96L336.07 1.79"/><path class="cls-3" d="M337.86 1.22a1.88 1.88 0 10-1.1 2.42 1.89 1.89 0 001.1-2.42z"/><path class="cls-2" d="M443.83 288.96L327.57 2.95"/><path class="cls-3" d="M329.35 2.33a1.88 1.88 0 10-1 2.45 1.88 1.88 0 001-2.45z"/><path class="cls-2" d="M443.83 288.96L327.57 2.95"/><path class="cls-3" d="M329.35 2.33a1.88 1.88 0 10-1 2.45 1.88 1.88 0 001-2.45z"/><path class="cls-2" d="M443.83 288.96L327.57 2.95"/><path class="cls-3" d="M329.35 2.33a1.88 1.88 0 10-1 2.45 1.88 1.88 0 001-2.45z"/><path class="cls-2" d="M443.83 288.96L327.57 2.95"/><path class="cls-3" d="M329.35 2.33a1.88 1.88 0 10-1 2.45 1.88 1.88 0 001-2.45z"/><path class="cls-2" d="M443.83 288.96L327.57 2.95"/><path class="cls-3" d="M329.35 2.33a1.88 1.88 0 10-1 2.45 1.88 1.88 0 001-2.45z"/><path class="cls-2" d="M443.83 288.96L327.57 2.95"/><path class="cls-3" d="M329.35 2.33a1.88 1.88 0 10-1 2.45 1.88 1.88 0 001-2.45z"/><path class="cls-2" d="M443.83 288.96L327.57 2.95"/><path class="cls-3" d="M329.35 2.33a1.88 1.88 0 10-1 2.45 1.88 1.88 0 001-2.45z"/><path class="cls-2" d="M443.83 288.96L327.57 2.95"/><path class="cls-3" d="M329.35 2.33a1.88 1.88 0 10-1 2.45 1.88 1.88 0 001-2.45z"/><path class="cls-2" d="M443.83 288.96L327.57 2.95"/><path class="cls-3" d="M329.35 2.33a1.88 1.88 0 10-1 2.45 1.88 1.88 0 001-2.45z"/><path class="cls-2" d="M443.83 288.96L327.57 2.95"/><path class="cls-3" d="M329.35 2.33a1.88 1.88 0 10-1 2.45 1.88 1.88 0 001-2.45z"/><path class="cls-2" d="M443.83 288.96L327.57 2.95"/><path class="cls-3" d="M329.35 2.33a1.88 1.88 0 10-1 2.45 1.88 1.88 0 001-2.45z"/></g></g></svg>