   <svg fill="#5cdb95" height="480pt" viewBox="-56 0 480 480" width="480pt" xmlns="http://www.w3.org/2000/svg">
      <path d="m336 60.6875-60.6875-60.6875h-275.3125v456h336zm-56-33.375 28.6875 28.6875h-28.6875zm-264 412.6875v-424h248v56h56v368zm0 0"></path>
      <path d="m320 16v16h32v432h-328v16h344v-464zm0 0"></path>
      <path d="m40 200h48v16h-48zm0 0"></path>
      <path d="m104 200h40v16h-40zm0 0"></path>
      <path d="m40 232h104v16h-104zm0 0"></path>
      <path d="m40 264h24v16h-24zm0 0"></path>
      <path d="m80 264h64v16h-64zm0 0"></path>
      <path d="m184 360h88v16h-88zm0 0"></path>
      <path d="m64 168h56v16h-56zm0 0"></path>
      <path d="m216 128c-.039062-15.507812-9.054688-29.59375-23.121094-36.128906 4.574219-5.613282 7.089844-12.628906 7.121094-19.871094 0-17.671875-14.328125-32-32-32s-32 14.328125-32 32c.03125 7.242188 2.546875 14.257812 7.121094 19.871094-14.066406 6.535156-23.082032 20.621094-23.121094 36.128906v24h96zm-48-72c8.835938 0 16 7.164062 16 16s-7.164062 16-16 16-16-7.164062-16-16 7.164062-16 16-16zm32 80h-64v-8c0-13.253906 10.746094-24 24-24h16c13.253906 0 24 10.746094 24 24zm0 0"></path>
      <path d="m290.054688 170.648438-17.734376 19.75c-26.433593-21.679688-65.171874-19.0625-88.449218 5.976562-23.28125 25.035156-23.074219 63.859375.46875 88.648438 23.546875 24.789062 62.308594 26.996093 88.511718 5.035156 26.199219-21.960938 30.808594-60.511719 10.515626-88.027344l18.578124-20.640625zm-10.054688 69.351562c.066406 22.445312-15.386719 41.960938-37.25 47.042969s-44.339844-5.617188-54.179688-25.792969c-9.839843-20.171875-4.4375-44.46875 13.027344-58.570312 17.460938-14.105469 42.351563-14.269532 60.003906-.398438l-37.890624 42.09375-18.039063-18.03125-11.3125 11.3125 29.960937 29.96875 48.09375-53.441406c4.957032 7.699218 7.589844 16.660156 7.585938 25.816406zm0 0"></path>
   </svg>