 <svg xmlns="http://www.w3.org/2000/svg" fill="#5cdb95" xmlns:xlink="http://www.w3.org/1999/xlink" version="1.1" id="Layer_1" x="0px" y="0px" viewBox="0 0 512 512" style="enable-background:new 0 0 512 512;" xml:space="preserve" width="512" height="512">
      <path d="M56.53,223.198l36.916-24.143c0.562-0.421,1.403-0.562,2.105-0.562c2.947,0,6.737,3.088,6.737,7.019         c0,1.685-0.842,3.229-2.105,4.07l-29.477,19.371l29.477,19.37c1.264,0.702,2.105,2.246,2.105,4.07         c0,3.931-3.79,6.878-6.737,6.878c-0.702,0-1.544-0.141-2.105-0.562L56.53,234.568c-2.105-1.403-3.089-3.79-3.089-5.614         C53.441,227.129,54.425,224.603,56.53,223.198z"></path>
      <path d="M180.328,165.087c0,0.843-0.14,1.545-0.562,2.246l-51.514,102.748c-0.843,1.685-2.667,2.667-4.632,2.667         c-3.229,0-5.475-2.667-5.475-5.193c0-0.702,0.141-1.404,0.421-2.105l51.654-103.169c0.843-1.825,2.387-2.526,4.211-2.526         C177.24,159.754,180.328,161.859,180.328,165.087z"></path>
      <path d="M241.804,234.568l-36.917,24.143c-0.562,0.421-1.263,0.562-1.965,0.562c-3.088,0-6.737-2.947-6.737-6.878         c0-1.824,0.842-3.368,1.965-4.07l29.617-19.37l-29.617-19.371c-1.123-0.842-1.965-2.386-1.965-4.07         c0-3.931,3.649-7.019,6.737-7.019c0.702,0,1.403,0.141,1.965,0.562l36.917,24.143c2.105,1.404,3.088,3.931,3.088,5.756         C244.892,230.778,244.049,233.165,241.804,234.568z"></path>
      <path d="M295.73,299.164V139.129c0-17.546-14.275-31.821-31.821-31.821H33.849c-17.546,0-31.821,14.275-31.821,31.821v160.035    c0,17.546,14.275,31.821,31.821,31.821h230.061C281.455,330.985,295.73,316.71,295.73,299.164z M17.027,299.164V139.129    c0-9.275,7.546-16.821,16.821-16.821h230.061c9.275,0,16.821,7.546,16.821,16.821v160.035c0,9.275-7.546,16.821-16.821,16.821    H33.849C24.573,315.985,17.027,308.439,17.027,299.164z"></path>
      <path d="M405.066,368.053c-21.527,0-39.041,17.514-39.041,39.041c0,0.557,0.012,1.112,0.036,1.664    c-0.023,0.241-0.036,0.486-0.036,0.733c0,0.639,0.08,1.258,0.23,1.85c2.123,19.538,18.718,34.795,38.811,34.795    c21.527,0,39.041-17.514,39.041-39.042C444.107,385.566,426.594,368.053,405.066,368.053z M405.066,383.053    c11.505,0,21.149,8.125,23.496,18.938h-46.991C383.917,391.177,393.561,383.053,405.066,383.053z M405.066,431.136    c-9.73,0-18.129-5.811-21.909-14.146h43.817C423.196,425.324,414.797,431.136,405.066,431.136z"></path>
      <path d="M489.053,381.02h-3.955c-1.368-4.127-3.06-8.159-5.048-12.034l2.841-2.841c3.947-3.946,6.121-9.2,6.121-14.793    c0-5.592-2.173-10.846-6.121-14.794l-7.289-7.288c-3.952-3.951-9.206-6.128-14.793-6.128c-4.309,0-8.418,1.294-11.886,3.698    V31.962C448.923,14.338,434.585,0,416.961,0H159.5c-17.624,0-31.962,14.338-31.962,31.962v52.846c0,4.143,3.357,7.5,7.5,7.5    s7.5-3.357,7.5-7.5V66.779h291.385v261.26c-0.922-0.342-1.849-0.668-2.781-0.977v-3.954c0-11.536-9.385-20.921-20.92-20.921    h-10.311c-11.535,0-20.92,9.385-20.92,20.921v3.525c-4.282,1.341-8.464,3.025-12.481,5.028l-2.392-2.392    c-3.951-3.952-9.205-6.129-14.794-6.129c-5.587,0-10.841,2.177-14.792,6.128l-7.29,7.288c-3.951,3.951-6.128,9.205-6.128,14.795    c0,5.589,2.177,10.842,6.127,14.792l1.962,1.961c-2.189,4.145-4.035,8.473-5.508,12.914h-2.615c-11.535,0-20.92,9.385-20.92,20.92    v0.051H142.538v-48.505c0-4.143-3.357-7.5-7.5-7.5s-7.5,3.357-7.5,7.5v82.543c0,17.624,14.338,31.962,31.962,31.962h162.251    c0.912,3.615,2.785,6.931,5.49,9.637l7.291,7.293c3.952,3.95,9.206,6.126,14.792,6.126c5.588,0,10.841-2.176,14.793-6.127    l1.501-1.502c4.293,2.202,8.773,4.038,13.373,5.477v2.187c0,11.535,9.385,20.92,20.92,20.92h10.311    c11.535,0,20.92-9.385,20.92-20.92v-2.615c4.442-1.474,8.771-3.319,12.913-5.509l1.961,1.963    c3.952,3.951,9.205,6.127,14.793,6.127c5.586,0,10.84-2.176,14.793-6.127l7.291-7.291c3.95-3.952,6.126-9.206,6.126-14.792    s-2.176-10.84-6.127-14.793l-2.394-2.393c2.003-4.017,3.688-8.198,5.028-12.481h3.526c11.535,0,20.92-9.385,20.92-20.92v-10.31    C509.973,390.404,500.588,381.02,489.053,381.02z M142.538,51.779V31.962c0-9.353,7.609-16.962,16.962-16.962h257.461    c9.353,0,16.962,7.609,16.962,16.962v19.817H142.538z M142.538,436.028V416.99h158.164c2.154,9.259,10.473,16.179,20.378,16.179    h2.186c1.439,4.6,3.276,9.081,5.479,13.373l-1.502,1.5c-1.483,1.483-2.716,3.149-3.678,4.948H159.5    C150.147,452.99,142.538,445.381,142.538,436.028z M494.973,412.249c0,3.265-2.655,5.92-5.92,5.92h-5.634    c-5.414,0-10.22,3.61-11.688,8.777c-1.337,4.7-3.178,9.273-5.472,13.594c-2.467,4.648-1.574,10.512,2.172,14.258l3.852,3.852    c1.136,1.135,1.735,2.583,1.735,4.187s-0.6,3.052-1.734,4.186l-7.289,7.289c-1.135,1.136-2.583,1.735-4.187,1.735    c-1.604,0-3.052-0.6-4.186-1.733l-3.461-3.463c-2.305-2.302-5.364-3.569-8.616-3.569c-2.065,0-4.106,0.533-5.905,1.544    c-4.405,2.478-9.087,4.477-13.912,5.939c-5.056,1.532-8.587,6.334-8.587,11.678v4.639c0,3.265-2.655,5.92-5.92,5.92h-10.311    c-3.265,0-5.92-2.655-5.92-5.92v-4.277c0-5.427-3.604-10.238-8.764-11.7c-4.979-1.414-9.813-3.393-14.368-5.883    c-1.756-0.959-3.742-1.466-5.746-1.466c-3.206,0-6.35,1.305-8.625,3.579l-2.979,2.979c-1.134,1.135-2.581,1.734-4.186,1.734    c-1.604,0-3.052-0.6-4.186-1.733l-7.29-7.292c-1.135-1.134-1.734-2.581-1.734-4.185c0-0.257,0.016-0.51,0.046-0.759    c0.042-0.193,0.076-0.388,0.102-0.586c0.242-1.068,0.778-2.034,1.585-2.841l2.981-2.98c3.793-3.795,4.66-9.705,2.11-14.372    c-2.488-4.552-4.468-9.386-5.882-14.362c-1.463-5.162-6.274-8.767-11.7-8.767h-4.277c-3.265,0-5.92-2.655-5.92-5.92v-10.31    c0-3.265,2.655-5.92,5.92-5.92h4.639c5.344,0,10.146-3.531,11.678-8.587c1.463-4.825,3.461-9.507,5.938-13.912    c2.648-4.707,1.815-10.679-2.027-14.525l-3.459-3.459c-1.134-1.133-1.733-2.58-1.733-4.184c0-1.605,0.6-3.053,1.733-4.187    l7.291-7.289c1.135-1.136,2.582-1.735,4.186-1.735s3.051,0.6,4.187,1.735l3.852,3.852c2.272,2.271,5.414,3.575,8.618,3.575    c1.991,0,3.891-0.474,5.642-1.404c4.316-2.292,8.89-4.133,13.589-5.47c5.17-1.469,8.78-6.275,8.78-11.689v-5.632    c0-3.265,2.655-5.921,5.92-5.921h10.311c3.265,0,5.92,2.656,5.92,5.921v6.023c0,5.316,3.526,10.098,8.575,11.628    c4.479,1.358,8.837,3.176,12.956,5.406c0.125,0.073,0.253,0.141,0.383,0.207c1.732,0.912,3.677,1.394,5.634,1.394    c3.25,0,6.308-1.267,8.613-3.569l4.32-4.32c1.134-1.135,2.581-1.734,4.186-1.734c1.604,0,3.051,0.6,4.187,1.735l7.289,7.287    c1.114,1.114,1.728,2.602,1.728,4.188s-0.613,3.072-1.728,4.186l-4.321,4.322c-3.792,3.794-4.65,9.719-2.089,14.406    c2.286,4.188,4.146,8.621,5.526,13.178c1.53,5.05,6.312,8.576,11.628,8.576h6.024c3.265,0,5.92,2.655,5.92,5.92V412.249z"></path>
   </svg>