<svg  xmlns="http://www.w3.org/2000/svg" xmlns:xlink="http://www.w3.org/1999/xlink" version="1.1" id="Layer_1" x="0px" y="0px" viewBox="0 0 512 512" style="enable-background:new 0 0 512 512;" xml:space="preserve" width="512" height="512">
                                <path d="M472.142,357.43c17.988-11.2,28.728-30.142,28.728-50.669v-24.284c6.385-1.593,11.13-7.376,11.13-14.248v-9.166    c0-8.096-6.587-14.683-14.683-14.683H359.188c-8.096,0-14.683,6.587-14.683,14.683v9.166c0,6.872,4.745,12.655,11.13,14.248    v24.284c0,20.527,10.739,39.469,28.728,50.669c0.032,0.02,0.064,0.04,0.097,0.059l17.929,10.79l-17.928,10.79    c-0.033,0.019-0.065,0.039-0.097,0.059c-17.989,11.2-28.729,30.142-28.729,50.669v35.305c-6.395,1.662-11.13,7.485-11.13,14.393    v10.028c0,8.199,6.67,14.869,14.869,14.869h137.756c8.199,0,14.869-6.67,14.869-14.869v-10.028c0-6.908-4.735-12.73-11.13-14.392    v-35.305c0-20.527-10.74-39.469-28.728-50.669c-0.032-0.02-0.064-0.04-0.097-0.059l-17.928-10.79l17.928-10.79    C472.078,357.47,472.11,357.45,472.142,357.43z M370.636,306.761v-23.85H485.87v23.85c0,4.472-0.691,8.847-2.006,13.011H372.642    C371.327,315.608,370.636,311.233,370.636,306.761z M359.505,259.38H497v8.531H359.505V259.38z M485.87,464.627H370.636v-26.746    H485.87V464.627z M497,489.393H359.505v-9.766H497V489.393z M497.131,496.893v-7.5c0,0,0,0,0,0L497.131,496.893z M464.261,391.891    c11.464,7.156,19.013,18.417,21.052,30.99h-114.12c2.04-12.573,9.588-23.834,21.052-30.989l23.932-14.403    c0.808-0.486,1.536-1.062,2.174-1.709h19.804c0.638,0.647,1.366,1.223,2.175,1.709L464.261,391.891z M440.331,359.07    c-0.809,0.486-1.537,1.062-2.175,1.709h-19.805c-0.638-0.647-1.366-1.222-2.174-1.708l-23.931-14.403    c-4.4-2.746-8.223-6.098-11.38-9.896h94.774c-3.156,3.798-6.979,7.149-11.379,9.895L440.331,359.07z"></path>
                                <path d="M332.538,438.596H26.293c-6.227,0-11.293-5.066-11.293-11.293V134.042h412.976V221.8c0,4.142,3.358,7.5,7.5,7.5    s7.5-3.358,7.5-7.5V68.242c0-14.498-11.795-26.293-26.292-26.293h-18.159v-7.106c0-15.018-12.217-27.235-27.235-27.235    s-27.235,12.217-27.235,27.235v7.106h-45.398v-7.106c0-15.018-12.217-27.235-27.235-27.235s-27.235,12.217-27.235,27.235v7.106    h-45.398v-7.106c0-15.018-12.217-27.235-27.235-27.235s-27.235,12.217-27.235,27.235v7.106H98.921v-7.106    c0-15.018-12.217-27.235-27.234-27.235c-15.018,0-27.235,12.217-27.235,27.235v7.106H26.293C11.795,41.949,0,53.744,0,68.242    v359.062c0,14.498,11.795,26.293,26.293,26.293h306.245c4.142,0,7.5-3.358,7.5-7.5S336.68,438.596,332.538,438.596z     M359.055,34.842c0-6.746,5.489-12.235,12.235-12.235s12.235,5.489,12.235,12.235V64.34c0,6.746-5.489,12.235-12.235,12.235    s-12.235-5.489-12.235-12.235V34.842z M259.187,34.842c0-6.746,5.489-12.235,12.235-12.235s12.235,5.489,12.235,12.235V64.34    c0,6.746-5.489,12.235-12.235,12.235s-12.235-5.489-12.235-12.235V34.842z M159.319,34.842c0-6.746,5.489-12.235,12.235-12.235    s12.235,5.489,12.235,12.235V64.34c0,6.746-5.489,12.235-12.235,12.235s-12.235-5.489-12.235-12.235V34.842z M59.452,34.842    c0-6.746,5.489-12.235,12.235-12.235s12.234,5.489,12.234,12.235V64.34c0,6.746-5.488,12.235-12.234,12.235    S59.452,71.086,59.452,64.34V34.842z M26.293,56.949h18.159v7.392c0,15.018,12.217,27.235,27.235,27.235    c15.017,0,27.234-12.217,27.234-27.235v-7.392h45.398v7.392c0,15.018,12.217,27.235,27.235,27.235s27.235-12.217,27.235-27.235    v-7.392h45.398v7.392c0,15.018,12.217,27.235,27.235,27.235s27.235-12.217,27.235-27.235v-7.392h45.398v7.392    c0,15.018,12.217,27.235,27.235,27.235s27.235-12.217,27.235-27.235v-7.392h18.159c6.227,0,11.292,5.066,11.292,11.293v50.801H15    V68.242C15,62.015,20.066,56.949,26.293,56.949z"></path>
                                <path d="M331.833,244.855c-1.846-5.681-7.099-9.498-13.072-9.498h-64.324l-19.877-61.176c-1.846-5.681-7.099-9.498-13.071-9.498    c-5.973,0-11.226,3.817-13.072,9.498l-19.877,61.176h-64.324c-5.973,0-11.227,3.817-13.072,9.498    c-1.845,5.681,0.162,11.856,4.994,15.366l52.039,37.809l-19.877,61.176c-1.846,5.68,0.161,11.856,4.993,15.367    c4.832,3.51,11.325,3.511,16.157,0l52.04-37.809l52.039,37.809c2.417,1.756,5.247,2.633,8.079,2.633    c2.831,0,5.662-0.878,8.078-2.633c4.833-3.511,6.839-9.686,4.993-15.367l-19.877-61.176l52.039-37.809    C331.672,256.711,333.678,250.536,331.833,244.855z M265.247,286.431c-4.833,3.51-6.84,9.686-4.994,15.367l18.965,58.368    l-49.652-36.074c-4.832-3.51-11.325-3.51-16.156,0.001l-49.651,36.074l18.965-58.369c1.846-5.681-0.161-11.856-4.993-15.366    l-49.65-36.074h61.372c5.973,0,11.226-3.817,13.071-9.498l18.965-58.368l18.965,58.368c1.846,5.681,7.099,9.498,13.072,9.498    h61.372L265.247,286.431z"></path>
                             </svg>