<?xml version="1.0" encoding="UTF-8"?>
<svg width="1016px" height="1180px" viewBox="0 0 1016 1180" version="1.1" xmlns="http://www.w3.org/2000/svg" xmlns:xlink="http://www.w3.org/1999/xlink">
    <!-- Generator: Sketch 51 (57462) - http://www.bohemiancoding.com/sketch -->
    <title>Group</title>
    <desc>Created with Sketch.</desc>
    <defs></defs>
    <g id="Page-1" stroke="none" stroke-width="1" fill="none" fill-rule="evenodd">
        <g id="Artboard-Copy-10" fill-rule="nonzero">
            <g id="Group" transform="translate(-470.000000, -217.000000)">
                <circle id="Oval" fill="#5cdb95" cx="1299.76367" cy="458.763672" r="10.7636719"></circle>
                <path d="M839.904341,188.118695 C1158.77153,188.118695 1372.55748,354.799269 1441.4038,641.055038 L1093.54869,641.055038 C1057.31379,532.350315 970.350008,463.503991 836.28085,463.503991 C655.106313,463.503991 535.531119,601.19664 535.531119,847.59401 C535.531119,1093.99138 655.106313,1231.68403 836.28085,1231.68403 C970.350008,1231.68403 1053.69029,1170.08469 1093.54869,1057.75647 L1441.4038,1057.75647 C1372.55748,1329.51828 1158.77153,1510.69282 839.904341,1510.69282 C470.308285,1507.06933 209.416952,1249.80148 209.416952,847.59401 C209.416952,445.386538 470.308285,188.118695 839.904341,188.118695 Z" id="Shape" stroke="#59a97d" stroke-width="8" transform="translate(825.410378, 849.405755) rotate(-23.000000) translate(-825.410378, -849.405755) "></path>
                <path d="M649.974151,866.397537 C649.974151,1094.95063 760.889621,1222.67147 928.943363,1222.67147" id="Shape-Copy" stroke="#4bb57a" stroke-width="8" transform="translate(789.458757, 1044.534504) rotate(-23.000000) translate(-789.458757, -1044.534504) "></path>
                <circle id="Oval-Copy" fill="#5cdb95" cx="589.763672" cy="929.763672" r="10.7636719"></circle>
                <path d="M912,535.902344 C938.984375,551.186198 961.27474,572.005208 978.871094,598.359375 C979.175781,598.632812 1082.85417,553.378906 1289.90625,462.597656 L1302.94531,462.597656" id="Path-5" stroke="#4bb57a" stroke-width="4"></path>
            </g>
        </g>
    </g>
</svg>