<svg width="25" height="24" viewBox="0 0 25 24" fill="none" xmlns="http://www.w3.org/2000/svg">
<g clip-path="url(#clip0)">
<path d="M22.7272 23.8656H18.679L18.9631 20.4564H16.9744L16.6903 23.8656H8.30967L8.02549 20.4564H6.03701L6.32119 23.8656H2.27266L0 9.09277L5.68184 0.00195312H19.3182L25 9.09277L22.7272 23.8656ZM18.1818 4.54736H14.5292L14.7728 6.25195H10.2272L10.4708 4.54736H6.81816L4.54541 9.09287L5.68184 18.1837H19.3182L20.4546 9.09287L18.1818 4.54736ZM16.1932 15.1667C15.8794 15.1667 15.625 14.2204 15.625 13.0531C15.625 11.8857 15.8794 10.9395 16.1932 10.9395C16.5069 10.9395 16.7613 11.8857 16.7613 13.0531C16.7613 14.2204 16.5069 15.1667 16.1932 15.1667ZM9.01992 15.3429C8.70615 15.3429 8.45166 14.3966 8.45166 13.2292C8.45166 12.0619 8.70615 11.1156 9.01992 11.1156C9.33369 11.1156 9.58809 12.0619 9.58809 13.2292C9.58809 14.3966 9.33369 15.3429 9.01992 15.3429Z" fill="#444444"/>
</g>
<defs>
<clipPath id="clip0">
<rect width="25" height="23.93" fill="white"/>
</clipPath>
</defs>
</svg>
