<svg width="19" height="26" viewBox="0 0 19 26" fill="none" xmlns="http://www.w3.org/2000/svg">
<path d="M12.131 9.22726L9.62865 11.5557L7.30661 6.87217L8.50813 4.17878C8.81226 3.63884 9.30847 3.63781 9.6126 4.17878L12.131 9.22726Z" fill="#FFA000"/>
<path d="M9.62874 11.5556L0.277649 20.2547L7.30671 6.87207L9.62874 11.5556Z" fill="#F57F17"/>
<path d="M14.868 5.66844C15.315 5.23875 15.7772 5.38531 15.895 5.99412L18.329 20.1384L10.2603 24.9741C9.97796 25.1301 9.23023 25.1977 9.23023 25.1977C9.23023 25.1977 8.54772 25.1161 8.2876 24.9717L0.277344 20.2544L14.868 5.66844Z" fill="#FFCA28"/>
<path d="M7.3075 6.87186L0.278442 20.2545L3.40929 0.695424C3.52458 0.0861275 3.87142 0.0274499 4.18085 0.565259L7.3075 6.87186Z" fill="#FFA000"/>
</svg>
