<svg width="20" height="26" viewBox="0 0 20 26" fill="none" xmlns="http://www.w3.org/2000/svg">
<path d="M14.3123 15.6612C14.791 15.334 15.4549 15.0509 15.4549 15.0509C15.4549 15.0509 13.5653 15.3927 11.6855 15.549C9.38577 15.7393 6.91512 15.7784 5.6749 15.6124C2.74033 15.2218 7.28615 14.1426 7.28615 14.1426C7.28615 14.1426 5.52349 14.0255 3.35066 15.0703C0.787292 16.3106 9.69821 16.8769 14.3123 15.6612Z" fill="#5382A1"/>
<path d="M10.1426 14.0935C9.21491 12.0086 6.08507 10.1775 10.1426 6.97449C15.206 2.98047 12.6084 0.382812 12.6084 0.382812C13.6582 4.50873 8.91708 5.75873 7.20317 8.32215C6.03616 10.075 7.77447 11.9549 10.1426 14.0935Z" fill="#F8981D"/>
<path d="M15.7383 5.49023C15.7432 5.49023 7.18378 7.62887 11.2706 12.3358C12.4767 13.7225 10.9532 14.9725 10.9532 14.9725C10.9532 14.9725 14.0148 13.3906 12.6085 11.413C11.295 9.5673 10.2892 8.64936 15.7383 5.49023Z" fill="#F8981D"/>
<path d="M15.4404 18.6982C15.416 18.7568 15.3428 18.8204 15.3428 18.8252C21.6072 17.1797 19.3026 13.0196 16.3095 14.0743C16.0458 14.1671 15.9092 14.3819 15.9092 14.3819C15.9092 14.3819 16.0751 14.3135 16.4463 14.2354C17.9598 13.9181 20.1327 16.2618 15.4404 18.6982Z" fill="#5382A1"/>
<path d="M17.745 21.7398C17.745 21.7398 18.453 22.3209 16.9687 22.775C14.1416 23.6295 5.21113 23.8882 2.7307 22.8093C1.83716 22.4234 3.51189 21.8814 4.03928 21.7692C4.58607 21.652 4.90347 21.6714 4.90347 21.6714C3.91227 20.9732 -1.50756 23.0435 2.14961 23.6344C12.1201 25.2554 20.333 22.9068 17.745 21.7398Z" fill="#5382A1"/>
<path d="M6.82739 19.7188C2.98468 20.793 9.16625 23.0098 14.0586 20.915C13.258 20.6026 12.6818 20.2413 12.6818 20.2413C10.4992 20.6563 9.48853 20.6855 7.50609 20.461C5.87038 20.2754 6.82739 19.7188 6.82739 19.7188Z" fill="#5382A1"/>
<path d="M15.6063 24.4648C11.7637 25.1874 7.02257 25.1045 4.2149 24.6405C4.2149 24.6357 4.7911 25.1142 7.75001 25.3046C12.2519 25.5928 19.1658 25.1434 19.327 23.0146C19.327 23.0146 19.0145 23.8204 15.6063 24.4648Z" fill="#5382A1"/>
<path d="M13.4776 17.6191C10.587 18.1757 8.91227 18.1611 6.79809 17.9413C5.16233 17.7704 6.23167 16.9795 6.23167 16.9795C1.99352 18.3857 8.58515 19.9775 14.5078 18.2441C13.878 18.0243 13.4776 17.6191 13.4776 17.6191Z" fill="#5382A1"/>
</svg>
