<svg width="24" height="22" viewBox="0 0 24 22" fill="none" xmlns="http://www.w3.org/2000/svg">
<path d="M12.0043 12.7979C13.1887 12.7979 14.1488 11.8377 14.1488 10.6533C14.1488 9.46893 13.1887 8.50879 12.0043 8.50879C10.8199 8.50879 9.85977 9.46893 9.85977 10.6533C9.85977 11.8377 10.8199 12.7979 12.0043 12.7979Z" fill="#00D8FF"/>
<path d="M12.0043 15.567C8.99252 15.567 6.36098 15.2124 4.3916 14.5375C3.11428 14.1017 2.02919 13.5207 1.25596 12.8586C0.435742 12.158 0 11.3933 0 10.6542C0 9.23594 1.555 7.84755 4.16518 6.94189C6.30118 6.19856 9.08651 5.78418 12 5.78418C14.8622 5.78418 17.6091 6.18575 19.7323 6.92053C20.9754 7.34772 22.0221 7.90308 22.7654 8.51825C23.5728 9.19322 24 9.93227 24 10.6542C24 12.1281 22.2613 13.619 19.4589 14.546C17.4767 15.2039 14.8281 15.567 12.0043 15.567ZM12.0043 6.80946C9.2403 6.80946 6.50623 7.21102 4.50694 7.90735C2.10609 8.74466 1.02955 9.88955 1.02955 10.6542C1.02955 11.4488 2.18726 12.7005 4.72481 13.5677C6.5874 14.2043 9.10787 14.5417 12.0043 14.5417C14.7213 14.5417 17.2545 14.2 19.1385 13.572C21.7743 12.6962 22.979 11.4446 22.979 10.6542C22.979 10.2484 22.6714 9.76994 22.1118 9.30429C21.4667 8.76602 20.5269 8.27474 19.4033 7.88599C17.3827 7.19393 14.7554 6.80946 12.0043 6.80946Z" fill="#00D8FF"/>
<path d="M7.13848 21.3423C6.70274 21.3423 6.31826 21.2483 5.99359 21.0603C4.76753 20.3512 4.34034 18.3092 4.85725 15.5965C5.28017 13.3708 6.31399 10.7563 7.77074 8.23158C9.20185 5.75383 10.9192 3.57512 12.6152 2.10128C13.6063 1.23834 14.6102 0.60609 15.5158 0.272875C16.5027 -0.0902433 17.3571 -0.0902432 17.9808 0.268603C19.2581 1.00338 19.681 3.25899 19.0829 6.14685C18.66 8.1974 17.6518 10.6709 16.2421 13.1187C14.7383 15.7246 13.115 17.8265 11.5472 19.1978C10.5304 20.0863 9.4838 20.7357 8.52688 21.0732C8.02706 21.2526 7.55714 21.3423 7.13848 21.3423ZM8.21075 8.4879L8.65504 8.74422C7.27519 11.1365 6.25418 13.704 5.86116 15.7887C5.38697 18.2878 5.84407 19.7916 6.50196 20.1718C6.66429 20.2658 6.87789 20.317 7.13848 20.317C7.98861 20.317 9.32574 19.7788 10.8722 18.4288C12.3546 17.1344 13.9053 15.118 15.3535 12.6104C16.712 10.2565 17.6775 7.88982 18.079 5.94607C18.6387 3.22482 18.1559 1.55874 17.4681 1.16145C17.1178 0.960665 16.5497 0.986296 15.8661 1.23834C15.0758 1.52884 14.183 2.09701 13.2859 2.87879C11.6753 4.28 10.0306 6.36472 8.65504 8.74849L8.21075 8.4879Z" fill="#00D8FF"/>
<path d="M16.8701 21.355C15.7081 21.355 14.2343 20.6544 12.6963 19.33C10.979 17.8519 9.23177 15.6519 7.77075 13.1271C6.33537 10.6494 5.31009 8.07336 4.87862 5.86475C4.62657 4.57461 4.57958 3.39127 4.74192 2.43862C4.92134 1.40053 5.34427 0.661473 5.97225 0.298354C7.2453 -0.440699 9.41119 0.319714 11.6155 2.28055C13.1791 3.66895 14.8195 5.77931 16.2336 8.22288C17.7416 10.8288 18.754 13.2852 19.1556 15.3272C19.4162 16.6515 19.4589 17.8818 19.2752 18.8815C19.0787 19.9452 18.6344 20.7013 17.9936 21.073C17.6732 21.261 17.293 21.355 16.8701 21.355ZM8.65933 12.6145C10.0434 15.0068 11.7608 17.1727 13.3671 18.5525C15.2937 20.2101 16.8231 20.5689 17.4852 20.1844C18.173 19.7871 18.6771 18.1595 18.1559 15.528C17.7715 13.597 16.8017 11.2474 15.3492 8.73979C13.9865 6.38593 12.4187 4.36528 10.9363 3.04951C8.86011 1.20401 7.17695 0.789632 6.48916 1.18693C6.13886 1.38771 5.87826 1.89608 5.75438 2.61377C5.6134 3.44253 5.65612 4.50199 5.88681 5.66824C6.29692 7.76578 7.27948 10.2307 8.65933 12.6145Z" fill="#00D8FF"/>
</svg>
