<svg width="25" height="25" viewBox="0 0 25 25" fill="none" xmlns="http://www.w3.org/2000/svg">
<path fill-rule="evenodd" clip-rule="evenodd" d="M17.8596 1.20408C16.2354 0.431999 14.4182 0 12.5001 0C9.15401 0 6.11493 1.31475 3.87144 3.45582C1.48619 5.73215 22.0814 3.21082 17.8596 1.20408Z" fill="#FCC397"/>
<path fill-rule="evenodd" clip-rule="evenodd" d="M22.2652 4.69597C22.2795 4.7138 21.2457 6.09555 18.1387 6.48779C11.8674 7.27954 1.10055 7.36321 1.11672 7.32762C1.77952 5.87307 2.71449 4.55875 3.87121 3.45555C5.22437 3.87805 6.6972 3.9833 8.09036 3.72655C10.3907 3.30572 12.4373 1.97656 14.7127 1.43489C15.7227 1.19231 16.8229 1.12139 17.8593 1.20372C19.5812 2.02214 21.0865 3.2228 22.2652 4.69597Z" fill="#FC9F95"/>
<path fill-rule="evenodd" clip-rule="evenodd" d="M24.8474 10.5419C24.8553 10.5923 10.7056 11.9224 3.81142 11.5347C1.56526 11.4084 0.239683 10.0504 0.254766 9.97619C0.441816 9.06386 0.730998 8.17549 1.11685 7.32786C3.10851 6.2377 5.45183 5.60854 7.724 5.63337C10.5734 5.66254 13.3687 6.61253 16.2181 6.5417C18.3343 6.48787 20.4672 5.81254 22.2653 4.69629C23.5904 6.35228 24.503 8.35278 24.8474 10.5419Z" fill="#F77C88"/>
<path fill-rule="evenodd" clip-rule="evenodd" d="M25 12.5C25 12.5693 24.9983 12.7074 24.9983 12.7074C24.9983 12.7074 21.0682 13.6987 16.0067 13.6395C8.91738 13.5567 0.000321617 12.4132 0.000488284 12.3923C0.00696924 11.5782 0.0926506 10.7668 0.256321 9.96935C1.9549 11.0174 4.01473 11.5307 5.9973 11.3146C7.57388 11.1438 9.07138 10.5604 10.5315 9.9396C11.9915 9.31877 13.4432 8.65211 14.9864 8.29377C17.2535 7.76878 19.6787 7.95211 21.8458 8.80627C22.9002 9.22211 23.9463 9.81985 24.8473 10.5406C24.9492 11.1888 25.0002 11.8439 25 12.5Z" fill="#F25192"/>
<path fill-rule="evenodd" clip-rule="evenodd" d="M10.8238 16.5587C7.07356 17.2512 0.637582 16.4524 0.621332 16.403C0.218249 15.175 0 13.863 0 12.5C0 12.464 0.000166666 12.4281 0.000416665 12.3922C0.569748 11.9407 1.23475 11.5382 1.88399 11.2253C3.48966 10.4462 5.31157 10.1212 7.08781 10.2962C8.84323 10.4712 10.5196 11.1212 12.1419 11.8212C13.5085 12.4109 14.8665 13.048 16.2852 13.4882C16.4242 13.5313 14.952 15.7963 10.8238 16.5587Z" fill="#D34CA3"/>
<path fill-rule="evenodd" clip-rule="evenodd" d="M24.549 15.8388C24.2872 16.281 21.7966 17.7709 18.4205 18.0261C13.9504 18.3639 8.66963 17.0127 10.4214 16.325C13.1793 15.2417 15.5711 13.2958 18.4205 12.4833C20.5491 11.8736 22.9087 11.97 24.9983 12.7068C24.9818 13.7656 24.8308 14.818 24.549 15.8387V15.8388Z" fill="#9A50A5"/>
<path fill-rule="evenodd" clip-rule="evenodd" d="M23.3392 18.7295C21.1808 22.4769 5.52632 23.4166 3.2395 20.8959C2.07533 19.6127 1.17425 18.0865 0.621338 16.4025C2.54375 15.3038 4.79408 14.8371 6.95715 15.133C9.75665 15.5163 12.265 17.0788 15.0271 17.6871C17.2566 18.1788 19.6194 18.0246 21.7658 17.2496C22.7361 16.8965 23.6983 16.4235 24.5489 15.8385C24.2693 16.8494 23.8628 17.8208 23.3392 18.7295Z" fill="#59569E"/>
<path fill-rule="evenodd" clip-rule="evenodd" d="M23.3572 18.6985C21.2032 22.4631 17.1479 24.9999 12.4999 24.9999C8.82768 24.9999 5.52519 23.4164 3.23828 20.8949C3.61778 21.0399 4.04228 21.1654 4.43128 21.275C6.60685 21.8749 8.94876 21.8583 11.1118 21.2208C12.497 20.8125 13.799 20.1625 15.1592 19.6708C17.7548 18.7348 20.6117 18.4052 23.3572 18.6985Z" fill="#39477F"/>
</svg>
