<svg width="23" height="25" viewBox="0 0 23 25" fill="none" xmlns="http://www.w3.org/2000/svg">
<path d="M17.5984 1.10938H1.91156C0.860147 1.10938 0 1.96963 0 3.02094V20.3206C0 21.3719 0.860147 22.2322 1.91156 22.2322H12.2432C12.126 17.0914 13.8815 7.11469 17.5984 1.10938Z" fill="#0F80CC"/>
<path d="M17.0285 1.66699H1.91156C1.16499 1.66699 0.557526 2.27434 0.557526 3.02102V19.0584C3.98117 17.7445 9.11965 16.6107 12.6726 16.6622C13.3866 12.9289 15.485 5.61261 17.0285 1.66699Z" fill="url(#paint0_linear)"/>
<path d="M21.2573 0.543047C20.1829 -0.414963 18.8821 -0.0301981 17.5984 1.10927C17.4078 1.27847 17.2176 1.46628 17.0285 1.66691C14.8322 3.99679 12.7936 8.31223 12.1603 11.6081C12.4071 12.1085 12.5998 12.7469 12.7266 13.2347C12.7592 13.3598 12.7885 13.4772 12.812 13.5771C12.8677 13.8136 12.8977 13.9669 12.8977 13.9669C12.8977 13.9669 12.878 13.8924 12.7972 13.6581C12.7818 13.6132 12.7646 13.5642 12.7443 13.5064C12.7338 13.4782 12.7225 13.4503 12.7105 13.4226C12.5672 13.0896 12.171 12.3867 11.9965 12.0806C11.8583 12.4862 11.7278 12.8943 11.6052 13.3048C12.1087 14.226 12.4155 15.8048 12.4155 15.8048C12.4155 15.8048 12.3889 15.7025 12.2624 15.3453C12.15 15.0296 11.5906 14.0493 11.4581 13.8201C11.2314 14.6571 11.1413 15.2221 11.2226 15.3596C11.3803 15.6261 11.5304 16.0861 11.6624 16.5947C11.9603 17.7405 12.1673 19.1356 12.1673 19.1356C12.1673 19.1356 12.174 19.2281 12.1854 19.3703C12.1439 20.3326 12.1688 21.3302 12.2433 22.232C12.342 23.4257 12.5278 24.4512 12.7646 25L12.9255 24.9124C12.5777 23.8311 12.4364 22.4141 12.4982 20.7799C12.5919 18.282 13.1667 15.2695 14.2288 12.1298C16.0233 7.39012 18.5129 3.58728 20.7915 1.77113C18.7147 3.6468 15.9038 9.71799 15.0624 11.9662C14.1202 14.4838 13.4526 16.8464 13.0502 19.1099C13.7445 16.9878 15.9892 16.0757 15.9892 16.0757C15.9892 16.0757 17.0901 14.7179 18.3767 12.778C17.6061 12.9538 16.3405 13.2548 15.9166 13.4329C15.2913 13.6951 15.1229 13.7847 15.1229 13.7847C15.1229 13.7847 17.1482 12.5512 18.8859 11.9928C21.2756 8.22897 23.8792 2.88195 21.2573 0.543047Z" fill="#003B57"/>
<defs>
<linearGradient id="paint0_linear" x1="10.055" y1="2.02282" x2="10.055" y2="18.0913" gradientUnits="userSpaceOnUse">
<stop stop-color="#97D9F6"/>
<stop offset="0.92024" stop-color="#0F80CC"/>
<stop offset="1" stop-color="#0F80CC"/>
</linearGradient>
</defs>
</svg>
