<svg width="25" height="23" viewBox="0 0 25 23" fill="none" xmlns="http://www.w3.org/2000/svg">
<path d="M23.0225 15.306C24.4136 9.82607 21.0615 3.40157 15.3691 0C17.8992 3.40157 18.9109 7.43374 18.0252 11.0233C17.9487 11.3472 17.8428 11.6636 17.7088 11.9685C16.6191 11.2194 11.5739 8.12631 5.50195 2.01574C5.31222 1.82643 8.78962 6.92912 12.6485 10.9599C10.815 9.88941 5.69167 6.23519 2.46633 3.2749C2.84578 3.90482 3.35126 4.53474 3.85743 5.228C6.5766 8.6929 10.0554 12.8497 14.293 16.0619C11.3204 17.8891 7.14647 18.0144 2.9088 16.0619C1.83345 15.6207 0.948521 14.9914 -0.000793457 14.2982C1.77044 17.0698 4.48962 19.5262 7.77866 20.912C11.6999 22.6145 15.7163 22.6315 18.9739 20.66C20.365 19.9674 23.1485 19.2109 24.6663 22.1085C24.9828 22.9257 25.741 19.1482 22.8951 15.684C22.9581 15.558 22.9581 15.432 23.0218 15.3054L23.0225 15.306Z" fill="url(#paint0_linear)"/>
<defs>
<linearGradient id="paint0_linear" x1="12.4966" y1="0.00100787" x2="12.4966" y2="22.2104" gradientUnits="userSpaceOnUse">
<stop stop-color="#F88A36"/>
<stop offset="1" stop-color="#FD2020"/>
</linearGradient>
</defs>
</svg>
