<svg width="24" height="23" viewBox="0 0 24 23" fill="none" xmlns="http://www.w3.org/2000/svg">
<path d="M17.8523 9.5393C17.8989 9.39302 17.9388 9.26669 17.972 9.14036C18.371 7.70419 18.7766 6.26802 19.3284 4.87839C19.5744 4.25339 19.9933 3.901 20.6449 3.82786C21.0771 3.78132 21.5359 3.74142 21.8284 4.15366C22.0212 4.41297 22.2406 4.56589 22.5531 4.61908C22.6994 4.63903 22.8457 4.67892 22.9853 4.73211C23.1781 4.80525 23.2513 4.72547 23.3045 4.54594C23.4707 3.96084 23.6436 3.38238 23.8164 2.80392C24.0093 2.14568 24.0093 2.15233 23.371 1.92626C23.105 1.83318 22.8656 1.79328 22.5864 1.91297C22.1343 2.09914 21.722 2.026 21.3563 1.66031C20.9707 1.27467 20.5319 0.975465 20.0066 0.789295C18.4973 0.264029 16.9481 0.0313165 15.359 0.283976C14.5944 0.403657 13.8497 0.609774 13.2047 1.06855C13.1117 1.13504 13.0385 1.21483 12.9521 1.29461C13.8297 1.22148 14.6742 1.20818 15.5186 1.32121C16.0904 1.39435 16.6024 1.58717 16.9813 2.07254C17.3803 2.58451 17.4734 3.18956 17.5266 3.80126C17.5997 4.65898 17.4401 5.48344 17.2008 6.30126C16.9481 7.16563 16.7087 8.04328 16.4627 8.90765C16.4295 9.02068 16.4029 9.12041 16.5558 9.16031C16.9813 9.28664 17.4002 9.40632 17.8523 9.5393Z" fill="#235EE1"/>
<path d="M13.7632 22.611C14.1821 22.6443 14.5212 22.4514 14.734 22.0791C14.8603 21.8597 14.9601 21.6137 15.0199 21.3677C15.6582 18.728 16.2898 16.0884 16.9215 13.4421C17.1808 12.3451 17.4268 11.248 17.6928 10.1509C17.746 9.93814 17.6928 9.8517 17.4867 9.80516C17.2074 9.73867 16.9281 9.65889 16.6489 9.57245C16.1369 9.41952 16.2366 9.43947 16.0837 9.865C14.8271 13.4488 13.5638 17.0259 12.3071 20.6097C12.2539 20.756 12.2074 20.9155 12.2007 21.0685C12.1609 21.9727 12.7991 22.6044 13.7632 22.611Z" fill="#235EE1"/>
<path d="M0.86431 6.66043C0.890906 6.87985 0.917501 7.06602 0.944097 7.24554C1.13692 8.52213 1.33638 9.79873 1.52255 11.0753C1.71537 12.3586 1.90154 13.6485 2.08771 14.9317C2.28053 16.2283 2.47335 17.5181 2.67282 18.8147C2.7925 19.6325 2.91883 20.4503 3.03851 21.2748C3.06511 21.4477 3.12495 21.5275 3.33107 21.4942C4.54117 21.2947 5.75128 21.1019 6.96139 20.9158C8.69011 20.6431 10.4122 20.3838 12.1409 20.1112C12.2074 20.0979 12.2606 20.0181 12.3204 19.965C12.2473 19.9251 12.1609 19.8519 12.0944 19.8586C11.1502 19.9916 10.2127 20.1378 9.26857 20.2841C7.36032 20.5833 5.45208 20.8759 3.55048 21.1817C3.35101 21.215 3.28452 21.1684 3.25793 20.9756C3.1449 20.1445 3.02521 19.32 2.89888 18.4955C2.62628 16.6604 2.34037 14.8253 2.06777 12.9969C1.76857 11.0022 1.47601 9.00086 1.17016 6.99953C1.13692 6.78011 1.21005 6.68038 1.42947 6.65378C1.81511 6.60059 2.20075 6.5341 2.57974 6.47426C4.14889 6.2216 5.71803 5.96229 7.28718 5.70963C8.65687 5.48357 10.0332 5.25751 11.4029 5.03144C12.6795 4.82532 13.9494 4.61921 15.226 4.40644C15.8244 4.30671 16.4162 4.21362 17.0146 4.10059C17.0877 4.08729 17.1409 3.98091 17.2008 3.92107C17.121 3.88782 17.0412 3.85458 16.9614 3.82798C16.9414 3.82134 16.9148 3.83463 16.8883 3.84128C16.1436 3.96761 15.3989 4.09394 14.6609 4.21362C13.0917 4.47293 11.5226 4.72559 9.95341 4.9849C8.49064 5.22426 7.02788 5.47027 5.56511 5.70963C4.06245 5.95564 2.55979 6.2083 1.05713 6.44766C0.890906 6.47426 0.804469 6.5208 0.86431 6.66043Z" fill="#235EE1"/>
<path d="M19.8138 4.45294C19.7739 4.45294 19.7341 4.45294 19.6942 4.44629C19.6742 4.61251 19.6144 4.78538 19.6343 4.95161C19.7075 5.49017 19.8138 6.02874 19.9003 6.5673C20.1396 8.01012 20.379 9.45959 20.6184 10.9024C20.8577 12.3452 21.0971 13.7947 21.3431 15.2375C21.496 16.1617 21.6556 17.0859 21.8085 18.0035C21.8351 18.1431 21.8085 18.2428 21.6356 18.2694C20.359 18.4689 19.0825 18.6684 17.8059 18.8678C17.2008 18.9609 16.5958 19.0606 15.9907 19.167C15.9375 19.1737 15.891 19.2601 15.8444 19.3133C15.9109 19.3466 15.9708 19.4064 16.0306 19.4064C16.2234 19.3931 16.4096 19.3599 16.5958 19.3333C18.012 19.1072 19.4282 18.8811 20.8378 18.6551C21.2633 18.5886 21.6822 18.5154 22.141 18.4423C21.3697 13.7681 20.5918 9.11384 19.8138 4.45294Z" fill="#235EE1"/>
<path d="M14.7672 12.831C14.9201 12.6781 14.8935 12.5651 14.7871 12.4388C14.3682 11.9401 13.9627 11.4414 13.5438 10.9427C12.3802 9.53981 11.21 8.13024 10.0464 6.72066C9.95335 6.60763 9.87356 6.45471 9.84697 6.30843C9.80042 6.02253 9.99324 5.76322 10.2725 5.65018C10.5717 5.53715 10.831 5.61694 11.0837 5.91614C12.2273 7.28582 13.3776 8.65551 14.5212 10.0252C14.7938 10.351 15.073 10.6768 15.3589 11.0159C15.5052 10.863 15.4853 10.7499 15.3789 10.6236C14.9201 10.0784 14.4613 9.52652 14.0026 8.9813C13.0784 7.87758 12.1608 6.77386 11.2299 5.68343C10.8576 5.25125 10.2924 5.22465 9.88021 5.5837C9.47462 5.93609 9.45468 6.43476 9.83367 6.88689C11.2698 8.62226 12.706 10.351 14.1422 12.0864C14.3483 12.339 14.5544 12.5784 14.7672 12.831Z" fill="#235EE1"/>
<path d="M10.1795 10.0316C10.133 9.99837 10.0798 9.95183 10.0199 9.92523C9.56114 9.75236 9.10237 9.59279 8.64359 9.41991C8.49731 9.36672 8.43082 9.41991 8.37763 9.54624C7.53987 11.6074 6.7021 13.6619 5.86433 15.7231C5.79785 15.876 5.84439 15.9492 5.98402 16.0024C6.4162 16.1752 6.84838 16.3415 7.27391 16.5343C7.50662 16.6407 7.59971 16.5875 7.68614 16.3548C8.48401 14.3135 9.29518 12.279 10.0997 10.2444C10.1197 10.1978 10.1396 10.1313 10.1795 10.0316Z" fill="#235EE1"/>
<path d="M14.5612 12.8832C14.2287 12.4643 13.9229 12.1185 13.6702 11.7462C13.4442 11.4005 13.1915 11.2209 12.7726 11.3938C12.6729 11.4337 12.5599 11.4337 12.4535 11.447C11.5625 11.5999 10.6782 11.7529 9.78726 11.9058C9.64763 11.9324 9.52795 11.9656 9.46811 12.1318C9.29524 12.6239 9.10907 13.1092 8.92955 13.6013C8.9096 13.6545 8.9096 13.7209 8.8963 13.814C10.7912 13.5082 12.6397 13.2023 14.5612 12.8832Z" fill="#235EE1"/>
<path d="M7.08779 12.292C5.99736 12.4715 4.96013 12.6377 3.88965 12.8106C3.96279 13.3093 4.04257 13.7814 4.09577 14.2601C4.12236 14.4662 4.2088 14.4928 4.39497 14.4662C4.94018 14.3798 5.49204 14.3066 6.0439 14.2401C6.21013 14.2202 6.31651 14.1537 6.383 14.0008C6.58247 13.522 6.79523 13.0433 7.00135 12.5646C7.0346 12.4848 7.04789 12.4183 7.08779 12.292Z" fill="#235EE1"/>
<path d="M18.7766 16.4411C18.125 16.0421 17.4801 15.6498 16.7753 15.2243C16.8019 15.3506 16.7886 15.4969 16.8551 15.5701C16.9814 15.7097 17.1343 15.8294 17.3005 15.9158C17.5266 16.0421 17.766 16.1286 17.9987 16.2416C18.3378 16.4078 18.5838 16.6472 18.5838 17.0594C18.5838 17.1259 18.617 17.1924 18.6436 17.2655C18.6835 17.2456 18.6968 17.2389 18.7101 17.2323C18.7301 17.2123 18.7434 17.1924 18.7567 17.1725C19.1556 16.5807 19.1822 15.9291 19.0093 15.2642C18.8165 14.5195 18.4707 13.8746 17.746 13.5022C17.5465 13.4025 17.4202 13.4889 17.2739 13.5887C17.121 13.6951 17.0346 13.8214 17.0745 14.0475C17.1809 13.981 17.2739 13.9344 17.3404 13.8679C17.5067 13.6951 17.6596 13.735 17.8457 13.8546C18.5771 14.3666 19.0359 15.6565 18.7766 16.4411Z" fill="#235EE1"/>
<path d="M5.40558 19.2267C5.43217 19.24 5.45877 19.2533 5.48537 19.26C6.14361 18.4355 6.8085 17.6111 7.48005 16.7666C7.38031 16.7134 7.32047 16.6736 7.25398 16.647C6.82845 16.4741 6.40292 16.3145 5.98404 16.135C5.78457 16.0486 5.72473 16.1084 5.71143 16.3145C5.65824 16.873 5.59175 17.4315 5.53191 17.9967C5.48537 18.4089 5.44547 18.8212 5.40558 19.2267Z" fill="#235EE1"/>
<path d="M9.69407 7.76367C9.30843 7.80357 9.05577 7.96314 8.90949 8.30223C8.80976 8.54824 8.71667 8.79426 8.60364 9.03362C8.53715 9.17324 8.5571 9.25968 8.71667 9.31287C9.16215 9.4658 9.60763 9.63202 10.0465 9.80489C10.206 9.86473 10.2725 9.81154 10.3324 9.67191C10.4321 9.41925 10.5451 9.1666 10.6515 8.91394C10.7911 8.57484 10.7313 8.28894 10.4254 8.08947C10.206 7.94984 9.94008 7.87005 9.69407 7.76367Z" fill="#235EE1"/>
<path d="M17.4933 12.3522C18.0518 12.279 18.6036 12.2059 19.1489 12.1195C19.1954 12.1128 19.2552 11.9931 19.2486 11.9399C19.1821 11.5011 19.1023 11.0556 19.0092 10.6234C18.9959 10.557 18.8829 10.4639 18.8164 10.4639C18.5372 10.4838 18.2579 10.5237 17.9786 10.5703C17.839 10.5902 17.7393 10.6567 17.8191 10.8562C18.0717 10.8229 18.331 10.783 18.5904 10.7631C18.6502 10.7564 18.7632 10.8096 18.7699 10.8495C18.843 11.182 18.8962 11.5277 18.9627 11.8801C18.5305 11.9399 18.1249 11.9931 17.726 12.0463C17.5797 12.0663 17.4467 12.0995 17.4933 12.3522Z" fill="#235EE1"/>
<path d="M17.8523 9.53937C17.4068 9.40639 16.9813 9.28671 16.5624 9.16703C16.4095 9.12049 16.4361 9.0274 16.4693 8.91437C16.7153 8.04336 16.9547 7.17235 17.2073 6.30799C17.4467 5.49017 17.6063 4.65905 17.5331 3.80799C17.48 3.19629 17.3935 2.59788 16.9879 2.07926C16.6089 1.59389 16.097 1.40107 15.5252 1.32793C14.6808 1.2149 13.843 1.2282 12.9587 1.30134C13.0451 1.2282 13.1183 1.14176 13.2113 1.07528C13.8563 0.616499 14.601 0.410382 15.3656 0.290701C16.9613 0.0380412 18.5039 0.277403 20.0132 0.79602C20.5385 0.975541 20.9773 1.28139 21.3629 1.66703C21.7286 2.03272 22.1409 2.10586 22.593 1.91969C22.8722 1.80001 23.1116 1.8399 23.3776 1.93299C24.0159 2.15905 24.0159 2.1524 23.823 2.81065C23.6502 3.3891 23.4773 3.96756 23.3111 4.55267C23.2579 4.73219 23.1847 4.80533 22.9919 4.73884C22.8523 4.68565 22.706 4.64575 22.5597 4.62581C22.2472 4.57926 22.0212 4.42634 21.835 4.16038C21.5358 3.7548 21.0837 3.78804 20.6515 3.83458C19.9999 3.90772 19.581 4.26012 19.335 4.88512C18.7831 6.27474 18.3776 7.71091 17.9786 9.14708C17.9387 9.26677 17.8988 9.38645 17.8523 9.53937Z" fill="#235EE1"/>
<path d="M13.7632 22.6112C12.7991 22.6045 12.1675 21.9795 12.2007 21.0686C12.2074 20.9157 12.2539 20.7561 12.3071 20.6099C13.5637 17.0261 14.827 13.449 16.0903 9.87182C16.2366 9.44629 16.1435 9.43299 16.6555 9.57927C16.9348 9.65906 17.214 9.74549 17.4933 9.81198C17.6994 9.85853 17.7526 9.94496 17.6994 10.1577C17.4334 11.2548 17.1874 12.3519 16.9281 13.449C16.2965 16.0886 15.6648 18.7349 15.0265 21.3745C14.9667 21.6205 14.8669 21.8665 14.7406 22.0859C14.5212 22.4516 14.1821 22.6444 13.7632 22.6112Z" fill="#235EE1"/>
<path d="M0.864305 6.66043C0.804465 6.5208 0.890901 6.47426 1.06377 6.44766C2.56643 6.2083 4.06909 5.95564 5.57175 5.70963C7.03452 5.47027 8.49728 5.22426 9.96005 4.9849C11.5292 4.72559 13.0983 4.47293 14.6675 4.21362C15.4122 4.09394 16.1569 3.96761 16.8949 3.84128C16.9215 3.83463 16.9481 3.82134 16.968 3.82798C17.0478 3.85458 17.1276 3.88782 17.2074 3.92107C17.1475 3.98091 17.0944 4.08729 17.0212 4.10059C16.4295 4.21362 15.8311 4.30671 15.2327 4.40644C13.9561 4.61256 12.6861 4.81868 11.4095 5.03144C10.0398 5.25751 8.66351 5.48357 7.29383 5.70963C5.72468 5.96894 4.15553 6.2216 2.58638 6.47426C2.20074 6.5341 1.82175 6.60724 1.43611 6.65378C1.2167 6.68038 1.14356 6.78011 1.17681 6.99953C1.48266 8.99421 1.77521 10.9955 2.07441 12.9969C2.34702 14.832 2.63292 16.6671 2.90553 18.4955C3.03186 19.32 3.15154 20.1511 3.26457 20.9756C3.29117 21.1684 3.35101 21.215 3.55712 21.1817C5.45872 20.8759 7.36696 20.5833 9.27521 20.2841C10.2194 20.1378 11.1569 19.9916 12.101 19.8586C12.1675 19.8519 12.2539 19.9251 12.3271 19.965C12.2672 20.0181 12.214 20.0979 12.1475 20.1112C10.4255 20.3838 8.69675 20.6498 6.96803 20.9158C5.75792 21.1019 4.54782 21.2947 3.33771 21.4942C3.13159 21.5275 3.07175 21.4477 3.04516 21.2748C2.92548 20.457 2.80579 19.6392 2.67946 18.8147C2.48665 17.5181 2.28718 16.2283 2.09436 14.9317C1.90154 13.6485 1.71537 12.3586 1.5292 11.0753C1.33638 9.79873 1.14356 8.52213 0.950741 7.24554C0.917497 7.06602 0.890901 6.88649 0.864305 6.66043Z" fill="#235EE1"/>
<path d="M19.8138 4.45312C20.5917 9.10738 21.3696 13.7616 22.1542 18.4558C21.6954 18.5289 21.2766 18.6021 20.851 18.6686C19.4348 18.8946 18.0252 19.1207 16.609 19.3467C16.4228 19.3733 16.23 19.4066 16.0438 19.4199C15.984 19.4265 15.9175 19.36 15.8577 19.3268C15.9042 19.2736 15.9508 19.1938 16.0039 19.1805C16.609 19.0741 17.2141 18.9744 17.8191 18.8813C19.0957 18.6819 20.3723 18.4757 21.6489 18.2829C21.8218 18.2563 21.8417 18.1566 21.8218 18.017C21.6688 17.0928 21.5093 16.1752 21.3563 15.251C21.117 13.8082 20.8776 12.3587 20.6316 10.9159C20.3922 9.47307 20.1529 8.02361 19.9135 6.58079C19.8204 6.04222 19.7207 5.50366 19.6476 4.96509C19.6276 4.80552 19.6875 4.63265 19.7074 4.45977C19.7406 4.45312 19.7739 4.45312 19.8138 4.45312Z" fill="#235EE1"/>
<path d="M14.7672 12.8311C14.5544 12.5784 14.3483 12.3391 14.1422 12.0864C12.706 10.3511 11.2698 8.62233 9.83367 6.88696C9.45468 6.43483 9.47462 5.94281 9.88021 5.58377C10.2991 5.21808 10.8643 5.24467 11.2299 5.6835C12.1608 6.77393 13.0783 7.8843 14.0026 8.98137C14.4613 9.52659 14.9135 10.0784 15.3789 10.6237C15.4853 10.75 15.5119 10.863 15.3589 11.0159C15.073 10.6769 14.7938 10.3511 14.5212 10.0253C13.3776 8.65558 12.2273 7.28589 11.0837 5.91621C10.831 5.61701 10.5717 5.53058 10.2725 5.65026C9.98659 5.76329 9.80042 6.0226 9.84697 6.3085C9.86691 6.45478 9.9467 6.6077 10.0464 6.72074C11.21 8.13031 12.3736 9.53324 13.5438 10.9428C13.956 11.4415 14.3682 11.9402 14.7871 12.4388C14.8935 12.5652 14.9268 12.6782 14.7672 12.8311Z" fill="#235EE1"/>
<path d="M10.1795 10.031C10.1462 10.1308 10.1263 10.1906 10.0997 10.2571C9.29515 12.2917 8.48398 14.3262 7.6861 16.3675C7.59302 16.6002 7.50658 16.6534 7.27387 16.547C6.85499 16.3542 6.41616 16.1879 5.98398 16.0151C5.8377 15.9552 5.79781 15.8887 5.8643 15.7358C6.70871 13.6813 7.54648 11.6201 8.37759 9.55895C8.43078 9.42597 8.49727 9.37278 8.64355 9.43262C9.10233 9.60549 9.5611 9.76507 10.0199 9.93794C10.0797 9.95124 10.1263 9.99778 10.1795 10.031ZM8.61031 9.69858C8.49727 9.98448 8.39089 10.2371 8.29116 10.4898C7.60632 12.172 6.92148 13.8542 6.22999 15.5363C6.1502 15.7358 6.19009 15.8156 6.37626 15.8821C6.64222 15.9752 6.90818 16.0816 7.16084 16.2012C7.36031 16.301 7.44009 16.2611 7.51988 16.055C8.0385 14.7252 8.56376 13.402 9.09568 12.0722C9.34834 11.4406 9.59435 10.8089 9.85366 10.1507C9.43477 10.0044 9.04249 9.85815 8.61031 9.69858Z" fill="#235EE1"/>
<path d="M14.5611 12.8832C12.6395 13.2024 10.7911 13.5016 8.90283 13.8141C8.91613 13.721 8.91613 13.6612 8.93608 13.6013C9.1156 13.1093 9.30842 12.6239 9.47464 12.1319C9.53448 11.9657 9.65416 11.9258 9.79379 11.9058C10.6847 11.7529 11.5691 11.6 12.46 11.4471C12.5664 11.4271 12.6794 11.4338 12.7792 11.3939C13.198 11.2276 13.4441 11.4072 13.6768 11.7463C13.9228 12.1252 14.2286 12.4643 14.5611 12.8832ZM9.26852 13.4883C10.8909 13.2223 12.4667 12.9564 14.0757 12.6904C13.7898 12.3314 13.5438 12.0122 13.2845 11.6997C13.2379 11.6465 13.1316 11.6199 13.0518 11.6266C12.8191 11.6532 12.593 11.6931 12.3669 11.733C11.5757 11.8659 10.7845 11.9989 9.99991 12.1452C9.90017 12.1651 9.7539 12.225 9.72065 12.3048C9.55443 12.6771 9.42145 13.0627 9.26852 13.4883Z" fill="#235EE1"/>
<path d="M7.08779 12.292C7.04789 12.4183 7.02795 12.4848 7.00135 12.5513C6.79523 13.03 6.58247 13.5087 6.383 13.9875C6.31651 14.147 6.21678 14.2069 6.0439 14.2268C5.49204 14.2933 4.94683 14.3665 4.39497 14.4529C4.2088 14.4795 4.12236 14.4529 4.09577 14.2468C4.03592 13.7747 3.96279 13.3026 3.88965 12.7973C4.96013 12.6377 5.99736 12.4715 7.08779 12.292ZM6.67555 12.6311C5.87768 12.7574 5.13965 12.8704 4.41491 12.9968C4.34178 13.0101 4.2221 13.1298 4.2221 13.1896C4.24204 13.4755 4.29523 13.7614 4.35507 14.0473C4.36837 14.1005 4.4814 14.1736 4.5346 14.167C4.98672 14.1138 5.43885 14.054 5.88433 13.9808C5.97077 13.9675 6.0971 13.921 6.13034 13.8545C6.32316 13.4689 6.48273 13.0699 6.67555 12.6311Z" fill="#235EE1"/>
<path d="M18.7766 16.4409C19.0359 15.6563 18.5771 14.3664 17.8457 13.8677C17.6662 13.7414 17.5133 13.7082 17.3404 13.881C17.2739 13.9475 17.1809 13.9874 17.0745 14.0605C17.0346 13.8278 17.121 13.7082 17.2739 13.6018C17.4202 13.4954 17.5465 13.4156 17.746 13.5153C18.4707 13.8877 18.8165 14.5326 19.0093 15.2773C19.1822 15.9422 19.1556 16.5938 18.7567 17.1855C18.7434 17.2055 18.7301 17.2254 18.7101 17.2454C18.6968 17.2587 18.6835 17.2587 18.6436 17.2786C18.6237 17.2055 18.5838 17.139 18.5838 17.0725C18.5838 16.6603 18.3378 16.4209 17.9987 16.2547C17.766 16.1417 17.52 16.0552 17.3005 15.9289C17.1343 15.8358 16.9747 15.7228 16.8551 15.5831C16.7886 15.51 16.8019 15.3637 16.7753 15.2374C17.4801 15.6496 18.125 16.0419 18.7766 16.4409Z" fill="#235EE1"/>
<path d="M5.40558 19.2267C5.44547 18.8145 5.47872 18.4089 5.52526 17.9967C5.5851 17.4382 5.65824 16.8797 5.70478 16.3145C5.72473 16.1084 5.77792 16.0486 5.97739 16.135C6.39627 16.3145 6.8218 16.4741 7.24733 16.647C7.31382 16.6736 7.37366 16.7134 7.4734 16.7666C6.79521 17.6111 6.13696 18.4355 5.47872 19.26C5.45877 19.2533 5.43217 19.24 5.40558 19.2267ZM5.74467 18.4555C5.76462 18.4621 5.78457 18.4621 5.79787 18.4688C6.21675 17.9368 6.62898 17.4116 7.06116 16.8597C6.66888 16.7068 6.32978 16.5738 5.96409 16.4275C5.89095 17.1323 5.81781 17.7972 5.74467 18.4555Z" fill="#235EE1"/>
<path d="M9.69417 7.76367C9.94018 7.87005 10.2061 7.94984 10.4255 8.09612C10.7314 8.29559 10.7912 8.58149 10.6516 8.92059C10.5452 9.17325 10.4322 9.41926 10.3325 9.67857C10.2793 9.8182 10.2061 9.87139 10.0466 9.81155C9.60773 9.63867 9.16225 9.4791 8.71677 9.31952C8.5572 9.26633 8.5439 9.1799 8.60374 9.04027C8.71012 8.80091 8.80321 8.54825 8.90959 8.30889C9.05587 7.96314 9.30188 7.80357 9.69417 7.76367ZM8.883 9.08681C9.26863 9.23309 9.63433 9.37272 9.99337 9.4924C10.0333 9.5057 10.1263 9.44585 10.1529 9.39266C10.246 9.19984 10.3192 9.00037 10.4122 8.80091C10.4987 8.61474 10.4588 8.43522 10.2992 8.34213C10.113 8.2291 9.90693 8.14931 9.69417 8.09612C9.46145 8.04293 9.26863 8.14931 9.17555 8.37537C9.07582 8.60144 8.98938 8.82085 8.883 9.08681Z" fill="#235EE1"/>
<path d="M17.4932 12.3515C17.44 12.0988 17.5797 12.0656 17.726 12.0457C18.1249 11.9925 18.5238 11.9393 18.9627 11.8794C18.8962 11.527 18.843 11.1879 18.7698 10.8488C18.7632 10.809 18.6502 10.7558 18.5903 10.7624C18.331 10.7824 18.0717 10.8222 17.819 10.8555C17.7459 10.6494 17.8456 10.5895 17.9786 10.5696C18.2579 10.5297 18.5371 10.4832 18.8164 10.4632C18.8829 10.4566 18.9959 10.5563 19.0092 10.6228C19.1023 11.0616 19.1821 11.5004 19.2486 11.9393C19.2552 11.9925 19.1887 12.1121 19.1488 12.1188C18.6036 12.2052 18.0584 12.2717 17.4932 12.3515Z" fill="#235EE1"/>
<path d="M8.61032 9.69922C9.0425 9.85879 9.43479 9.99842 9.85367 10.1513C9.59436 10.8096 9.3417 11.4412 9.09569 12.0729C8.57043 13.4027 8.03851 14.7258 7.51989 16.0556C7.44011 16.2617 7.35367 16.3016 7.16085 16.2019C6.90819 16.0755 6.64223 15.9758 6.37628 15.8827C6.19011 15.8162 6.15021 15.7364 6.23 15.537C6.92149 13.8548 7.60633 12.1726 8.29117 10.4904C8.3909 10.2378 8.49064 9.98512 8.61032 9.69922Z" fill="#235EE1"/>
<path d="M9.26855 13.4889C9.42813 13.0633 9.55446 12.6844 9.71403 12.312C9.74728 12.2322 9.89356 12.1724 9.99329 12.1524C10.7845 12.0062 11.5757 11.8732 12.3603 11.7402C12.5864 11.7003 12.8191 11.6538 13.0451 11.6338C13.1183 11.6272 13.2313 11.6538 13.2779 11.707C13.5372 12.0195 13.7898 12.3386 14.0691 12.6976C12.4667 12.957 10.8909 13.2163 9.26855 13.4889Z" fill="#235EE1"/>
<path d="M6.67547 12.6309C6.48265 13.0697 6.32307 13.4686 6.13025 13.8476C6.09701 13.9141 5.97068 13.9606 5.88424 13.9739C5.43876 14.0471 4.98663 14.1069 4.53451 14.1601C4.47467 14.1668 4.36163 14.0936 4.35499 14.0404C4.29514 13.7612 4.24195 13.4753 4.22201 13.1827C4.21536 13.1229 4.33504 13.0032 4.41483 12.9899C5.13956 12.8702 5.87759 12.7572 6.67547 12.6309Z" fill="#235EE1"/>
<path d="M5.74457 18.4557C5.81771 17.7908 5.89084 17.1325 5.97063 16.4277C6.32967 16.5674 6.67542 16.707 7.0677 16.8599C6.63552 17.4118 6.21664 17.937 5.80441 18.469C5.78446 18.469 5.76451 18.4623 5.74457 18.4557Z" fill="#235EE1"/>
<path d="M8.88287 9.08738C8.98926 8.82142 9.07569 8.602 9.17543 8.38259C9.27516 8.15652 9.46133 8.05014 9.69404 8.10333C9.90681 8.14987 10.1129 8.23631 10.2991 8.34934C10.4587 8.44908 10.4986 8.62195 10.4121 8.80812C10.3257 9.00094 10.2459 9.20706 10.1528 9.39988C10.1262 9.44642 10.0331 9.51291 9.99325 9.49961C9.62756 9.37328 9.26851 9.23365 8.88287 9.08738Z" fill="#235EE1"/>
</svg>
